<?xml version="1.0" encoding="UTF-8" standalone="no"?> <svg xmlns="http://www.w3.org/2000/svg" xmlns:xlink="http://www.w3.org/1999/xlink" xmlns:serif="http://www.serif.com/" width="100%" height="100%" viewBox="0 0 1921 504" version="1.1" xml:space="preserve" style="fill-rule:evenodd;clip-rule:evenodd;stroke-linejoin:round;stroke-miterlimit:1.41421;"> <rect x="0" y="0" width="1920" height="504" style="fill:url(#_Linear1);"></rect> <path d="M988.208,404.556C999.259,396.082 1044.05,377.036 1045.13,364.672C1046.2,352.308 1026.79,347.356 1014.14,352.937C984.083,366.199 969.062,419.237 988.208,404.556Z" style="fill:white;fill-rule:nonzero;"></path> <path d="M1920.54,503.567L1920.54,310.857C1904.37,302.486 1880.62,296.745 1845.97,296.486C1711.97,295.486 1593.97,390.486 1443.97,431.486C1293.97,472.486 1263.97,376.486 1142.97,374.486C1053.74,373.011 950.373,458.549 902.244,503.566L1920.54,503.566L1920.54,503.567Z" style="fill:white;fill-rule:nonzero;"></path> <path d="M1104.82,352.895C1086.83,345.81 1077.46,329.783 1085.26,309.595C1096.21,281.254 1162.7,267.083 1147.84,302.51C1132.97,337.937 1122.81,359.98 1104.82,352.895Z" style="fill:rgb(166,104,235);"></path> <path d="M1106.13,323.422C1119.11,296.644 1138.31,284.421 1147.04,299.656C1155.77,314.891 1125.14,366.263 1148.41,377.8C1171.68,389.337 1122.32,440.508 1099.57,397.758C1084.02,368.532 1097.76,340.685 1106.13,323.422Z" style="fill:rgb(57,214,180);"></path> <path d="M1267.83,295.217C1262.5,298.55 1264.5,301.217 1267.83,300.217C1271.16,299.217 1273.16,291.883 1267.83,295.217ZM1240.83,275.217C1237.36,274.524 1235.33,280.217 1236.83,282.217C1238.33,284.217 1243.33,275.717 1240.83,275.217ZM1268.83,313.217C1266.83,312.717 1267.83,318.217 1269.83,320.217C1271.83,322.217 1273.61,314.411 1268.83,313.217ZM1283.83,287.217C1281.5,289.217 1279.5,292.217 1282.83,292.217C1286.16,292.217 1294.75,289.861 1291.83,286.217C1289.16,282.884 1286.16,285.217 1283.83,287.217ZM1248.83,288.217C1243.37,288.997 1247.16,289.883 1248.83,290.217C1250.5,290.55 1251.16,287.883 1248.83,288.217ZM1268.83,247.217C1270.5,243.884 1266.5,243.884 1265.83,245.217C1264.42,248.045 1267.16,250.55 1268.83,247.217ZM1139.43,372.948C1140.11,371.436 1137.09,370.804 1134.82,369.789C1132.55,368.774 1130.16,369.178 1129.49,370.69C1128.81,372.202 1130.1,374.251 1132.37,375.266C1134.64,376.281 1138.76,374.46 1139.43,372.948ZM1149.57,379.674C1148.06,378.997 1146.47,379.266 1146.02,380.275C1145.56,381.284 1146.42,382.649 1147.94,383.326C1149.45,384.003 1151.04,383.733 1151.49,382.725C1151.94,381.717 1151.08,380.35 1149.57,379.674ZM1158.39,386.904C1157.88,386.679 1157.2,387.109 1156.86,387.865C1156.52,388.621 1156.66,389.417 1157.16,389.643C1157.66,389.868 1158.35,389.438 1158.69,388.682C1159.02,387.926 1158.89,387.129 1158.39,386.904ZM1142.75,387.577C1141.24,386.9 1139.14,388.286 1138.58,389.547C1138.02,390.807 1138.79,392.378 1140.3,393.054C1141.81,393.731 1143.49,393.257 1144.06,391.997C1144.62,390.736 1144.26,388.253 1142.75,387.577ZM1148.15,357.129C1148.91,357.467 1149.8,357.128 1150.13,356.372C1150.47,355.616 1150.13,354.729 1149.38,354.39C1148.62,354.052 1147.73,354.39 1147.39,355.147C1147.06,355.904 1147.4,356.791 1148.15,357.129ZM1628.5,346C1627.39,346 1626.5,346.672 1626.5,347.5C1626.5,348.328 1627.39,349 1628.5,349C1629.61,349 1630.5,348.328 1630.5,347.5C1630.5,346.672 1629.61,346 1628.5,346ZM1639.5,360C1637.84,360 1636.5,361.12 1636.5,362.5C1636.5,363.88 1637.84,367 1639.5,367C1641.16,367 1642.5,363.88 1642.5,362.5C1642.5,361.119 1641.16,360 1639.5,360ZM1627,360C1626.17,360 1625.5,360.448 1625.5,361C1625.5,361.552 1626.17,362 1627,362C1627.83,362 1628.5,361.552 1628.5,361C1628.5,360.448 1627.83,360 1627,360ZM1670.5,344C1669.39,344 1668.5,344.672 1668.5,345.5C1668.5,346.328 1669.4,347 1670.5,347C1671.6,347 1673.5,346.328 1673.5,345.5C1673.5,344.672 1671.61,344 1670.5,344Z" style="fill:rgb(23,32,75);"></path> <path d="M1228.03,289.588C1221.22,283.255 1214.8,277.275 1211.5,268.638C1208.98,262.032 1207.7,254.773 1207.7,247.065L1207.7,238.133C1207.7,232.248 1202.87,227.461 1196.93,227.461L1189.68,227.461C1183.74,227.461 1178.91,232.248 1178.91,238.133L1178.91,285.855C1178.91,289.793 1181.27,293.418 1184.92,295.089C1189.87,297.36 1195.16,302.163 1195.16,308.833C1195.16,313.955 1193.45,315.707 1191.63,317.563C1189.96,319.27 1188.07,321.205 1188.07,325.384C1188.07,328.711 1190.72,333.569 1194.08,339.719C1199,348.723 1205.11,359.929 1205.98,371.396C1205.99,371.611 1205.87,371.729 1205.77,371.788C1205.55,371.907 1205.4,371.806 1205.35,371.771C1204.15,370.929 1203.2,369.433 1202.19,367.841C1200.48,365.117 1198.34,361.728 1194.07,361.728C1189.8,361.728 1187.66,365.118 1185.94,367.845C1184.3,370.44 1183.01,372.49 1180.48,372.49C1177.96,372.49 1176.67,370.44 1175.03,367.842C1173.31,365.118 1171.17,361.729 1166.9,361.729C1162.63,361.729 1160.49,365.119 1158.77,367.843C1157.77,369.429 1156.83,370.927 1155.62,371.772C1155.48,371.863 1155.35,371.87 1155.21,371.792C1155.1,371.73 1154.98,371.612 1154.99,371.396C1155.86,359.932 1161.97,348.728 1166.89,339.712C1170.25,333.565 1172.9,328.708 1172.9,325.385C1172.9,321.205 1171.01,319.271 1169.34,317.564C1167.52,315.71 1165.8,313.96 1165.8,308.834C1165.8,304.844 1167.4,301.816 1170.54,299.835L1170,298.989C1166.55,301.166 1164.8,304.477 1164.8,308.834C1164.8,314.368 1166.83,316.438 1168.62,318.264C1170.31,319.988 1171.9,321.615 1171.9,325.386C1171.9,328.454 1169.3,333.211 1166.01,339.246C1161.05,348.333 1154.88,359.642 1153.99,371.322C1153.93,372.149 1154.53,372.556 1154.72,372.663C1155.19,372.93 1155.74,372.902 1156.19,372.593C1157.56,371.633 1158.56,370.052 1159.62,368.377C1161.37,365.601 1163.18,362.73 1166.9,362.73C1170.62,362.73 1172.43,365.601 1174.18,368.381C1175.84,371.009 1177.41,373.491 1180.48,373.491C1183.56,373.491 1185.13,371.009 1186.79,368.377C1188.54,365.601 1190.35,362.73 1194.07,362.73C1197.79,362.73 1199.6,365.601 1201.36,368.386C1202.41,370.057 1203.41,371.635 1204.78,372.593C1205.22,372.902 1205.77,372.928 1206.26,372.661C1206.44,372.557 1207.04,372.149 1206.98,371.322C1206.09,359.64 1199.92,348.33 1194.96,339.241C1191.67,333.216 1189.07,328.457 1189.07,325.386C1189.07,321.615 1190.66,319.988 1192.35,318.263C1194.14,316.435 1196.16,314.364 1196.16,308.834C1196.16,301.69 1190.57,296.581 1185.33,294.181C1182.04,292.673 1179.91,289.405 1179.91,285.856L1179.91,238.134C1179.91,232.801 1184.29,228.462 1189.68,228.462L1196.93,228.462C1202.32,228.462 1206.7,232.801 1206.7,238.134L1206.7,247.066C1206.7,254.896 1208,262.275 1210.57,268.997C1213.94,277.85 1220.46,283.908 1227.36,290.327C1232.11,294.751 1237.03,299.325 1240.78,304.887C1250.15,318.758 1255.32,335.913 1255.32,353.191C1255.32,374.771 1247.53,394.653 1233.41,409.175C1219.48,423.497 1200.68,431.385 1180.48,431.385C1160.28,431.385 1141.49,423.497 1127.56,409.175C1113.43,394.654 1105.65,374.772 1105.65,353.191C1105.65,338.095 1109.46,323.352 1116.68,310.555C1120.14,304.407 1124.44,298.679 1129.45,293.532C1131.66,291.267 1133.88,289.252 1136.04,287.3C1141.82,282.071 1147.28,277.13 1150.4,268.996C1152.96,262.275 1154.26,254.897 1154.26,247.067L1154.26,218.299C1154.26,215.996 1155.17,213.826 1156.83,212.189C1158.48,210.548 1160.68,209.645 1163.01,209.645L1195.54,209.645C1199.88,209.645 1203.41,206.147 1203.41,201.848L1203.41,200.742C1203.41,196.443 1199.88,192.945 1195.54,192.945L1167.62,192.934C1162.65,192.92 1158.61,188.914 1158.61,184.004L1158.61,182.907C1158.61,178.16 1162.41,174.271 1167.33,174.045L1167.52,173.976L1191.11,173.974C1195.45,173.974 1198.99,170.472 1198.99,166.168L1198.99,165.072C1198.99,160.768 1195.45,157.266 1191.11,157.266L1172.07,157.266C1167.09,157.266 1163.04,153.258 1163.04,148.331L1163.04,147.235C1163.04,142.488 1166.83,138.599 1171.76,138.373L1171.95,138.303L1186.68,138.301C1191.03,138.301 1194.56,134.799 1194.56,130.495L1194.56,129.4C1194.56,125.096 1191.03,121.594 1186.68,121.594C1182.95,121.594 1179.91,118.586 1179.91,114.888L1179.58,0.334L1178.58,0.334L1178.91,114.889C1178.91,119.138 1182.39,122.594 1186.68,122.594C1190.47,122.594 1193.56,125.647 1193.56,129.4L1193.56,130.495C1193.56,134.248 1190.47,137.301 1186.68,137.301L1171.86,137.301C1171.71,137.301 1171.61,137.348 1171.53,137.39C1166.2,137.68 1162.04,141.986 1162.04,147.236L1162.04,148.332C1162.04,153.81 1166.54,158.267 1172.07,158.267L1191.11,158.267C1194.9,158.267 1197.99,161.32 1197.99,165.073L1197.99,166.169C1197.99,169.922 1194.9,172.975 1191.11,172.975L1167.43,172.975C1167.29,172.975 1167.18,173.022 1167.1,173.063C1161.77,173.353 1157.61,177.659 1157.61,182.909L1157.61,184.006C1157.61,189.435 1162.05,193.869 1167.47,193.933L1195.54,193.947C1199.33,193.947 1202.41,196.996 1202.41,200.744L1202.41,201.85C1202.41,205.598 1199.33,208.647 1195.54,208.647L1163.01,208.647C1160.41,208.647 1157.97,209.653 1156.12,211.48C1154.28,213.307 1153.26,215.729 1153.26,218.301L1153.26,247.069C1153.26,254.777 1151.98,262.035 1149.46,268.64C1146.43,276.55 1141.06,281.412 1135.37,286.562C1133.2,288.522 1130.96,290.549 1128.73,292.836C1123.66,298.045 1119.31,303.842 1115.8,310.066C1108.51,323.011 1104.65,337.924 1104.65,353.192C1104.65,375.035 1112.53,395.165 1126.84,409.874C1140.96,424.392 1160.01,432.387 1180.48,432.387C1200.95,432.387 1220,424.392 1234.12,409.874C1248.43,395.164 1256.31,375.034 1256.31,353.192C1256.31,335.717 1251.09,318.364 1241.61,304.328C1237.79,298.669 1232.83,294.055 1228.03,289.588Z" style="fill:rgb(23,32,75);fill-rule:nonzero;"></path> <path d="M1920.67,230.793C1869.82,227.645 1810.72,239.48 1763.63,252.392C1687.07,273.385 1596.82,309.89 1522.23,350.044C1461.34,382.822 1408.97,386.242 1375.76,383.338C1339.78,380.192 1317.91,369.15 1317.69,369.039L1317.24,369.929C1317.46,370.041 1339.46,381.158 1375.62,384.329C1381.45,384.841 1387.87,385.158 1394.81,385.158C1427.62,385.158 1472.26,378.08 1522.7,350.925C1597.24,310.804 1687.4,274.33 1763.89,253.356C1825.81,236.378 1878.75,229.187 1920.67,231.82L1920.67,230.793L1920.67,230.793Z" style="fill:rgb(23,32,75);fill-rule:nonzero;"></path> <path d="M87.122,159.827C104.387,179.748 110.917,207.352 117.232,234.047C125.076,267.204 133.187,301.49 162.232,319.922C183.135,333.188 192.344,369.582 185.149,410.486C179.634,441.832 164.387,476.469 137.092,504.333L138.495,504.333C165.512,476.434 180.634,441.92 186.133,410.66C193.398,369.361 184.008,332.557 162.768,319.078C134.067,300.863 126.362,268.297 118.205,233.817C111.862,207.004 105.303,179.279 87.877,159.172C67.577,135.749 33.119,136.162 7.787,140.632C5.143,141.099 2.543,141.619 -0.001,142.176L-0.001,143.2C2.598,142.627 5.256,142.093 7.961,141.616C33.039,137.191 67.13,136.758 87.122,159.827Z" style="fill:rgb(23,32,75);fill-rule:nonzero;"></path> <defs> <linearGradient id="_Linear1" x1="0" y1="0" x2="1" y2="0" gradientUnits="userSpaceOnUse" gradientTransform="matrix(3.08611e-14,-504,504,3.08611e-14,960,504)"><stop offset="0" style="stop-color:rgb(248,249,252);stop-opacity:1"></stop><stop offset="1" style="stop-color:white;stop-opacity:1"></stop></linearGradient> </defs> </svg> 