<?xml version="1.0" encoding="UTF-8" standalone="no"?> <svg xmlns="http://www.w3.org/2000/svg" xmlns:xlink="http://www.w3.org/1999/xlink" xmlns:serif="http://www.serif.com/" width="100%" height="100%" viewBox="0 0 134 26" version="1.1" xml:space="preserve" style="fill-rule:evenodd;clip-rule:evenodd;stroke-linejoin:round;stroke-miterlimit:1.41421;"> <path id="shortlist." d="M0,23.011C0,22.602 0.148,22.176 0.445,21.733C0.741,21.29 1.083,21.068 1.471,21.068C1.722,21.068 2.035,21.193 2.411,21.443C2.787,21.693 3.283,21.949 3.898,22.21C4.513,22.471 5.243,22.602 6.086,22.602C7.75,22.602 8.582,22.113 8.582,21.136C8.582,20.591 8.303,20.159 7.744,19.841C7.186,19.523 6.513,19.261 5.727,19.057C4.941,18.852 4.148,18.608 3.351,18.324C2.553,18.04 1.875,17.563 1.316,16.892C0.757,16.221 0.478,15.364 0.478,14.318C0.478,12.932 0.968,11.738 1.948,10.738C2.928,9.738 4.478,9.238 6.598,9.238C8.011,9.238 9.271,9.454 10.376,9.886C11.482,10.318 12.034,10.841 12.034,11.454C12.034,11.84 11.88,12.289 11.572,12.801C11.264,13.312 10.882,13.568 10.427,13.568C10.245,13.568 9.749,13.403 8.94,13.074C8.131,12.744 7.373,12.58 6.666,12.58C5.891,12.58 5.298,12.739 4.888,13.057C4.478,13.375 4.273,13.727 4.273,14.114C4.273,14.5 4.478,14.819 4.888,15.069C5.298,15.319 5.806,15.512 6.41,15.649C7.014,15.785 7.669,15.973 8.376,16.212C9.083,16.451 9.738,16.729 10.342,17.047C10.946,17.365 11.453,17.859 11.864,18.53C12.274,19.2 12.479,20.013 12.479,20.968C12.479,22.513 11.926,23.729 10.821,24.616C9.715,25.502 8.171,25.946 6.188,25.946C4.478,25.946 3.019,25.651 1.811,25.06C0.604,24.466 0,23.784 0,23.011ZM16.063,24.239L16.063,1.364C16.063,0.955 16.262,0.625 16.661,0.375C17.061,0.125 17.591,0 18.252,0C18.867,0 19.392,0.125 19.825,0.375C20.258,0.625 20.475,0.955 20.475,1.364L20.475,11.83C20.817,11.103 21.364,10.489 22.116,9.989C22.868,9.489 23.757,9.239 24.783,9.239C26.356,9.239 27.729,9.921 28.903,11.284C30.077,12.648 30.664,14.273 30.664,16.159L30.664,24.239C30.664,24.671 30.442,25.012 29.997,25.262C29.552,25.512 29.034,25.637 28.441,25.637C27.871,25.637 27.364,25.512 26.919,25.262C26.474,25.012 26.252,24.671 26.252,24.239L26.252,16.159C26.252,15.386 25.956,14.682 25.363,14.045C24.77,13.409 24.075,13.09 23.277,13.09C22.525,13.09 21.869,13.374 21.311,13.942C20.753,14.51 20.473,15.249 20.473,16.158L20.473,24.238C20.473,24.579 20.251,24.897 19.806,25.193C19.361,25.488 18.843,25.636 18.25,25.636C17.635,25.636 17.116,25.494 16.694,25.21C16.274,24.926 16.063,24.602 16.063,24.239ZM34.281,18.955L34.281,16.16C34.281,14.296 35.01,12.677 36.469,11.302C37.928,9.927 39.672,9.239 41.701,9.239C43.684,9.239 45.417,9.921 46.898,11.284C48.379,12.647 49.121,14.273 49.121,16.159L49.121,18.954C49.121,20.795 48.38,22.42 46.898,23.829C45.416,25.238 43.684,25.943 41.701,25.943C39.718,25.943 37.985,25.238 36.504,23.829C35.023,22.42 34.281,20.795 34.281,18.955ZM38.692,18.955C38.692,19.773 38.988,20.5 39.581,21.137C40.174,21.773 40.88,22.092 41.701,22.092C42.499,22.092 43.2,21.774 43.804,21.137C44.408,20.501 44.71,19.773 44.71,18.955L44.71,16.16C44.71,15.387 44.408,14.683 43.804,14.046C43.2,13.41 42.499,13.091 41.701,13.091C40.88,13.091 40.174,13.403 39.581,14.029C38.988,14.654 38.692,15.364 38.692,16.16L38.692,18.955ZM52.874,24.239L52.874,10.807C52.874,10.398 53.073,10.068 53.472,9.818C53.871,9.568 54.39,9.443 55.028,9.443C55.598,9.443 56.071,9.568 56.447,9.818C56.823,10.068 57.011,10.398 57.011,10.807L57.011,12.205C57.376,11.41 57.946,10.716 58.721,10.125C59.496,9.534 60.328,9.239 61.217,9.239L62.277,9.239C62.687,9.239 63.058,9.432 63.388,9.819C63.719,10.205 63.884,10.649 63.884,11.149C63.884,11.672 63.719,12.126 63.388,12.513C63.057,12.899 62.687,13.093 62.277,13.093L61.217,13.093C60.168,13.093 59.251,13.559 58.464,14.491C57.678,15.423 57.284,16.639 57.284,18.139L57.284,24.241C57.284,24.582 57.056,24.9 56.6,25.196C56.144,25.491 55.62,25.639 55.027,25.639C54.412,25.639 53.899,25.497 53.488,25.213C53.077,24.929 52.874,24.602 52.874,24.239ZM66.681,20.114L66.681,3.58C66.681,3.194 66.909,2.87 67.365,2.608C67.821,2.347 68.322,2.216 68.87,2.216C69.463,2.216 69.981,2.347 70.426,2.608C70.871,2.869 71.093,3.193 71.093,3.58L71.093,9.444L75.128,9.444C75.47,9.444 75.743,9.603 75.949,9.921C76.154,10.239 76.257,10.614 76.257,11.046C76.257,11.478 76.154,11.853 75.949,12.171C75.744,12.489 75.47,12.648 75.128,12.648L71.093,12.648L71.093,20.114C71.093,20.773 71.235,21.239 71.52,21.512C71.805,21.785 72.301,21.921 73.007,21.921L74.341,21.921C74.934,21.921 75.395,22.103 75.726,22.466C76.057,22.829 76.222,23.261 76.222,23.761C76.222,24.284 76.057,24.727 75.726,25.091C75.395,25.455 74.934,25.636 74.341,25.636L73.007,25.636C68.79,25.636 66.681,23.795 66.681,20.114ZM79.838,24.239L79.838,1.364C79.838,0.955 80.037,0.625 80.436,0.375C80.835,0.125 81.365,0 82.026,0C82.641,0 83.166,0.125 83.599,0.375C84.032,0.625 84.249,0.955 84.249,1.364L84.249,24.239C84.249,24.58 84.027,24.898 83.582,25.194C83.137,25.49 82.619,25.637 82.026,25.637C81.411,25.637 80.892,25.495 80.47,25.211C80.049,24.926 79.838,24.602 79.838,24.239ZM88.686,3.682C88.686,3.091 88.92,2.585 89.387,2.165C89.854,1.745 90.43,1.534 91.114,1.534C91.775,1.534 92.339,1.744 92.807,2.165C93.274,2.585 93.508,3.091 93.508,3.682C93.508,4.25 93.274,4.75 92.807,5.182C92.34,5.614 91.775,5.83 91.114,5.83C90.43,5.83 89.855,5.614 89.387,5.182C88.92,4.75 88.686,4.25 88.686,3.682ZM88.926,24.239L88.926,10.807C88.926,10.398 89.131,10.068 89.541,9.818C89.951,9.568 90.476,9.443 91.114,9.443C91.752,9.443 92.282,9.568 92.704,9.818C93.126,10.068 93.337,10.398 93.337,10.807L93.337,24.239C93.337,24.58 93.115,24.898 92.67,25.194C92.225,25.489 91.707,25.637 91.114,25.637C90.499,25.637 89.98,25.495 89.558,25.211C89.136,24.927 88.926,24.602 88.926,24.239ZM96.783,23.011C96.783,22.602 96.931,22.176 97.228,21.733C97.524,21.29 97.866,21.068 98.254,21.068C98.505,21.068 98.818,21.193 99.194,21.443C99.57,21.693 100.066,21.949 100.681,22.21C101.296,22.471 102.026,22.602 102.869,22.602C104.533,22.602 105.365,22.113 105.365,21.136C105.365,20.591 105.086,20.159 104.527,19.841C103.969,19.523 103.296,19.261 102.51,19.057C101.724,18.852 100.931,18.608 100.134,18.324C99.336,18.04 98.658,17.563 98.099,16.892C97.54,16.222 97.261,15.364 97.261,14.318C97.261,12.932 97.751,11.738 98.731,10.738C99.711,9.738 101.261,9.238 103.381,9.238C104.794,9.238 106.054,9.454 107.159,9.886C108.265,10.318 108.817,10.841 108.817,11.454C108.817,11.84 108.663,12.289 108.355,12.801C108.047,13.312 107.665,13.568 107.21,13.568C107.028,13.568 106.532,13.403 105.723,13.074C104.914,12.745 104.156,12.58 103.449,12.58C102.674,12.58 102.081,12.739 101.671,13.057C101.261,13.375 101.056,13.727 101.056,14.114C101.056,14.5 101.261,14.819 101.671,15.069C102.081,15.319 102.589,15.512 103.193,15.649C103.797,15.785 104.452,15.973 105.159,16.212C105.866,16.451 106.521,16.729 107.125,17.047C107.729,17.365 108.236,17.859 108.647,18.53C109.057,19.2 109.262,20.013 109.262,20.968C109.262,22.513 108.709,23.729 107.604,24.616C106.498,25.502 104.954,25.946 102.971,25.946C101.261,25.946 99.802,25.651 98.594,25.06C97.387,24.466 96.783,23.784 96.783,23.011ZM112.778,20.114L112.778,3.58C112.778,3.194 113.006,2.87 113.462,2.608C113.918,2.347 114.419,2.216 114.967,2.216C115.56,2.216 116.078,2.347 116.523,2.608C116.968,2.869 117.19,3.193 117.19,3.58L117.19,9.444L121.225,9.444C121.567,9.444 121.84,9.603 122.046,9.921C122.251,10.239 122.354,10.614 122.354,11.046C122.354,11.478 122.251,11.853 122.046,12.171C121.841,12.489 121.567,12.648 121.225,12.648L117.19,12.648L117.19,20.114C117.19,20.773 117.332,21.239 117.617,21.512C117.902,21.785 118.398,21.921 119.104,21.921L120.438,21.921C121.031,21.921 121.492,22.103 121.823,22.466C122.154,22.83 122.319,23.261 122.319,23.761C122.319,24.284 122.154,24.727 121.823,25.091C121.492,25.455 121.031,25.636 120.438,25.636L119.104,25.636C114.886,25.636 112.778,23.795 112.778,20.114Z" style="fill:rgb(24,33,76);fill-rule:nonzero;"></path> <path id="Path" d="M125.619,21.879C125.619,20.748 126.014,19.778 126.804,18.97C127.594,18.162 128.577,17.758 129.752,17.758C130.846,17.758 131.799,18.162 132.609,18.97C133.42,19.778 133.825,20.748 133.825,21.879C133.825,22.97 133.42,23.929 132.609,24.758C131.798,25.586 130.846,26 129.752,26C128.577,26 127.594,25.596 126.804,24.788C126.014,23.98 125.619,23.01 125.619,21.879Z" style="fill:rgb(49,211,174);fill-rule:nonzero;"></path> </svg> 