<?xml version="1.0" encoding="UTF-8" standalone="no"?> <svg xmlns="http://www.w3.org/2000/svg" xmlns:xlink="http://www.w3.org/1999/xlink" xmlns:serif="http://www.serif.com/" width="100%" height="100%" viewBox="0 0 1580 660" version="1.1" xml:space="preserve" style="fill-rule:evenodd;clip-rule:evenodd;stroke-linejoin:round;stroke-miterlimit:1.41421;"> <g transform="matrix(0.822412,0,0,1.12466,-0.355966,-0.650277)"> <rect x="0" y="0" width="1920" height="588" style="fill:url(#_Linear1);"></rect> </g> <g transform="matrix(0.822412,0,0,0.822412,-0.726505,168.569)"> <path d="M988.2,488.6C999.3,480.1 1044,461.1 1045.1,448.7C1046.2,436.3 1026.8,431.4 1014.1,437C984.1,450.2 969.1,503.2 988.2,488.6Z" style="fill:white;fill-rule:nonzero;"></path> </g> <g transform="matrix(0.822412,0,0,0.881477,-0.726505,142.863)"> <path d="M1920.5,587.6L1920.5,394.9C1904.3,386.5 1880.6,380.8 1845.9,380.5C1711.9,379.5 1593.9,474.5 1443.9,515.5C1293.9,556.5 1263.9,460.5 1142.9,458.5C1053.7,457 950.3,542.6 902.2,587.6L1920.5,587.6Z" style="fill:white;fill-rule:nonzero;"></path> </g> <g transform="matrix(0.878941,0,0,0.878941,-107.144,11.6562)"> <path d="M1920.5,136.1C1854.3,145.8 1785.3,145 1725.3,178.4C1700.6,192.1 1683.5,214.6 1680.9,243.3C1679.2,261.5 1684.5,280.6 1696.5,294.5C1712.7,313.3 1736.7,319.2 1757.9,330.2C1779.9,341.6 1796.8,361.2 1811.3,380.9C1829.2,405.2 1845.5,431.6 1869.6,449.8C1885.8,462 1903.3,467.6 1920.7,467.6L1920.7,136.1L1920.5,136.1Z" style="fill:rgb(57,214,180);"></path> </g> <g transform="matrix(0.822412,0,0,0.822412,-0.355966,-0.650277)"> <path d="M1797.8,267.9C1797.2,268 1797.4,269 1798,268.8C1798.6,268.7 1798.4,267.8 1797.8,267.9Z" style="fill:rgb(24,33,76);fill-rule:nonzero;"></path> </g> <g transform="matrix(0.822412,0,0,0.822412,-0.355966,-0.650277)"> <path d="M1787.1,265.3C1785.1,265.8 1785.9,268.8 1787.8,268.4C1789.8,267.9 1789,264.8 1787.1,265.3Z" style="fill:rgb(24,33,76);fill-rule:nonzero;"></path> </g> <g transform="matrix(0.822412,0,0,0.822412,-0.355966,-0.650277)"> <path d="M1775.1,257.4C1772.4,258.1 1773.4,262.3 1776.1,261.7C1778.8,261 1777.8,256.7 1775.1,257.4Z" style="fill:rgb(24,33,76);fill-rule:nonzero;"></path> </g> <g transform="matrix(0.822412,0,0,0.822412,-0.355966,-0.650277)"> <path d="M1749.5,250.6C1746.8,251.3 1747.8,255.5 1750.5,254.9C1753.2,254.2 1752.2,249.9 1749.5,250.6Z" style="fill:rgb(24,33,76);fill-rule:nonzero;"></path> </g> <g transform="matrix(0.822412,0,0,0.822412,-0.355966,-0.650277)"> <path d="M1726,243.7C1724.1,246.5 1728.6,249.5 1730.5,246.7C1732.3,243.8 1727.9,240.8 1726,243.7Z" style="fill:rgb(24,33,76);fill-rule:nonzero;"></path> </g> <g transform="matrix(0.822412,0,0,0.822412,-0.355966,-0.650277)"> <path d="M1708.1,237.2C1706.3,239.9 1710.6,242.8 1712.4,240C1714.2,237.3 1709.9,234.4 1708.1,237.2Z" style="fill:rgb(24,33,76);fill-rule:nonzero;"></path> </g> <g transform="matrix(0.822412,0,0,0.822412,-0.355966,-0.650277)"> <path d="M1704.5,249.6C1703.9,249.3 1703.4,248.9 1702.8,248.6C1702.5,248.4 1702.2,248.3 1701.9,248.3C1701.6,248.2 1701.3,248.2 1701,248.3C1700.7,248.3 1700.4,248.5 1700.2,248.7C1699.9,248.9 1699.7,249.1 1699.5,249.3C1699.4,249.5 1699.3,249.7 1699.2,249.9C1699.1,250.3 1699.1,250.7 1699.1,251.1C1699.2,251.3 1699.2,251.5 1699.3,251.7C1699.5,252.1 1699.8,252.4 1700.1,252.6C1700.6,253 1701.2,253.4 1701.7,253.8C1702,254 1702.3,254.1 1702.6,254.1C1702.9,254.2 1703.2,254.2 1703.5,254.1C1703.8,254 1704.1,253.9 1704.4,253.7C1704.7,253.5 1704.9,253.3 1705.1,253C1705.2,252.8 1705.3,252.6 1705.4,252.4C1705.5,252 1705.6,251.6 1705.5,251.2C1705.4,251 1705.4,250.8 1705.3,250.6C1705.2,250.2 1704.9,249.9 1704.5,249.6Z" style="fill:rgb(24,33,76);fill-rule:nonzero;"></path> </g> <g transform="matrix(0.822412,0,0,0.822412,-0.355966,-0.650277)"> <path d="M1693.9,247.9C1692.6,249.9 1695.7,252 1697,250C1698.4,248 1695.3,245.9 1693.9,247.9Z" style="fill:rgb(24,33,76);fill-rule:nonzero;"></path> </g> <g transform="matrix(0.822412,0,0,0.822412,-0.355966,-0.650277)"> <path d="M1506,205.2C1508,205.2 1509.5,206.8 1509.5,208.7C1509.5,210.6 1507.9,212.2 1506,212.2C1504.1,212.2 1502.5,210.6 1502.5,208.7C1502.5,206.8 1504,205.2 1506,205.2Z" style="fill:rgb(24,33,76);"></path> </g> <g transform="matrix(0.822412,0,0,0.822412,-0.355966,-0.650277)"> <path d="M62.8,385.1C64.8,385.1 66.3,386.7 66.3,388.6C66.3,390.5 64.7,392.1 62.8,392.1C60.8,392.1 59.3,390.5 59.3,388.6C59.3,386.7 60.8,385.1 62.8,385.1Z" style="fill:rgb(24,33,76);"></path> </g> <g transform="matrix(0.822412,0,0,0.822412,-0.355966,-0.650277)"> <path d="M59.4,395.6C59.1,395.5 58.9,395.6 58.7,395.9C50.1,414.9 42.1,435.8 35,457.9C27.9,479.7 15.2,501.7 0,522.5L0,524.2C15.7,503 28.8,480.5 36,458.2C43.1,436.1 51.1,415.3 59.7,396.3C59.8,396 59.7,395.7 59.4,395.6Z" style="fill:rgb(24,33,76);fill-rule:nonzero;"></path> </g> <g transform="matrix(0.822412,0,0,0.822412,-0.355966,-0.650277)"> <path d="M182.8,141.6C160.8,92.9 101.5,55.2 55.7,32.2C35.4,22 16,13.7 0,7.5L0,8.6C15.9,14.8 35.2,23 55.2,33.1C100.9,56 160,93.5 181.9,142C194.1,168.9 193.8,196.8 181,224.8C174.3,239.5 162.3,252.1 147.1,268C123.5,292.7 94.2,323.5 66,380.3C65.9,380.5 66,380.8 66.2,381C66.3,381 66.3,381.1 66.4,381.1C66.6,381.1 66.8,381 66.8,380.8C94.9,324.1 124.2,293.4 147.7,268.7C163,252.7 175,240.1 181.8,225.2C194.9,196.9 195.2,168.8 182.8,141.6Z" style="fill:rgb(24,33,76);fill-rule:nonzero;"></path> </g> <g transform="matrix(0.822412,0,0,0.822412,-0.355966,-0.650277)"> <path d="M1920.5,342.7C1887.8,318.1 1848,295.9 1802.5,277.1C1721.8,243.6 1624.9,220.7 1514.6,209C1514.3,209 1514.1,209.2 1514.1,209.4C1514.1,209.6 1514.3,209.9 1514.5,209.9C1687.1,228.2 1830.4,276 1920.5,343.8L1920.5,342.7Z" style="fill:rgb(24,33,76);fill-rule:nonzero;"></path> </g> <g transform="matrix(0.822412,0,0,0.822412,-0.355966,-0.650277)"> <path d="M1497.7,207.3C1482,205.8 1465.7,204.5 1449.5,203.5C1310.8,194.7 1238.6,135 1202.5,86.4C1177.5,52.7 1165.9,19.7 1160.7,0L1159.7,0C1164.8,19.7 1176.5,53 1201.7,86.9C1224.8,117.9 1254.5,143.4 1290,162.6C1334.4,186.5 1388,200.6 1449.5,204.5C1465.7,205.5 1481.9,206.8 1497.6,208.3C1497.9,208.3 1498.1,208.1 1498.1,207.8C1498.2,207.5 1498,207.3 1497.7,207.3Z" style="fill:rgb(24,33,76);fill-rule:nonzero;"></path> </g> <defs> <linearGradient id="_Linear1" x1="0" y1="0" x2="1" y2="0" gradientUnits="userSpaceOnUse" gradientTransform="matrix(3.60046e-14,-588,588,3.60046e-14,960,587.996)"><stop offset="0" style="stop-color:rgb(248,249,252);stop-opacity:1"></stop><stop offset="1" style="stop-color:white;stop-opacity:1"></stop></linearGradient> </defs> </svg> 