<?xml version="1.0" encoding="UTF-8" standalone="no"?> <svg xmlns="http://www.w3.org/2000/svg" xmlns:xlink="http://www.w3.org/1999/xlink" xmlns:serif="http://www.serif.com/" width="100%" height="100%" viewBox="0 0 188 30" version="1.1" xml:space="preserve" style="fill-rule:evenodd;clip-rule:evenodd;stroke-linejoin:round;stroke-miterlimit:1.41421;"> <path d="M10.371,1.2C9.42,1.148 8.564,1.74 8.247,2.626C8.995,2.698 9.689,3.026 10.226,3.568C10.459,3.803 10.457,4.181 10.223,4.414C10.106,4.53 9.953,4.588 9.801,4.588C9.647,4.588 9.493,4.529 9.376,4.411C8.99,4.022 8.476,3.807 7.931,3.807C7.386,3.807 6.872,4.021 6.486,4.411C6.473,4.424 6.458,4.433 6.444,4.445C6.144,4.821 5.965,5.293 5.965,5.796C5.973,6.309 5.646,6.738 5.172,6.865C4.236,7.115 3.581,7.974 3.581,8.953C3.581,9.005 3.583,9.057 3.587,9.108C3.621,9.573 3.394,10.003 2.995,10.233C2.327,10.617 1.912,11.337 1.912,12.111C1.912,12.404 1.97,12.689 2.085,12.957C2.267,13.382 2.165,13.879 1.825,14.223C1.42,14.632 1.197,15.174 1.197,15.749C1.197,16.109 1.291,16.46 1.459,16.773C2.087,15.967 3.06,15.446 4.155,15.446C4.485,15.446 4.753,15.714 4.753,16.044C4.753,16.374 4.485,16.642 4.155,16.642C2.925,16.642 1.925,17.652 1.925,18.894C1.925,18.918 1.921,18.942 1.918,18.965C1.946,19.988 2.674,20.852 3.677,21.031C4.154,21.116 4.51,21.511 4.543,21.99C4.604,22.887 5.09,23.957 7.054,23.958C7.6,23.958 8.097,24.268 8.351,24.766C8.72,25.491 9.449,25.941 10.254,25.941C11.428,25.941 12.398,24.986 12.416,23.812L12.416,23.438C12.41,23.215 12.349,22.512 11.86,22.003C11.46,21.587 10.844,21.376 10.029,21.376C9.699,21.376 9.431,21.108 9.431,20.778C9.431,20.448 9.699,20.18 10.029,20.18C11.009,20.18 11.808,20.424 12.416,20.902L12.416,3.474C12.414,2.26 11.517,1.262 10.371,1.2ZM5.874,8.329L7.781,8.329C8.111,8.329 8.379,8.597 8.379,8.927C8.379,9.257 8.111,9.525 7.781,9.525L5.874,9.525C5.544,9.525 5.276,9.257 5.276,8.927C5.276,8.597 5.544,8.329 5.874,8.329ZM9.92,13.015C10.25,13.018 10.516,13.289 10.512,13.619C10.509,13.947 10.241,14.211 9.914,14.211C9.913,14.211 9.913,14.211 9.912,14.211C9.646,14.214 8.784,14.312 8.784,15.46C8.784,15.79 8.516,16.058 8.186,16.058C7.856,16.058 7.588,15.79 7.588,15.46C7.588,14.72 7.812,14.123 8.253,13.686C8.922,13.024 9.825,13.016 9.92,13.015ZM4.168,11.456C4.165,11.126 4.43,10.855 4.76,10.852C4.864,10.849 5.803,10.861 6.49,11.542C6.93,11.978 7.153,12.568 7.153,13.297C7.153,13.627 6.885,13.895 6.555,13.895C6.225,13.895 5.957,13.627 5.957,13.297C5.957,12.894 5.856,12.598 5.648,12.392C5.312,12.059 4.78,12.048 4.772,12.048C4.446,12.051 4.171,11.787 4.168,11.456ZM9.828,22.354C10.268,22.79 10.491,23.38 10.491,24.109C10.491,24.439 10.223,24.707 9.893,24.707C9.563,24.707 9.295,24.439 9.295,24.109C9.295,23.706 9.194,23.41 8.986,23.205C8.649,22.871 8.117,22.861 8.109,22.861C8.107,22.861 8.105,22.861 8.103,22.861C7.775,22.861 7.508,22.597 7.505,22.268C7.502,21.938 7.767,21.667 8.097,21.664C8.203,21.667 9.141,21.673 9.828,22.354ZM10.013,18.943C9.359,19.59 8.485,19.617 8.346,19.617C8.342,19.617 8.339,19.617 8.337,19.617L4.206,19.617C3.876,19.617 3.608,19.349 3.608,19.019C3.608,18.689 3.876,18.421 4.206,18.421L8.343,18.421C8.611,18.419 9.482,18.322 9.482,17.172C9.482,16.842 9.75,16.574 10.08,16.574C10.41,16.574 10.678,16.842 10.678,17.172C10.678,17.91 10.454,18.506 10.013,18.943ZM10.884,10.73C10.884,11.06 10.616,11.328 10.286,11.328C9.956,11.328 9.687,11.06 9.687,10.73L9.687,8.195C9.685,7.901 9.591,6.947 8.452,6.947C8.122,6.947 7.854,6.679 7.854,6.349C7.854,6.019 8.122,5.75 8.452,5.75C9.164,5.75 9.744,5.971 10.176,6.407C10.874,7.111 10.884,8.091 10.883,8.201L10.883,10.73L10.884,10.73Z" style="fill:rgb(111,117,143);fill-rule:nonzero;"></path> <path d="M13.013,24.139C13.002,24.139 12.992,24.139 12.981,24.138C12.652,24.121 12.399,23.841 12.415,23.512C12.415,23.509 12.416,23.482 12.414,23.44L12.414,23.814C12.396,24.988 11.426,25.943 10.252,25.943C9.447,25.943 8.718,25.493 8.349,24.768C8.095,24.269 7.599,23.96 7.052,23.96C5.088,23.959 4.602,22.89 4.541,21.992C4.508,21.513 4.152,21.118 3.675,21.033C2.672,20.854 1.943,19.989 1.916,18.967C1.88,19.263 1.631,19.494 1.325,19.494C0.995,19.494 0.727,19.226 0.727,18.896C0.727,18.096 1.002,17.36 1.458,16.775C1.29,16.46 1.197,16.109 1.197,15.75C1.197,15.175 1.42,14.633 1.825,14.224C2.165,13.88 2.267,13.383 2.085,12.958C1.97,12.689 1.912,12.404 1.912,12.112C1.912,11.338 2.327,10.619 2.995,10.234C3.395,10.004 3.622,9.574 3.587,9.109C3.583,9.058 3.581,9.006 3.581,8.953C3.581,7.974 4.235,7.115 5.172,6.864C5.646,6.737 5.972,6.308 5.965,5.795C5.965,5.292 6.144,4.821 6.444,4.444C6.21,4.642 5.861,4.634 5.64,4.414C5.405,4.181 5.404,3.802 5.636,3.568C6.249,2.95 7.064,2.61 7.931,2.61C8.037,2.61 8.142,2.615 8.247,2.625C8.564,1.74 9.42,1.148 10.371,1.2C11.517,1.262 12.414,2.261 12.414,3.474L12.414,20.905C12.526,20.993 12.634,21.087 12.733,21.191C13.504,22.004 13.602,23.051 13.611,23.429L13.611,3.474C13.611,1.625 12.216,0.101 10.436,0.005C8.84,-0.08 7.402,0.985 7.015,2.541C6.998,2.608 6.967,2.639 6.958,2.642C5.667,3.118 4.794,4.356 4.769,5.735C3.36,6.157 2.385,7.466 2.385,8.953C2.385,9.036 2.388,9.119 2.398,9.196C1.36,9.794 0.716,10.911 0.716,12.111C0.716,12.552 0.801,12.981 0.968,13.388C0.344,14.022 0,14.86 0,15.75C0,16.534 0.276,17.297 0.776,17.9C0.818,17.95 0.833,18.022 0.816,18.09C0.749,18.356 0.716,18.631 0.716,18.908C0.716,20.5 1.821,21.863 3.359,22.191C3.445,23.02 3.968,25.157 7.053,25.158C7.147,25.158 7.235,25.217 7.283,25.312C7.857,26.44 8.994,27.142 10.252,27.142C12.076,27.142 13.583,25.658 13.61,23.826L13.61,23.553C13.61,23.563 13.609,23.571 13.609,23.574C13.593,23.892 13.329,24.139 13.013,24.139Z" style="fill:rgb(24,33,76);fill-rule:nonzero;"></path> <path d="M10.079,16.573C9.749,16.573 9.481,16.841 9.481,17.171C9.481,18.321 8.61,18.418 8.342,18.42L4.206,18.42C3.876,18.42 3.608,18.688 3.608,19.018C3.608,19.348 3.876,19.616 4.206,19.616L8.346,19.616C8.484,19.616 9.359,19.589 10.013,18.942C10.454,18.505 10.678,17.909 10.678,17.171C10.678,16.841 10.41,16.573 10.079,16.573Z" style="fill:rgb(24,33,76);fill-rule:nonzero;"></path> <path d="M8.452,5.75C8.122,5.75 7.854,6.018 7.854,6.348C7.854,6.678 8.122,6.946 8.452,6.946C9.591,6.946 9.685,7.901 9.687,8.195L9.687,10.729C9.687,11.059 9.955,11.327 10.285,11.327C10.615,11.327 10.883,11.059 10.883,10.729L10.883,8.201C10.884,8.091 10.873,7.111 10.176,6.407C9.744,5.971 9.164,5.75 8.452,5.75Z" style="fill:rgb(24,33,76);fill-rule:nonzero;"></path> <path d="M7.506,22.268C7.509,22.597 7.776,22.861 8.104,22.861C8.106,22.861 8.108,22.861 8.11,22.861C8.118,22.861 8.65,22.872 8.987,23.205C9.195,23.411 9.296,23.707 9.296,24.109C9.296,24.439 9.564,24.707 9.894,24.707C10.224,24.707 10.492,24.439 10.492,24.109C10.492,23.38 10.269,22.79 9.829,22.354C9.141,21.673 8.204,21.666 8.099,21.664C7.767,21.667 7.502,21.938 7.506,22.268Z" style="fill:rgb(24,33,76);fill-rule:nonzero;"></path> <path d="M5.648,12.392C5.856,12.598 5.957,12.894 5.957,13.297C5.957,13.627 6.225,13.895 6.555,13.895C6.885,13.895 7.153,13.627 7.153,13.297C7.153,12.568 6.93,11.978 6.49,11.542C5.802,10.861 4.864,10.849 4.76,10.852C4.43,10.855 4.164,11.126 4.168,11.456C4.171,11.786 4.446,12.051 4.772,12.048C4.78,12.049 5.312,12.059 5.648,12.392Z" style="fill:rgb(24,33,76);fill-rule:nonzero;"></path> <path d="M13.611,23.428C13.602,23.049 13.505,22.002 12.733,21.19C12.634,21.086 12.526,20.992 12.414,20.904C11.806,20.426 11.007,20.182 10.027,20.182C9.697,20.182 9.429,20.45 9.429,20.78C9.429,21.11 9.697,21.378 10.027,21.378C10.842,21.378 11.458,21.589 11.858,22.005C12.348,22.514 12.408,23.218 12.414,23.44C12.415,23.482 12.415,23.509 12.415,23.512C12.4,23.84 12.652,24.12 12.981,24.138C12.992,24.138 13.002,24.139 13.013,24.139C13.329,24.139 13.593,23.891 13.61,23.572C13.61,23.569 13.61,23.561 13.611,23.551C13.611,23.528 13.612,23.486 13.611,23.428Z" style="fill:rgb(24,33,76);fill-rule:nonzero;"></path> <path d="M4.154,16.644C4.484,16.644 4.752,16.376 4.752,16.046C4.752,15.716 4.484,15.448 4.154,15.448C3.06,15.448 2.086,15.969 1.458,16.775C1.002,17.361 0.727,18.096 0.727,18.896C0.727,19.226 0.995,19.494 1.325,19.494C1.631,19.494 1.881,19.263 1.916,18.967C1.919,18.943 1.923,18.92 1.923,18.896C1.924,17.654 2.925,16.644 4.154,16.644Z" style="fill:rgb(24,33,76);fill-rule:nonzero;"></path> <path d="M8.186,16.058C8.516,16.058 8.784,15.79 8.784,15.46C8.784,14.312 9.646,14.214 9.912,14.211C9.913,14.211 9.913,14.211 9.914,14.211C10.242,14.211 10.509,13.947 10.512,13.619C10.515,13.289 10.25,13.018 9.92,13.015C9.825,13.017 8.922,13.024 8.253,13.686C7.812,14.123 7.588,14.72 7.588,15.46C7.588,15.79 7.855,16.058 8.186,16.058Z" style="fill:rgb(24,33,76);fill-rule:nonzero;"></path> <path d="M7.931,3.807C8.477,3.807 8.99,4.021 9.376,4.411C9.493,4.529 9.647,4.588 9.801,4.588C9.953,4.588 10.106,4.53 10.222,4.414C10.457,4.181 10.458,3.802 10.225,3.568C9.687,3.026 8.994,2.698 8.246,2.626C8.142,2.616 8.037,2.61 7.931,2.61C7.064,2.61 6.249,2.95 5.636,3.568C5.404,3.802 5.405,4.181 5.64,4.414C5.861,4.634 6.21,4.642 6.445,4.445C6.459,4.433 6.474,4.424 6.487,4.411C6.872,4.021 7.385,3.807 7.931,3.807Z" style="fill:rgb(24,33,76);fill-rule:nonzero;"></path> <path d="M5.874,9.526L7.781,9.526C8.111,9.526 8.379,9.258 8.379,8.928C8.379,8.598 8.111,8.33 7.781,8.33L5.874,8.33C5.544,8.33 5.276,8.598 5.276,8.928C5.276,9.258 5.544,9.526 5.874,9.526Z" style="fill:rgb(24,33,76);fill-rule:nonzero;"></path> <path d="M18.965,20.78C18.965,21.11 18.697,21.378 18.367,21.378C17.547,21.378 16.928,21.592 16.529,22.013C16.055,22.513 15.988,23.191 15.98,23.425L15.98,23.824C15.998,24.989 16.968,25.944 18.142,25.944C18.947,25.944 19.676,25.494 20.045,24.769C20.299,24.27 20.796,23.961 21.342,23.961C23.306,23.96 23.792,22.891 23.853,21.994C23.886,21.514 24.242,21.12 24.719,21.034C25.722,20.855 26.451,19.99 26.478,18.968C26.475,18.944 26.471,18.921 26.471,18.897C26.471,17.655 25.471,16.645 24.241,16.645C23.911,16.645 23.643,16.377 23.643,16.047C23.643,15.717 23.911,15.449 24.241,15.449C25.335,15.449 26.309,15.97 26.937,16.776C27.105,16.463 27.199,16.111 27.199,15.752C27.199,15.177 26.976,14.635 26.571,14.227C26.231,13.882 26.129,13.385 26.311,12.96C26.425,12.692 26.484,12.407 26.484,12.114C26.484,11.34 26.069,10.621 25.401,10.236C25.002,10.007 24.775,9.576 24.809,9.113C24.813,9.059 24.815,9.007 24.815,8.956C24.815,7.977 24.161,7.118 23.224,6.867C22.75,6.74 22.424,6.31 22.431,5.822C22.431,5.303 22.25,4.823 21.947,4.443C21.935,4.433 21.922,4.425 21.911,4.413C21.525,4.024 21.011,3.809 20.466,3.809C19.92,3.809 19.407,4.023 19.021,4.413C18.904,4.531 18.75,4.59 18.596,4.59C18.444,4.59 18.291,4.532 18.175,4.416C17.94,4.183 17.939,3.804 18.172,3.57C18.71,3.028 19.404,2.7 20.152,2.628C19.848,1.778 19.047,1.199 18.142,1.199C18.104,1.199 18.065,1.2 18.027,1.202C16.877,1.262 15.98,2.26 15.98,3.474L15.98,20.905C16.588,20.427 17.387,20.183 18.367,20.183C18.698,20.182 18.965,20.45 18.965,20.78ZM20.29,22.861C20.289,22.861 20.289,22.861 20.288,22.861C20.008,22.863 19.098,22.96 19.098,24.11C19.098,24.44 18.83,24.708 18.5,24.708C18.17,24.708 17.902,24.44 17.902,24.11C17.902,23.381 18.125,22.791 18.565,22.355C19.253,21.674 20.191,21.662 20.295,21.665C20.625,21.668 20.891,21.939 20.887,22.269C20.885,22.597 20.618,22.861 20.29,22.861ZM23.634,10.852C23.964,10.855 24.23,11.126 24.226,11.456C24.223,11.784 23.955,12.048 23.628,12.048C23.627,12.048 23.627,12.048 23.626,12.048C23.346,12.05 22.436,12.147 22.436,13.297C22.436,13.627 22.168,13.895 21.838,13.895C21.508,13.895 21.24,13.627 21.24,13.297C21.24,12.568 21.463,11.978 21.903,11.542C22.591,10.861 23.527,10.851 23.634,10.852ZM22.326,8.329C22.656,8.329 22.924,8.597 22.924,8.927C22.924,9.257 22.656,9.525 22.326,9.525L20.419,9.525C20.089,9.525 19.821,9.257 19.821,8.927C19.821,8.597 20.089,8.329 20.419,8.329L22.326,8.329ZM20.806,15.46C20.806,15.79 20.538,16.058 20.208,16.058C19.878,16.058 19.61,15.79 19.61,15.46C19.61,14.311 18.746,14.214 18.481,14.211C18.153,14.208 17.885,13.941 17.885,13.613C17.885,13.285 18.146,13.018 18.474,13.014C18.573,13.015 19.472,13.023 20.141,13.685C20.582,14.123 20.806,14.72 20.806,15.46ZM17.078,10.73L17.078,8.195C17.077,8.091 17.088,7.111 17.785,6.407C18.217,5.971 18.797,5.75 19.509,5.75C19.839,5.75 20.107,6.018 20.107,6.348C20.107,6.678 19.839,6.946 19.509,6.946C19.123,6.946 18.837,7.045 18.636,7.249C18.285,7.603 18.275,8.184 18.275,8.189L18.275,10.729C18.275,11.059 18.007,11.327 17.677,11.327C17.347,11.327 17.078,11.06 17.078,10.73ZM17.619,17.172C17.619,16.842 17.887,16.574 18.217,16.574C18.547,16.574 18.815,16.842 18.815,17.172C18.815,18.324 19.76,18.419 20.049,18.421L23.994,18.421C24.324,18.421 24.592,18.689 24.592,19.019C24.592,19.349 24.324,19.617 23.994,19.617L20.051,19.617C20.048,19.617 20.045,19.617 20.042,19.617C19.901,19.617 18.964,19.59 18.281,18.914C17.842,18.479 17.619,17.893 17.619,17.172Z" style="fill:rgb(111,117,143);fill-rule:nonzero;"></path> <path d="M28.394,15.75C28.394,14.863 28.052,14.027 27.427,13.388C27.594,12.981 27.679,12.552 27.679,12.112C27.679,10.912 27.034,9.795 26,9.203C26.006,9.121 26.009,9.038 26.009,8.954C26.009,7.467 25.033,6.158 23.625,5.736C23.6,4.357 22.727,3.119 21.436,2.643C21.427,2.64 21.396,2.608 21.379,2.542C20.992,0.986 19.552,-0.079 17.958,0.005C16.178,0.101 14.783,1.625 14.783,3.474L14.783,23.427C14.792,23.047 14.89,22.002 15.66,21.19C15.759,21.086 15.867,20.992 15.979,20.904L15.979,3.474C15.979,2.261 16.876,1.262 18.022,1.2C18.061,1.198 18.099,1.197 18.137,1.197C19.041,1.197 19.842,1.777 20.147,2.626C20.251,2.616 20.356,2.611 20.462,2.611C21.329,2.611 22.144,2.951 22.757,3.569C22.99,3.804 22.988,4.182 22.754,4.415C22.531,4.636 22.178,4.643 21.944,4.441C22.247,4.821 22.429,5.301 22.428,5.82C22.42,6.308 22.746,6.738 23.221,6.865C24.158,7.116 24.812,7.974 24.812,8.954C24.812,9.006 24.81,9.057 24.806,9.111C24.772,9.574 24.999,10.004 25.398,10.234C26.066,10.619 26.481,11.338 26.481,12.112C26.481,12.405 26.423,12.689 26.308,12.958C26.126,13.384 26.228,13.881 26.568,14.225C26.973,14.633 27.196,15.175 27.196,15.75C27.196,16.11 27.102,16.461 26.934,16.774C27.39,17.36 27.665,18.095 27.665,18.895C27.665,19.225 27.397,19.493 27.067,19.493C26.761,19.493 26.511,19.262 26.476,18.966C26.448,19.989 25.72,20.853 24.717,21.032C24.24,21.117 23.884,21.512 23.851,21.992C23.79,22.889 23.304,23.959 21.34,23.959C20.794,23.959 20.297,24.269 20.043,24.767C19.674,25.492 18.945,25.942 18.14,25.942C16.966,25.942 15.996,24.987 15.978,23.822L15.978,23.423C15.976,23.475 15.977,23.506 15.977,23.507C15.994,23.837 15.741,24.119 15.411,24.136C15.4,24.136 15.39,24.137 15.379,24.137C15.063,24.137 14.799,23.889 14.782,23.57C14.782,23.567 14.782,23.559 14.781,23.549L14.781,23.831C14.809,25.655 16.315,27.138 18.139,27.138C19.397,27.138 20.535,26.437 21.108,25.308C21.157,25.213 21.245,25.154 21.338,25.154C24.423,25.153 24.947,23.017 25.033,22.187C26.571,21.86 27.676,20.497 27.676,18.904C27.676,18.628 27.642,18.353 27.576,18.086C27.559,18.017 27.573,17.946 27.615,17.895C28.118,17.297 28.394,16.533 28.394,15.75Z" style="fill:rgb(24,33,76);fill-rule:nonzero;"></path> <path d="M20.051,19.617L23.994,19.617C24.324,19.617 24.592,19.349 24.592,19.019C24.592,18.689 24.324,18.421 23.994,18.421L20.05,18.421C19.76,18.419 18.816,18.324 18.816,17.172C18.816,16.842 18.548,16.574 18.218,16.574C17.888,16.574 17.62,16.842 17.62,17.172C17.62,17.893 17.843,18.479 18.282,18.914C18.965,19.59 19.902,19.617 20.043,19.617C20.046,19.617 20.049,19.617 20.051,19.617Z" style="fill:rgb(24,33,76);fill-rule:nonzero;"></path> <path d="M18.275,10.73L18.275,8.19C18.275,8.184 18.285,7.604 18.636,7.25C18.838,7.046 19.123,6.947 19.509,6.947C19.839,6.947 20.107,6.679 20.107,6.349C20.107,6.019 19.84,5.75 19.509,5.75C18.797,5.75 18.217,5.971 17.785,6.407C17.087,7.111 17.077,8.091 17.078,8.195L17.078,10.729C17.078,11.059 17.346,11.327 17.676,11.327C18.006,11.327 18.275,11.06 18.275,10.73Z" style="fill:rgb(24,33,76);fill-rule:nonzero;"></path> <path d="M20.296,21.664C20.191,21.661 19.253,21.673 18.566,22.354C18.126,22.79 17.903,23.38 17.903,24.109C17.903,24.439 18.171,24.707 18.501,24.707C18.831,24.707 19.099,24.439 19.099,24.109C19.099,22.959 20.009,22.863 20.289,22.86C20.29,22.86 20.29,22.86 20.291,22.86C20.619,22.86 20.886,22.596 20.889,22.267C20.891,21.938 20.626,21.667 20.296,21.664Z" style="fill:rgb(24,33,76);fill-rule:nonzero;"></path> <path d="M21.24,13.297C21.24,13.627 21.508,13.895 21.838,13.895C22.168,13.895 22.436,13.627 22.436,13.297C22.436,12.147 23.346,12.051 23.626,12.048C23.626,12.048 23.627,12.048 23.628,12.048C23.956,12.048 24.223,11.784 24.226,11.456C24.229,11.126 23.964,10.855 23.634,10.852C23.527,10.85 22.591,10.861 21.904,11.542C21.463,11.978 21.24,12.569 21.24,13.297Z" style="fill:rgb(24,33,76);fill-rule:nonzero;"></path> <path d="M15.381,24.139C15.392,24.139 15.402,24.139 15.413,24.138C15.743,24.121 15.997,23.839 15.979,23.509C15.979,23.507 15.978,23.477 15.98,23.425C15.988,23.191 16.055,22.513 16.529,22.013C16.929,21.592 17.547,21.378 18.367,21.378C18.697,21.378 18.965,21.11 18.965,20.78C18.965,20.45 18.697,20.182 18.367,20.182C17.387,20.182 16.588,20.426 15.98,20.904C15.868,20.992 15.76,21.086 15.661,21.19C14.891,22.002 14.792,23.047 14.784,23.427C14.783,23.486 14.783,23.528 14.784,23.552C14.784,23.562 14.785,23.57 14.785,23.573C14.801,23.892 15.065,24.139 15.381,24.139Z" style="fill:rgb(24,33,76);fill-rule:nonzero;"></path> <path d="M24.24,15.447C23.91,15.447 23.642,15.715 23.642,16.045C23.642,16.375 23.91,16.643 24.24,16.643C25.47,16.643 26.47,17.653 26.47,18.895C26.47,18.919 26.474,18.943 26.477,18.966C26.513,19.262 26.762,19.493 27.068,19.493C27.398,19.493 27.666,19.225 27.666,18.895C27.666,18.095 27.391,17.359 26.935,16.774C26.308,15.968 25.334,15.447 24.24,15.447Z" style="fill:rgb(24,33,76);fill-rule:nonzero;"></path> <path d="M18.474,13.015C18.146,13.018 17.885,13.286 17.885,13.614C17.885,13.942 18.153,14.209 18.481,14.212C18.746,14.214 19.61,14.312 19.61,15.461C19.61,15.791 19.878,16.059 20.208,16.059C20.538,16.059 20.806,15.791 20.806,15.461C20.806,14.721 20.582,14.124 20.141,13.687C19.472,13.024 18.573,13.016 18.474,13.015Z" style="fill:rgb(24,33,76);fill-rule:nonzero;"></path> <path d="M18.172,4.414C18.289,4.53 18.441,4.588 18.593,4.588C18.747,4.588 18.901,4.529 19.018,4.411C19.404,4.022 19.918,3.807 20.463,3.807C21.009,3.807 21.522,4.021 21.908,4.411C21.919,4.422 21.932,4.43 21.944,4.441C22.178,4.643 22.531,4.636 22.754,4.415C22.989,4.182 22.99,3.803 22.757,3.569C22.145,2.95 21.33,2.61 20.463,2.61C20.357,2.61 20.252,2.615 20.148,2.625C19.4,2.697 18.706,3.025 18.168,3.567C17.935,3.802 17.937,4.181 18.172,4.414Z" style="fill:rgb(24,33,76);fill-rule:nonzero;"></path> <path d="M19.82,8.928C19.82,9.258 20.088,9.526 20.418,9.526L22.325,9.526C22.655,9.526 22.923,9.258 22.923,8.928C22.923,8.598 22.655,8.33 22.325,8.33L20.418,8.33C20.088,8.329 19.82,8.597 19.82,8.928Z" style="fill:rgb(24,33,76);fill-rule:nonzero;"></path> <path d="M45.956,19.506L36.85,8.123L36.075,8.123L36.075,21.791L37.237,21.791L37.237,10.408L46.343,21.791L47.118,21.791L47.118,8.123L45.956,8.123L45.956,19.506Z" style="fill:rgb(24,33,76);fill-rule:nonzero;"></path> <path d="M53.706,14.801L58.549,14.801L58.549,13.688L53.706,13.688L53.706,9.236L59.906,9.236L59.906,8.123L52.543,8.123L52.543,21.791L60.099,21.791L60.099,20.678L53.706,20.678L53.706,14.801Z" style="fill:rgb(24,33,76);fill-rule:nonzero;"></path> <path d="M74.049,16.382C74.049,17.573 73.836,18.295 73.448,18.92C72.692,20.111 71.336,20.873 69.786,20.873C68.236,20.873 66.88,20.112 66.124,18.92C65.736,18.295 65.523,17.573 65.523,16.382L65.523,8.123L64.36,8.123L64.36,16.323C64.36,17.768 64.651,18.705 65.154,19.506C66.103,21.009 67.828,21.986 69.785,21.986C71.742,21.986 73.466,21.01 74.415,19.506C74.919,18.706 75.209,17.768 75.209,16.323L75.209,8.123L74.047,8.123L74.047,16.382L74.049,16.382Z" style="fill:rgb(24,33,76);fill-rule:nonzero;"></path> <path d="M87.708,13.922C88.367,13.317 88.774,12.438 88.774,11.462C88.774,10.486 88.367,9.608 87.708,9.002C87.108,8.455 86.313,8.123 85.073,8.123L80.442,8.123L80.442,21.79L81.605,21.79L81.605,14.8L83.891,14.8L89.122,21.79L90.517,21.79L85.286,14.8C86.41,14.762 87.146,14.449 87.708,13.922ZM81.605,13.688L81.605,9.236L85.015,9.236C85.984,9.236 86.507,9.451 86.895,9.822C87.34,10.232 87.612,10.818 87.612,11.462C87.612,12.107 87.341,12.692 86.895,13.102C86.507,13.473 85.984,13.688 85.015,13.688L81.605,13.688Z" style="fill:rgb(24,33,76);fill-rule:nonzero;"></path> <path d="M99.778,7.928C95.942,7.928 93.035,10.974 93.035,14.957C93.035,18.94 95.941,21.986 99.778,21.986C103.614,21.986 106.521,18.94 106.521,14.957C106.521,10.974 103.614,7.928 99.778,7.928ZM99.778,20.873C96.504,20.873 94.198,18.198 94.198,14.957C94.198,11.716 96.503,9.041 99.778,9.041C103.052,9.041 105.358,11.716 105.358,14.957C105.358,18.198 103.053,20.873 99.778,20.873Z" style="fill:rgb(24,33,76);fill-rule:nonzero;"></path> <path d="M112.042,15.191L115.898,15.191C117.138,15.191 117.952,14.879 118.552,14.371C119.308,13.727 119.793,12.75 119.793,11.657C119.793,10.564 119.308,9.587 118.552,8.943C117.952,8.435 117.138,8.123 115.898,8.123L110.88,8.123L110.88,21.79L112.042,21.79L112.042,15.191ZM112.042,9.236L115.84,9.236C116.886,9.236 117.487,9.509 117.933,9.958C118.359,10.388 118.63,10.993 118.63,11.657C118.63,12.321 118.359,12.926 117.933,13.356C117.487,13.805 116.886,14.078 115.84,14.078L112.042,14.078L112.042,9.236Z" style="fill:rgb(24,33,76);fill-rule:nonzero;"></path> <path d="M125.217,14.801L130.06,14.801L130.06,13.688L125.217,13.688L125.217,9.236L131.417,9.236L131.417,8.123L124.054,8.123L124.054,21.791L131.611,21.791L131.611,20.678L125.217,20.678L125.217,14.801Z" style="fill:rgb(24,33,76);fill-rule:nonzero;"></path> <path d="M144.611,9.412C143.506,8.592 142.092,8.123 139.942,8.123L136.067,8.123L136.067,21.79L139.942,21.79C142.093,21.79 143.507,21.321 144.611,20.501C146.277,19.251 147.304,17.221 147.304,14.956C147.304,12.691 146.277,10.662 144.611,9.412ZM144.01,19.526C143.041,20.287 141.782,20.678 139.883,20.678L137.229,20.678L137.229,9.236L139.883,9.236C141.782,9.236 143.041,9.626 144.01,10.388C145.347,11.442 146.141,13.121 146.141,14.957C146.141,16.793 145.346,18.471 144.01,19.526Z" style="fill:rgb(24,33,76);fill-rule:nonzero;"></path> <rect x="151.663" y="8.123" width="1.163" height="13.667" style="fill:rgb(24,33,76);"></rect> <path d="M164.101,20.873C160.73,20.873 158.347,18.276 158.347,14.957C158.347,11.677 160.73,9.041 163.985,9.041C165.67,9.041 167.162,9.763 168.112,10.818L168.906,10.018C167.724,8.71 165.922,7.929 163.985,7.929C160.071,7.929 157.184,11.014 157.184,14.958C157.184,19 160.109,21.987 164.159,21.987C166.252,21.987 168.228,20.972 169.39,19.469L168.557,18.727C167.608,19.975 165.961,20.873 164.101,20.873Z" style="fill:rgb(24,33,76);fill-rule:nonzero;"></path> <path d="M178.981,15.015C177.044,13.805 174.312,13.531 174.312,11.462C174.312,9.978 175.533,9.041 177.044,9.041C178.168,9.041 178.943,9.451 179.737,10.154L180.473,9.295C179.853,8.748 178.749,7.928 177.005,7.928C174.835,7.928 173.15,9.392 173.15,11.521C173.15,12.907 173.983,13.708 174.991,14.332C176.967,15.562 179.874,15.835 179.874,18.315C179.874,19.897 178.44,20.873 177.084,20.873C175.302,20.873 174.236,19.955 173.442,18.92L172.589,19.681C173.751,21.223 175.282,21.985 177.084,21.985C179.293,21.985 181.037,20.482 181.037,18.314C181.034,16.734 180.104,15.718 178.981,15.015Z" style="fill:rgb(24,33,76);fill-rule:nonzero;"></path> <path d="M183.323,7.577L183.952,7.577L183.952,9.548L184.224,9.548L184.224,7.577L184.852,7.577L184.852,7.321L183.323,7.321L183.323,7.577Z" style="fill:rgb(24,33,76);fill-rule:nonzero;"></path> <path d="M187.189,7.321L186.225,8.856L185.262,7.321L185.106,7.321L185.106,9.548L185.377,9.548L185.377,7.978L186.145,9.211L186.306,9.211L187.074,7.978L187.074,9.548L187.345,9.548L187.345,7.321L187.189,7.321Z" style="fill:rgb(24,33,76);fill-rule:nonzero;"></path> <path d="M111.48,25.199L110.809,25.199L110.809,29.932L113.561,29.932L113.561,29.29L111.48,29.29L111.48,25.199Z" style="fill:rgb(24,33,76);fill-rule:nonzero;"></path> <path d="M115.137,27.701L116.68,27.701L116.68,27.059L115.137,27.059L115.137,25.841L117.15,25.841L117.15,25.199L114.466,25.199L114.466,29.932L117.217,29.932L117.217,29.29L115.137,29.29L115.137,27.701Z" style="fill:rgb(24,33,76);fill-rule:nonzero;"></path> <path d="M119.766,25.199L117.82,29.932L118.518,29.932L119.008,28.715L120.987,28.715L121.483,29.932L122.181,29.932L120.235,25.199L119.766,25.199ZM119.276,28.073L120.001,26.315L120.725,28.073L119.276,28.073Z" style="fill:rgb(24,33,76);fill-rule:nonzero;"></path> <path d="M125.543,27.424C125.825,27.194 126.006,26.843 126.006,26.451C126.006,26.059 125.825,25.707 125.543,25.477C125.328,25.301 125.06,25.2 124.631,25.2L122.987,25.2L122.987,29.933L123.658,29.933L123.658,27.701L124.195,27.701L125.866,29.933L126.678,29.933L124.994,27.674C125.228,27.633 125.396,27.545 125.543,27.424ZM123.658,27.059L123.658,25.842L124.597,25.842C124.899,25.842 125.053,25.91 125.161,26.018C125.268,26.126 125.335,26.282 125.335,26.451C125.335,26.62 125.268,26.776 125.161,26.884C125.054,26.992 124.899,27.06 124.597,27.06L123.658,27.06L123.658,27.059Z" style="fill:rgb(24,33,76);fill-rule:nonzero;"></path> <path d="M130.736,28.675L127.918,25.199L127.448,25.199L127.448,29.932L128.12,29.932L128.12,26.457L130.938,29.932L131.407,29.932L131.407,25.199L130.736,25.199L130.736,28.675Z" style="fill:rgb(24,33,76);fill-rule:nonzero;"></path> <path d="M133.386,29.053C133.125,29.053 132.916,29.263 132.916,29.527C132.916,29.79 133.124,30 133.386,30C133.648,30 133.856,29.79 133.856,29.527C133.856,29.263 133.648,29.053 133.386,29.053Z" style="fill:rgb(24,33,76);fill-rule:nonzero;"></path> <path d="M139.157,28.086L137.345,25.199L136.875,25.199L136.875,29.932L137.546,29.932L137.546,26.747L138.922,28.918L139.391,28.918L140.767,26.747L140.767,29.932L141.438,29.932L141.438,25.199L140.968,25.199L139.157,28.086Z" style="fill:rgb(24,33,76);fill-rule:nonzero;"></path> <path d="M144.792,25.131C143.463,25.131 142.444,26.186 142.444,27.565C142.444,28.945 143.464,29.999 144.792,29.999C146.12,29.999 147.14,28.944 147.14,27.565C147.141,26.186 146.121,25.131 144.792,25.131ZM144.792,29.358C143.832,29.358 143.115,28.594 143.115,27.566C143.115,26.545 143.833,25.774 144.792,25.774C145.751,25.774 146.469,26.545 146.469,27.566C146.47,28.594 145.752,29.358 144.792,29.358Z" style="fill:rgb(24,33,76);fill-rule:nonzero;"></path> <path d="M149.59,28.769L148.207,25.199L147.51,25.199L149.355,29.932L149.825,29.932L151.67,25.199L150.972,25.199L149.59,28.769Z" style="fill:rgb(24,33,76);fill-rule:nonzero;"></path> <path d="M153.179,27.701L154.722,27.701L154.722,27.059L153.179,27.059L153.179,25.841L155.192,25.841L155.192,25.199L152.508,25.199L152.508,29.932L155.259,29.932L155.259,29.29L153.179,29.29L153.179,27.701Z" style="fill:rgb(24,33,76);fill-rule:nonzero;"></path> <path d="M156.903,29.053C156.642,29.053 156.433,29.263 156.433,29.527C156.433,29.79 156.641,30 156.903,30C157.165,30 157.373,29.79 157.373,29.527C157.372,29.263 157.164,29.053 156.903,29.053Z" style="fill:rgb(24,33,76);fill-rule:nonzero;"></path> <path d="M162.27,27.701L163.612,27.701L163.612,28.918C163.364,29.168 162.954,29.358 162.458,29.358C161.458,29.358 160.693,28.634 160.693,27.566C160.693,26.545 161.437,25.774 162.397,25.774C162.9,25.774 163.39,26.004 163.665,26.308L164.115,25.862C163.706,25.409 163.068,25.132 162.397,25.132C161.041,25.132 160.022,26.2 160.022,27.566C160.022,28.965 161.055,30 162.458,30C163.183,30 163.88,29.635 164.283,29.121L164.283,27.059L162.27,27.059L162.27,27.701Z" style="fill:rgb(24,33,76);fill-rule:nonzero;"></path> <path d="M168.047,27.424C168.329,27.194 168.51,26.843 168.51,26.451C168.51,26.059 168.329,25.707 168.047,25.477C167.832,25.301 167.564,25.2 167.135,25.2L165.491,25.2L165.491,29.933L166.162,29.933L166.162,27.701L166.699,27.701L168.37,29.933L169.182,29.933L167.498,27.674C167.732,27.633 167.9,27.545 168.047,27.424ZM166.162,27.059L166.162,25.842L167.101,25.842C167.403,25.842 167.557,25.91 167.665,26.018C167.772,26.126 167.839,26.282 167.839,26.451C167.839,26.62 167.772,26.776 167.665,26.884C167.558,26.992 167.403,27.06 167.101,27.06L166.162,27.06L166.162,27.059Z" style="fill:rgb(24,33,76);fill-rule:nonzero;"></path> <path d="M171.764,25.131C170.435,25.131 169.416,26.186 169.416,27.565C169.416,28.945 170.436,29.999 171.764,29.999C173.092,29.999 174.112,28.944 174.112,27.565C174.113,26.186 173.093,25.131 171.764,25.131ZM171.764,29.358C170.804,29.358 170.087,28.594 170.087,27.566C170.087,26.545 170.805,25.774 171.764,25.774C172.724,25.774 173.441,26.545 173.441,27.566C173.441,28.594 172.724,29.358 171.764,29.358Z" style="fill:rgb(24,33,76);fill-rule:nonzero;"></path> <path d="M179.051,28.627L177.903,25.199L177.433,25.199L176.286,28.627L175.232,25.199L174.549,25.199L176.024,29.932L176.494,29.932L177.668,26.43L178.843,29.932L179.313,29.932L180.788,25.199L180.104,25.199L179.051,28.627Z" style="fill:rgb(24,33,76);fill-rule:nonzero;"></path> </svg> 