<?xml version="1.0" encoding="UTF-8" standalone="no"?> <svg xmlns="http://www.w3.org/2000/svg" xmlns:xlink="http://www.w3.org/1999/xlink" xmlns:serif="http://www.serif.com/" width="100%" height="100%" viewBox="0 0 31 26" version="1.1" xml:space="preserve" style="fill-rule:evenodd;clip-rule:evenodd;stroke-linejoin:round;stroke-miterlimit:1.41421;"> <path id="shortlist." d="M0,22.5C0,22.091 0.148,21.665 0.445,21.222C0.742,20.779 1.083,20.557 1.471,20.557C1.722,20.557 2.035,20.682 2.411,20.932C2.787,21.182 3.283,21.438 3.898,21.699C4.513,21.96 5.243,22.091 6.086,22.091C7.75,22.091 8.582,21.602 8.582,20.625C8.582,20.08 8.303,19.648 7.744,19.33C7.186,19.012 6.513,18.75 5.727,18.546C4.941,18.342 4.148,18.097 3.351,17.813C2.554,17.529 1.875,17.052 1.316,16.381C0.758,15.711 0.478,14.853 0.478,13.807C0.478,12.421 0.968,11.227 1.948,10.227C2.928,9.227 4.478,8.727 6.598,8.727C8.011,8.727 9.271,8.943 10.376,9.375C11.482,9.807 12.034,10.33 12.034,10.943C12.034,11.329 11.88,11.778 11.572,12.29C11.264,12.801 10.882,13.057 10.427,13.057C10.245,13.057 9.749,12.892 8.94,12.563C8.131,12.233 7.373,12.069 6.666,12.069C5.891,12.069 5.298,12.228 4.888,12.546C4.478,12.864 4.273,13.216 4.273,13.603C4.273,13.989 4.478,14.308 4.888,14.558C5.298,14.808 5.806,15.001 6.41,15.138C7.014,15.274 7.669,15.462 8.376,15.701C9.083,15.94 9.738,16.218 10.342,16.536C10.946,16.854 11.453,17.348 11.864,18.019C12.274,18.689 12.479,19.502 12.479,20.457C12.479,22.002 11.926,23.218 10.821,24.105C9.716,24.992 8.171,25.435 6.188,25.435C4.478,25.435 3.019,25.14 1.811,24.549C0.604,23.955 0,23.273 0,22.5ZM15.143,24.239L15.143,1.364C15.143,0.955 15.342,0.625 15.741,0.375C16.14,0.125 16.67,0 17.331,0C17.946,0 18.471,0.125 18.904,0.375C19.337,0.625 19.554,0.955 19.554,1.364L19.554,24.239C19.554,24.58 19.332,24.898 18.887,25.194C18.442,25.489 17.924,25.637 17.331,25.637C16.716,25.637 16.197,25.495 15.775,25.211C15.354,24.926 15.143,24.602 15.143,24.239Z" style="fill:white;fill-rule:nonzero;"></path> <path id="Path" d="M21.924,21.316C21.924,20.185 22.319,19.215 23.109,18.407C23.899,17.599 24.882,17.195 26.057,17.195C27.151,17.195 28.104,17.599 28.914,18.407C29.725,19.215 30.13,20.185 30.13,21.316C30.13,22.407 29.725,23.366 28.914,24.195C28.103,25.023 27.151,25.437 26.057,25.437C24.882,25.437 23.899,25.033 23.109,24.225C22.319,23.417 21.924,22.448 21.924,21.316Z" style="fill:rgb(49,211,174);fill-rule:nonzero;"></path> </svg> 