<?xml version="1.0" encoding="UTF-8" standalone="no"?> <svg xmlns="http://www.w3.org/2000/svg" xmlns:xlink="http://www.w3.org/1999/xlink" xmlns:serif="http://www.serif.com/" width="100%" height="100%" viewBox="0 0 159 42" version="1.1" xml:space="preserve" style="fill-rule:evenodd;clip-rule:evenodd;stroke-linejoin:round;stroke-miterlimit:1.41421;"> <path d="M85.598,34.321C85.271,34.321 85.006,34.586 85.006,34.913C85.006,35.24 85.271,35.505 85.598,35.505C85.925,35.505 86.19,35.24 86.19,34.913C86.189,34.586 85.925,34.321 85.598,34.321ZM78.966,33.675L80.145,33.675L80.145,36.748L80.942,36.748L80.942,33.675L82.13,33.675L82.13,33.042L78.944,33.042L78.944,33.675L78.966,33.675ZM101.174,36.747L101.966,36.747L101.966,33.033L101.174,33.033L101.174,36.747ZM97.706,33.315C97.463,33.491 97.299,33.756 97.251,34.052C97.202,34.379 97.182,34.709 97.192,35.04L97.192,36.742L97.961,36.742L97.961,35.208L100.169,35.208L100.169,34.59L97.961,34.59C97.945,34.347 98.023,34.108 98.179,33.921C98.381,33.732 98.654,33.637 98.93,33.662L100.168,33.662L100.168,33.034L98.994,33.034C98.546,33.001 98.099,33.099 97.706,33.315ZM89.571,33.429C89.222,33.858 89.059,34.408 89.116,34.958C89.08,35.46 89.253,35.954 89.594,36.324C89.936,36.619 90.381,36.768 90.832,36.738L92.134,36.738L92.134,36.11L90.878,36.11C90.651,36.128 90.425,36.06 90.245,35.919C90.061,35.718 89.972,35.448 89.999,35.177L92.147,35.177L92.147,34.544L90.012,34.544C89.991,34.297 90.071,34.052 90.235,33.866C90.409,33.71 90.639,33.632 90.872,33.648L92.142,33.648L92.142,33.02L90.877,33.02C90.41,32.979 89.946,33.127 89.589,33.43L89.571,33.43L89.571,33.429ZM93.764,33.315C93.521,33.491 93.357,33.756 93.309,34.052C93.26,34.379 93.24,34.709 93.25,35.04L93.25,36.742L94.019,36.742L94.019,35.208L96.227,35.208L96.227,34.59L94.019,34.59C94.003,34.347 94.081,34.108 94.237,33.921C94.439,33.732 94.712,33.637 94.988,33.662L96.226,33.662L96.226,33.034L95.052,33.034C94.612,33.007 94.173,33.105 93.787,33.316L93.764,33.316L93.764,33.315ZM77.377,35.709L75.857,33.028L74.883,33.028L74.883,36.742L75.634,36.742L75.634,33.92L77.232,36.742L78.133,36.742L78.133,33.028L77.405,33.028L77.405,35.709L77.377,35.709ZM71.173,33.433C70.824,33.862 70.66,34.412 70.718,34.962C70.682,35.464 70.855,35.958 71.196,36.328C71.538,36.623 71.983,36.772 72.434,36.742L73.736,36.742L73.736,36.114L72.466,36.114C72.239,36.132 72.013,36.064 71.833,35.923C71.65,35.722 71.56,35.452 71.587,35.181L73.735,35.181L73.735,34.548L71.605,34.548C71.584,34.301 71.664,34.056 71.828,33.87C72.002,33.714 72.232,33.636 72.465,33.652L73.735,33.652L73.735,33.024L72.456,33.024C71.997,32.988 71.543,33.134 71.191,33.429L71.173,33.433ZM60.617,33.433C60.268,33.862 60.104,34.412 60.162,34.962C60.126,35.464 60.299,35.958 60.64,36.328C60.983,36.623 61.427,36.772 61.878,36.742L63.18,36.742L63.18,36.114L61.91,36.114C61.683,36.132 61.457,36.064 61.277,35.923C61.094,35.722 61.004,35.452 61.031,35.181L63.179,35.181L63.179,34.548L61.049,34.548C61.028,34.301 61.108,34.056 61.272,33.87C61.446,33.714 61.676,33.636 61.909,33.652L63.179,33.652L63.179,33.024L61.9,33.024C61.441,32.988 60.987,33.134 60.635,33.429L60.617,33.433ZM49.105,33.433C48.756,33.862 48.592,34.412 48.65,34.962C48.614,35.464 48.787,35.958 49.128,36.328C49.47,36.623 49.915,36.772 50.366,36.742L51.668,36.742L51.668,36.114L50.398,36.114C50.171,36.132 49.945,36.064 49.765,35.923C49.582,35.722 49.492,35.452 49.519,35.181L51.667,35.181L51.667,34.548L49.546,34.548C49.525,34.301 49.605,34.056 49.769,33.87C49.943,33.714 50.173,33.635 50.406,33.652L51.676,33.652L51.676,33.024L50.397,33.024C49.935,32.986 49.477,33.131 49.122,33.429L49.105,33.433ZM56.739,33.588C56.474,33.992 56.348,34.471 56.379,34.954C56.343,35.456 56.516,35.95 56.857,36.32C57.2,36.615 57.644,36.764 58.095,36.734L59.392,36.734L59.392,36.106L58.104,36.106C57.792,36.141 57.487,35.996 57.317,35.733C57.216,35.522 57.17,35.288 57.185,35.055C57.185,35.009 57.185,34.946 57.185,34.873C57.168,34.579 57.224,34.285 57.349,34.017C57.505,33.756 57.797,33.607 58.1,33.635L59.37,33.635L59.37,33.016L58.105,33.016C57.583,32.974 57.075,33.188 56.739,33.588ZM65.146,35.864C65.05,35.684 65.007,35.48 65.023,35.277L65.023,33.024L64.272,33.024L64.272,35.241C64.237,35.64 64.345,36.039 64.577,36.365C64.876,36.647 65.283,36.785 65.692,36.743L66.753,36.743L66.753,36.147L65.843,36.147C65.573,36.177 65.305,36.071 65.128,35.865L65.146,35.865L65.146,35.864ZM68.46,35.864C68.364,35.684 68.321,35.48 68.337,35.277L68.337,33.024L67.586,33.024L67.586,35.241C67.55,35.64 67.658,36.039 67.891,36.365C68.19,36.647 68.597,36.785 69.006,36.743L70.112,36.743L70.112,36.147L69.202,36.147C68.917,36.193 68.628,36.086 68.442,35.865L68.46,35.865L68.46,35.864ZM55.715,33.028L54.836,33.028L54.08,34.211L53.32,33.028L52.41,33.028L53.648,34.885L52.369,36.742L53.279,36.742L54.103,35.449L54.886,36.742L55.796,36.742L54.535,34.835L55.715,33.028ZM131.503,33.588C131.238,33.992 131.112,34.471 131.143,34.954C131.107,35.456 131.28,35.95 131.621,36.32C131.963,36.615 132.408,36.764 132.859,36.734L134.156,36.734L134.156,36.106L132.886,36.106C132.574,36.141 132.269,35.996 132.099,35.733C131.998,35.522 131.952,35.288 131.967,35.055C131.967,35.009 131.967,34.946 131.967,34.873C131.95,34.579 132.006,34.285 132.131,34.017C132.287,33.756 132.579,33.607 132.882,33.635L134.152,33.635L134.152,33.016L132.873,33.016C132.351,32.973 131.84,33.187 131.503,33.588ZM146.879,33.256C146.511,33.032 146.084,32.926 145.655,32.951C145.369,32.944 145.085,32.985 144.813,33.074C144.523,33.169 144.274,33.36 144.107,33.616C143.896,34 143.797,34.435 143.82,34.872C143.794,35.338 143.917,35.8 144.17,36.192C144.357,36.449 144.625,36.637 144.93,36.725C145.167,36.792 145.412,36.825 145.658,36.821C146.117,36.847 146.57,36.704 146.933,36.42C147.341,36.017 147.548,35.453 147.497,34.881C147.507,34.574 147.472,34.267 147.392,33.971C147.301,33.681 147.115,33.429 146.864,33.256L146.879,33.256ZM146.465,35.846C146.276,36.097 145.972,36.233 145.659,36.206C145.305,36.237 144.966,36.059 144.79,35.751C144.67,35.463 144.619,35.152 144.64,34.841C144.616,34.494 144.712,34.15 144.913,33.867C145.097,33.648 145.374,33.528 145.66,33.544C145.928,33.524 146.191,33.62 146.384,33.808C146.607,34.111 146.711,34.485 146.675,34.859C146.705,35.201 146.632,35.545 146.465,35.846ZM103.332,33.57C103.067,33.974 102.941,34.453 102.972,34.936C102.936,35.438 103.109,35.932 103.45,36.302C103.792,36.597 104.237,36.746 104.688,36.716L105.985,36.716L105.985,36.088L104.715,36.088C104.403,36.123 104.098,35.978 103.928,35.715C103.827,35.504 103.781,35.27 103.796,35.037C103.796,34.991 103.796,34.928 103.796,34.855C103.779,34.561 103.835,34.267 103.96,33.999C104.116,33.738 104.408,33.589 104.711,33.617L105.981,33.617L105.981,32.998L104.702,32.998C104.175,32.959 103.662,33.18 103.327,33.59L103.332,33.57ZM142.118,35.696L140.593,33.015L139.619,33.015L139.619,36.729L140.37,36.729L140.37,33.907L141.968,36.729L142.846,36.729L142.846,33.015L142.118,33.015L142.118,35.696ZM156.652,34.011C156.808,33.75 157.1,33.601 157.403,33.629L158.673,33.629L158.673,33.01L157.394,33.01C156.875,32.966 156.367,33.175 156.028,33.57C155.761,33.973 155.633,34.453 155.664,34.936C155.628,35.438 155.801,35.932 156.142,36.302C156.484,36.597 156.929,36.746 157.38,36.716L158.677,36.716L158.677,36.088L157.407,36.088C157.095,36.122 156.791,35.977 156.62,35.715C156.519,35.504 156.473,35.27 156.488,35.037C156.488,34.991 156.488,34.928 156.488,34.855C156.475,34.572 156.529,34.289 156.647,34.031L156.652,34.011ZM153.857,36.743L154.649,36.743L154.649,33.029L153.857,33.029L153.857,36.743ZM150.557,35.919L149.597,33.029L148.468,33.029L148.468,36.743L149.164,36.743L149.164,33.82L150.156,36.742L150.962,36.742L151.922,33.847L151.922,36.742L152.605,36.742L152.605,33.028L151.494,33.028L150.557,35.919ZM138.012,33.256C137.644,33.032 137.217,32.926 136.788,32.951C136.502,32.944 136.218,32.985 135.946,33.074C135.656,33.169 135.407,33.36 135.24,33.616C135.03,34 134.93,34.435 134.953,34.872C134.927,35.338 135.05,35.8 135.303,36.192C135.49,36.449 135.758,36.637 136.063,36.725C136.3,36.792 136.545,36.825 136.791,36.821C137.25,36.847 137.703,36.704 138.066,36.42C138.474,36.017 138.681,35.453 138.63,34.881C138.64,34.574 138.604,34.267 138.525,33.971C138.439,33.682 138.258,33.431 138.012,33.256ZM137.598,35.846C137.409,36.097 137.105,36.233 136.792,36.206C136.438,36.237 136.099,36.059 135.923,35.751C135.803,35.463 135.751,35.152 135.773,34.841C135.749,34.494 135.845,34.15 136.046,33.867C136.23,33.648 136.507,33.528 136.793,33.544C137.061,33.525 137.324,33.621 137.517,33.808C137.74,34.111 137.844,34.485 137.808,34.859C137.837,35.202 137.763,35.546 137.594,35.847L137.598,35.847L137.598,35.846ZM127.68,33.429C127.331,33.858 127.168,34.408 127.225,34.958C127.189,35.46 127.362,35.954 127.703,36.324C128.045,36.619 128.49,36.768 128.941,36.738L130.243,36.738L130.243,36.11L128.973,36.11C128.746,36.128 128.52,36.06 128.34,35.919C128.156,35.718 128.067,35.448 128.094,35.177L130.242,35.177L130.242,34.544L128.112,34.544C128.091,34.297 128.171,34.052 128.335,33.866C128.509,33.71 128.739,33.632 128.972,33.648L130.242,33.648L130.242,33.02L128.963,33.02C128.496,32.979 128.032,33.127 127.675,33.43L127.68,33.43L127.68,33.429ZM109.281,33.429C108.932,33.858 108.769,34.408 108.826,34.958C108.79,35.46 108.963,35.954 109.304,36.324C109.646,36.619 110.091,36.768 110.542,36.738L111.817,36.738L111.817,36.11L110.547,36.11C110.32,36.128 110.094,36.06 109.914,35.919C109.731,35.718 109.641,35.448 109.668,35.177L111.816,35.177L111.816,34.544L109.686,34.544C109.665,34.297 109.745,34.052 109.909,33.866C110.083,33.71 110.313,33.632 110.546,33.648L111.816,33.648L111.816,33.02L110.537,33.02C110.079,32.987 109.627,33.134 109.276,33.43L109.281,33.43L109.281,33.429ZM107.005,36.747L107.797,36.747L107.797,33.033L107.005,33.033L107.005,36.747ZM115.467,35.714L113.942,33.033L112.968,33.033L112.968,36.747L113.719,36.747L113.719,33.925L115.317,36.747L116.196,36.747L116.196,33.033L115.468,33.033L115.467,35.714ZM117.033,33.675L118.212,33.675L118.212,36.748L119.009,36.748L119.009,33.675L120.197,33.675L120.197,33.042L117.011,33.042L117.011,33.675L117.033,33.675ZM123.665,34.321C123.338,34.321 123.073,34.586 123.073,34.913C123.073,35.24 123.338,35.505 123.665,35.505C123.992,35.505 124.257,35.24 124.257,34.913C124.257,34.591 124,34.329 123.679,34.321L123.665,34.321Z" style="fill:rgb(23,32,75);fill-rule:nonzero;"></path> <path d="M79.753,9.609C78.622,9.968 77.603,10.616 76.799,11.489C76.018,12.38 75.461,13.444 75.174,14.593C74.511,17.422 74.511,20.367 75.174,23.196C75.461,24.345 76.018,25.41 76.799,26.3C77.605,27.171 78.623,27.819 79.753,28.18C81.208,28.635 82.727,28.849 84.25,28.813L99.981,28.813L99.981,24.84L84.246,24.84C83.428,24.855 82.611,24.765 81.815,24.571C81.235,24.431 80.693,24.162 80.231,23.784C79.828,23.437 79.515,22.996 79.321,22.5C79.102,21.94 78.964,21.351 78.911,20.752L99.617,20.752L99.617,17.038L78.911,17.038C78.964,16.436 79.102,15.844 79.321,15.281C79.517,14.784 79.829,14.341 80.231,13.988C80.694,13.609 81.235,13.336 81.815,13.191C82.61,12.994 83.427,12.902 84.246,12.918L99.982,12.918L99.982,8.976L84.246,8.976C82.724,8.941 81.206,9.155 79.753,9.609ZM64.277,16.742L71.073,12.154L71.073,8.967L49.224,8.967L49.224,12.709L64.118,12.709L52.515,20.511L64.204,20.511C64.863,20.49 65.518,20.613 66.125,20.871C66.933,21.213 67.449,22.015 67.427,22.892C67.435,23.272 67.334,23.647 67.136,23.971C66.89,24.334 66.537,24.611 66.125,24.763C65.51,24.986 64.858,25.089 64.204,25.068L49.242,25.068L49.242,28.81L63.772,28.81C64.958,28.827 66.142,28.694 67.295,28.414C68.161,28.204 68.977,27.827 69.698,27.303C70.287,26.86 70.757,26.276 71.064,25.605C71.371,24.926 71.527,24.188 71.519,23.443C71.542,20.261 70.067,16.611 64.291,16.743L64.277,16.742ZM128.353,18.535C129.088,17.564 129.464,16.369 129.418,15.153C129.528,12.721 128.035,10.504 125.74,9.691C124.396,9.182 122.966,8.937 121.53,8.972L104.315,8.972L104.315,28.809L108.462,28.809L108.462,22.29L121.453,22.29C122.004,22.278 122.553,22.358 123.078,22.527C123.451,22.651 123.791,22.86 124.07,23.137C124.293,23.369 124.462,23.647 124.566,23.952C124.66,24.229 124.706,24.52 124.703,24.812L124.703,28.813L128.995,28.813L128.995,24.898C129.025,23.916 128.72,22.953 128.13,22.167C127.414,21.306 126.451,20.685 125.372,20.387C126.539,20.099 127.586,19.453 128.367,18.539L128.353,18.535ZM125.017,16.632C124.771,17.402 124.193,18.022 123.442,18.321C122.932,18.522 122.388,18.619 121.84,18.608L108.462,18.608L108.462,12.631L121.863,12.631C122.41,12.617 122.955,12.712 123.465,12.909C123.858,13.068 124.209,13.315 124.489,13.633C124.736,13.913 124.923,14.239 125.04,14.593C125.148,14.922 125.202,15.266 125.199,15.613C125.195,15.96 125.134,16.305 125.017,16.632ZM158.182,13.073C157.865,12.27 157.373,11.547 156.744,10.956C156.035,10.303 155.193,9.811 154.277,9.513C153.133,9.137 151.935,8.955 150.731,8.976L133.552,8.976L133.552,28.813L137.699,28.813L137.699,22.318L150.749,22.318C151.953,22.335 153.151,22.152 154.295,21.776C155.213,21.472 156.054,20.974 156.762,20.315C157.393,19.718 157.884,18.989 158.2,18.18C158.509,17.361 158.663,16.492 158.655,15.617C158.664,14.75 158.512,13.888 158.204,13.077L158.182,13.073ZM154.153,16.655C154.029,17.015 153.836,17.348 153.584,17.634C153.297,17.956 152.941,18.208 152.542,18.371C152.03,18.574 151.482,18.674 150.931,18.662L137.699,18.662L137.699,12.631L150.963,12.631C151.508,12.621 152.05,12.72 152.556,12.922C152.956,13.088 153.314,13.341 153.603,13.664C154.087,14.214 154.354,14.921 154.354,15.653C154.352,15.996 154.292,16.336 154.176,16.659L154.153,16.655Z" style="fill:rgb(23,32,75);fill-rule:nonzero;"></path> <path d="M16.123,42L32.246,32.837L32.246,24.484L8.671,37.953L16.123,42ZM25.9,12.244L0,27.038L0,32.833L2.636,34.331L25.9,21.025L32.245,24.466L41.007,20.419L25.9,12.244Z" style="fill:rgb(23,32,75);fill-rule:nonzero;"></path> <path d="M25.9,21.043L32.241,24.484L41.003,20.438L25.9,12.24L25.9,21.043Z" style="fill:rgb(23,32,75);fill-rule:nonzero;"></path> <path d="M0,11.17L0,19.974L19.555,8.799L25.9,12.24L34.662,8.198L19.555,0L0,11.17Z" style="fill:rgb(23,32,75);fill-rule:nonzero;"></path> <path d="M19.555,8.799L25.9,12.24L34.662,8.198L19.555,0L19.555,8.799Z" style="fill:rgb(23,32,75);fill-rule:nonzero;"></path> </svg> 