<?xml version="1.0" encoding="UTF-8" standalone="no"?> <svg xmlns="http://www.w3.org/2000/svg" xmlns:xlink="http://www.w3.org/1999/xlink" xmlns:serif="http://www.serif.com/" width="100%" height="100%" viewBox="0 0 184 58" version="1.1" xml:space="preserve" style="fill-rule:evenodd;clip-rule:evenodd;stroke-linejoin:round;stroke-miterlimit:1.41421;"> <path d="M67.523,44.665C67.458,44.665 67.399,44.682 67.345,44.717C67.29,44.752 67.254,44.799 67.234,44.858L65.901,48.805L64.77,45.964C64.75,45.905 64.714,45.858 64.663,45.823C64.611,45.789 64.555,45.771 64.496,45.771C64.432,45.771 64.375,45.789 64.325,45.823C64.276,45.858 64.239,45.905 64.214,45.964L63.061,48.816L61.721,44.859C61.701,44.8 61.664,44.753 61.609,44.718C61.554,44.683 61.498,44.666 61.438,44.666C61.364,44.666 61.291,44.694 61.219,44.752C61.147,44.808 61.111,44.886 61.111,44.985C61.111,45.015 61.116,45.05 61.126,45.089L62.706,49.689C62.726,49.748 62.761,49.794 62.813,49.826C62.865,49.858 62.918,49.877 62.973,49.882C63.032,49.882 63.089,49.866 63.144,49.834C63.199,49.802 63.24,49.753 63.27,49.689L64.476,46.774L65.681,49.689C65.711,49.753 65.753,49.801 65.807,49.834C65.862,49.866 65.919,49.882 65.978,49.882C66.033,49.877 66.086,49.859 66.138,49.826C66.19,49.794 66.225,49.748 66.246,49.689L67.826,45.089C67.836,45.05 67.841,45.012 67.841,44.977C67.841,44.878 67.807,44.802 67.741,44.747C67.675,44.692 67.603,44.665 67.523,44.665Z" style="fill:rgb(23,32,75);fill-rule:nonzero;"></path> <path d="M72.42,44.687C72.336,44.687 72.263,44.715 72.201,44.773C72.14,44.829 72.108,44.902 72.108,44.992L72.108,46.951L69.304,46.951L69.304,44.992C69.304,44.903 69.274,44.83 69.214,44.773C69.155,44.716 69.083,44.687 68.999,44.687C68.91,44.687 68.836,44.715 68.776,44.773C68.716,44.829 68.687,44.902 68.687,44.992L68.687,49.577C68.687,49.661 68.714,49.733 68.768,49.793C68.823,49.852 68.897,49.882 68.991,49.882C69.075,49.882 69.148,49.852 69.21,49.793C69.272,49.733 69.303,49.662 69.303,49.577L69.303,47.529L72.107,47.529L72.107,49.577C72.107,49.661 72.137,49.733 72.196,49.793C72.255,49.852 72.327,49.882 72.411,49.882C72.5,49.882 72.574,49.852 72.634,49.793C72.694,49.733 72.723,49.662 72.723,49.577L72.723,44.992C72.723,44.903 72.695,44.83 72.638,44.773C72.582,44.715 72.509,44.687 72.42,44.687Z" style="fill:rgb(23,32,75);fill-rule:nonzero;"></path> <path d="M76.968,45.258C77.052,45.258 77.123,45.232 77.183,45.18C77.243,45.128 77.272,45.06 77.272,44.976C77.272,44.892 77.243,44.823 77.183,44.769C77.123,44.714 77.052,44.687 76.968,44.687L74.327,44.687C74.243,44.687 74.172,44.715 74.115,44.773C74.058,44.829 74.03,44.901 74.03,44.984L74.03,49.577C74.03,49.661 74.058,49.733 74.115,49.793C74.172,49.852 74.242,49.882 74.327,49.882L76.968,49.882C77.052,49.882 77.123,49.855 77.183,49.8C77.243,49.746 77.272,49.676 77.272,49.593C77.272,49.519 77.243,49.452 77.183,49.393C77.123,49.333 77.052,49.304 76.968,49.304L74.646,49.304L74.646,47.501L76.634,47.501C76.718,47.501 76.79,47.475 76.85,47.423C76.909,47.372 76.939,47.303 76.939,47.219C76.939,47.135 76.909,47.066 76.85,47.011C76.79,46.956 76.719,46.929 76.634,46.929L74.646,46.929L74.646,45.26L76.968,45.26L76.968,45.258Z" style="fill:rgb(23,32,75);fill-rule:nonzero;"></path> <path d="M82.014,49.224C81.984,49.162 81.962,49.077 81.947,48.968C81.932,48.859 81.92,48.713 81.91,48.53C81.905,48.322 81.861,48.14 81.776,47.985C81.692,47.829 81.583,47.7 81.45,47.599C81.382,47.548 81.31,47.505 81.234,47.469C81.381,47.402 81.517,47.318 81.635,47.205C81.773,47.074 81.882,46.918 81.962,46.738C82.041,46.557 82.081,46.363 82.081,46.156C82.081,45.869 82.016,45.616 81.884,45.395C81.753,45.175 81.576,45.002 81.353,44.876C81.13,44.75 80.88,44.687 80.604,44.687L78.556,44.687C78.472,44.687 78.401,44.715 78.344,44.773C78.287,44.829 78.259,44.901 78.259,44.984L78.259,49.577C78.259,49.661 78.292,49.733 78.359,49.793C78.426,49.852 78.506,49.882 78.6,49.882C78.684,49.882 78.751,49.852 78.8,49.793C78.849,49.733 78.874,49.662 78.874,49.577L78.874,47.774L80.439,47.774C80.548,47.774 80.655,47.787 80.758,47.811C80.862,47.836 80.956,47.88 81.04,47.944C81.124,48.009 81.191,48.092 81.24,48.196C81.289,48.3 81.314,48.431 81.314,48.589C81.314,48.871 81.339,49.094 81.388,49.257C81.437,49.421 81.499,49.546 81.573,49.632C81.647,49.719 81.724,49.784 81.803,49.829C81.842,49.854 81.89,49.869 81.944,49.873C81.999,49.878 82.053,49.872 82.108,49.855C82.163,49.838 82.204,49.807 82.234,49.762C82.283,49.693 82.297,49.621 82.275,49.547C82.253,49.473 82.207,49.413 82.138,49.369C82.086,49.334 82.044,49.286 82.014,49.224ZM81.008,47.091C80.882,47.18 80.747,47.229 80.604,47.239L78.875,47.239L78.875,45.258L80.566,45.258C80.818,45.258 81.027,45.345 81.193,45.517C81.358,45.691 81.442,45.908 81.442,46.17C81.442,46.373 81.401,46.555 81.32,46.715C81.238,46.877 81.134,47.002 81.008,47.091Z" style="fill:rgb(23,32,75);fill-rule:nonzero;"></path> <path d="M86.213,45.258C86.297,45.258 86.368,45.232 86.428,45.18C86.488,45.128 86.517,45.06 86.517,44.976C86.517,44.892 86.488,44.823 86.428,44.769C86.368,44.714 86.297,44.687 86.213,44.687L83.572,44.687C83.488,44.687 83.417,44.715 83.36,44.773C83.303,44.829 83.275,44.901 83.275,44.984L83.275,49.577C83.275,49.661 83.303,49.733 83.36,49.793C83.417,49.852 83.487,49.882 83.572,49.882L86.213,49.882C86.297,49.882 86.368,49.855 86.428,49.8C86.488,49.746 86.517,49.676 86.517,49.593C86.517,49.519 86.488,49.452 86.428,49.393C86.368,49.333 86.297,49.304 86.213,49.304L83.891,49.304L83.891,47.501L85.879,47.501C85.963,47.501 86.035,47.475 86.095,47.423C86.154,47.372 86.184,47.303 86.184,47.219C86.184,47.135 86.154,47.066 86.095,47.011C86.035,46.956 85.964,46.929 85.879,46.929L83.891,46.929L83.891,45.26L86.213,45.26L86.213,45.258Z" style="fill:rgb(23,32,75);fill-rule:nonzero;"></path> <path d="M92.341,47.454C92.193,47.34 92.016,47.245 91.811,47.169C91.606,47.092 91.382,47.024 91.139,46.965C90.916,46.905 90.713,46.837 90.531,46.761C90.348,46.684 90.202,46.585 90.093,46.464C89.985,46.343 89.93,46.188 89.93,46C89.93,45.832 89.978,45.687 90.075,45.566C90.171,45.444 90.306,45.35 90.48,45.284C90.653,45.217 90.853,45.184 91.08,45.184C91.234,45.184 91.387,45.206 91.54,45.251C91.694,45.295 91.834,45.355 91.963,45.429C92.091,45.503 92.198,45.588 92.282,45.681C92.326,45.72 92.376,45.74 92.43,45.74C92.509,45.74 92.58,45.709 92.641,45.647C92.703,45.586 92.734,45.517 92.734,45.443C92.734,45.354 92.684,45.263 92.586,45.169C92.422,44.996 92.206,44.859 91.937,44.761C91.667,44.662 91.381,44.613 91.08,44.613C90.739,44.613 90.437,44.671 90.175,44.787C89.913,44.903 89.708,45.068 89.559,45.28C89.411,45.493 89.336,45.74 89.336,46.022C89.336,46.245 89.374,46.439 89.451,46.604C89.528,46.77 89.636,46.911 89.774,47.027C89.913,47.144 90.077,47.241 90.267,47.321C90.458,47.4 90.666,47.467 90.894,47.521C91.151,47.581 91.377,47.653 91.573,47.74C91.768,47.826 91.921,47.934 92.033,48.063C92.144,48.191 92.202,48.355 92.207,48.553C92.207,48.716 92.155,48.859 92.051,48.983C91.947,49.107 91.808,49.203 91.632,49.273C91.456,49.342 91.26,49.376 91.042,49.376C90.76,49.376 90.507,49.327 90.282,49.228C90.057,49.129 89.848,48.986 89.655,48.798C89.6,48.743 89.539,48.716 89.47,48.716C89.386,48.716 89.315,48.747 89.258,48.809C89.201,48.871 89.173,48.942 89.173,49.021C89.173,49.07 89.184,49.116 89.206,49.158C89.228,49.201 89.257,49.239 89.292,49.273C89.549,49.51 89.816,49.683 90.093,49.792C90.37,49.9 90.692,49.955 91.058,49.955C91.39,49.95 91.688,49.887 91.952,49.766C92.216,49.645 92.426,49.477 92.579,49.265C92.732,49.053 92.809,48.81 92.809,48.538C92.809,48.281 92.768,48.065 92.686,47.889C92.605,47.713 92.49,47.569 92.341,47.454Z" style="fill:rgb(23,32,75);fill-rule:nonzero;"></path> <path d="M96.742,45.258C96.826,45.258 96.897,45.232 96.957,45.18C97.017,45.128 97.046,45.06 97.046,44.976C97.046,44.892 97.017,44.823 96.957,44.769C96.897,44.714 96.826,44.687 96.742,44.687L94.1,44.687C94.016,44.687 93.945,44.715 93.888,44.773C93.831,44.829 93.803,44.901 93.803,44.984L93.803,49.577C93.803,49.661 93.831,49.733 93.888,49.793C93.945,49.852 94.015,49.882 94.1,49.882L96.741,49.882C96.825,49.882 96.896,49.855 96.956,49.8C97.016,49.746 97.045,49.676 97.045,49.593C97.045,49.519 97.016,49.452 96.956,49.393C96.896,49.333 96.825,49.304 96.741,49.304L94.419,49.304L94.419,47.501L96.407,47.501C96.491,47.501 96.563,47.475 96.623,47.423C96.682,47.372 96.712,47.303 96.712,47.219C96.712,47.135 96.682,47.066 96.623,47.011C96.563,46.956 96.492,46.929 96.407,46.929L94.419,46.929L94.419,45.26L96.742,45.26L96.742,45.258Z" style="fill:rgb(23,32,75);fill-rule:nonzero;"></path> <path d="M100.897,49.295L98.649,49.295L98.649,44.984C98.649,44.9 98.619,44.829 98.56,44.773C98.501,44.716 98.429,44.687 98.345,44.687C98.256,44.687 98.182,44.715 98.122,44.773C98.062,44.829 98.033,44.901 98.033,44.984L98.033,49.577C98.033,49.661 98.061,49.733 98.118,49.793C98.175,49.852 98.246,49.882 98.33,49.882L100.897,49.882C100.981,49.882 101.052,49.855 101.112,49.8C101.172,49.746 101.201,49.676 101.201,49.593C101.201,49.509 101.172,49.438 101.112,49.381C101.052,49.323 100.981,49.295 100.897,49.295Z" style="fill:rgb(23,32,75);fill-rule:nonzero;"></path> <path d="M104.955,44.687L102.351,44.687C102.267,44.687 102.196,44.715 102.139,44.773C102.082,44.829 102.054,44.901 102.054,44.984L102.054,49.577C102.054,49.661 102.082,49.733 102.139,49.793C102.196,49.852 102.269,49.882 102.358,49.882C102.442,49.882 102.514,49.852 102.574,49.793C102.633,49.733 102.663,49.662 102.663,49.577L102.663,47.515L104.622,47.515C104.706,47.515 104.777,47.486 104.837,47.429C104.897,47.373 104.926,47.307 104.926,47.232C104.926,47.148 104.897,47.077 104.837,47.021C104.777,46.964 104.706,46.935 104.622,46.935L102.663,46.935L102.663,45.258L104.955,45.258C105.039,45.258 105.111,45.231 105.171,45.176C105.23,45.122 105.26,45.055 105.26,44.976C105.26,44.892 105.23,44.823 105.171,44.769C105.111,44.714 105.039,44.687 104.955,44.687Z" style="fill:rgb(23,32,75);fill-rule:nonzero;"></path> <path d="M107.797,47.202L106.298,47.202C106.214,47.202 106.144,47.229 106.087,47.284C106.03,47.339 106.001,47.408 106.001,47.492C106.001,47.581 106.029,47.654 106.087,47.711C106.144,47.768 106.215,47.796 106.298,47.796L107.797,47.796C107.881,47.796 107.952,47.769 108.008,47.715C108.065,47.66 108.094,47.591 108.094,47.507C108.094,47.423 108.066,47.351 108.008,47.292C107.951,47.232 107.88,47.202 107.797,47.202Z" style="fill:rgb(23,32,75);fill-rule:nonzero;"></path> <path d="M112.797,49.013C112.728,49.003 112.659,49.015 112.59,49.05C112.421,49.153 112.244,49.233 112.055,49.287C111.867,49.342 111.672,49.369 111.469,49.369C111.187,49.369 110.926,49.322 110.686,49.228C110.446,49.134 110.236,48.997 110.055,48.816C109.874,48.635 109.732,48.416 109.628,48.16C109.525,47.902 109.473,47.611 109.473,47.284C109.473,46.978 109.522,46.698 109.621,46.446C109.72,46.194 109.858,45.976 110.036,45.793C110.214,45.61 110.424,45.468 110.666,45.367C110.908,45.265 111.176,45.215 111.468,45.215C111.676,45.215 111.873,45.244 112.062,45.3C112.25,45.357 112.425,45.435 112.589,45.534C112.658,45.569 112.727,45.583 112.796,45.578C112.865,45.573 112.922,45.539 112.967,45.474C113.027,45.4 113.05,45.319 113.037,45.229C113.025,45.14 112.977,45.073 112.892,45.029C112.689,44.901 112.466,44.802 112.22,44.732C111.975,44.663 111.724,44.628 111.467,44.628C111.096,44.628 110.751,44.695 110.432,44.828C110.113,44.962 109.833,45.147 109.594,45.385C109.354,45.622 109.167,45.902 109.033,46.223C108.9,46.545 108.833,46.898 108.833,47.284C108.833,47.695 108.904,48.065 109.045,48.393C109.186,48.722 109.377,49.003 109.62,49.235C109.862,49.468 110.142,49.646 110.458,49.77C110.774,49.893 111.111,49.955 111.467,49.955C111.64,49.955 111.812,49.938 111.983,49.903C112.154,49.869 112.318,49.821 112.476,49.758C112.634,49.697 112.775,49.628 112.899,49.554C112.978,49.515 113.025,49.451 113.04,49.365C113.055,49.278 113.033,49.196 112.973,49.116C112.926,49.057 112.866,49.023 112.797,49.013Z" style="fill:rgb(23,32,75);fill-rule:nonzero;"></path> <path d="M115.966,44.857C115.946,44.798 115.91,44.751 115.858,44.716C115.806,44.681 115.748,44.664 115.684,44.664C115.62,44.659 115.562,44.673 115.51,44.705C115.458,44.737 115.42,44.788 115.395,44.857L113.473,49.531C113.458,49.571 113.453,49.608 113.458,49.643C113.458,49.712 113.48,49.772 113.525,49.821C113.57,49.87 113.639,49.895 113.733,49.895C113.788,49.895 113.84,49.878 113.889,49.844C113.938,49.809 113.973,49.762 113.992,49.703L114.489,48.494L116.838,48.494L117.338,49.696C117.363,49.76 117.4,49.81 117.45,49.844C117.499,49.878 117.553,49.895 117.613,49.895C117.687,49.895 117.754,49.869 117.813,49.818C117.873,49.766 117.902,49.696 117.902,49.606C117.902,49.567 117.895,49.527 117.88,49.487L115.966,44.857ZM114.726,47.915L115.656,45.652L116.597,47.915L114.726,47.915Z" style="fill:rgb(23,32,75);fill-rule:nonzero;"></path> <path d="M122.472,49.224C122.442,49.162 122.42,49.077 122.405,48.968C122.39,48.859 122.378,48.713 122.368,48.53C122.363,48.322 122.319,48.14 122.234,47.985C122.15,47.829 122.041,47.7 121.908,47.599C121.84,47.548 121.768,47.505 121.692,47.469C121.839,47.402 121.975,47.318 122.094,47.205C122.232,47.074 122.341,46.918 122.421,46.738C122.5,46.557 122.54,46.363 122.54,46.156C122.54,45.869 122.475,45.616 122.343,45.395C122.212,45.175 122.035,45.002 121.812,44.876C121.589,44.75 121.34,44.687 121.063,44.687L119.015,44.687C118.931,44.687 118.86,44.715 118.803,44.773C118.746,44.829 118.718,44.901 118.718,44.984L118.718,49.577C118.718,49.661 118.751,49.733 118.818,49.793C118.885,49.852 118.965,49.882 119.059,49.882C119.143,49.882 119.21,49.852 119.259,49.793C119.308,49.733 119.333,49.662 119.333,49.577L119.333,47.774L120.898,47.774C121.007,47.774 121.114,47.787 121.217,47.811C121.321,47.836 121.415,47.88 121.499,47.944C121.583,48.009 121.65,48.092 121.699,48.196C121.748,48.3 121.773,48.431 121.773,48.589C121.773,48.871 121.798,49.094 121.847,49.257C121.896,49.421 121.958,49.546 122.032,49.632C122.106,49.719 122.183,49.784 122.262,49.829C122.301,49.854 122.349,49.869 122.403,49.873C122.458,49.878 122.512,49.872 122.567,49.855C122.622,49.838 122.663,49.807 122.693,49.762C122.742,49.693 122.756,49.621 122.734,49.547C122.712,49.473 122.666,49.413 122.597,49.369C122.544,49.334 122.502,49.286 122.472,49.224ZM121.467,47.091C121.341,47.18 121.206,47.229 121.063,47.239L119.334,47.239L119.334,45.258L121.025,45.258C121.277,45.258 121.486,45.345 121.652,45.517C121.818,45.691 121.901,45.908 121.901,46.17C121.901,46.373 121.86,46.555 121.779,46.715C121.697,46.877 121.593,47.002 121.467,47.091Z" style="fill:rgb(23,32,75);fill-rule:nonzero;"></path> <path d="M126.672,45.258C126.756,45.258 126.827,45.232 126.887,45.18C126.947,45.128 126.976,45.06 126.976,44.976C126.976,44.892 126.947,44.823 126.887,44.769C126.827,44.714 126.756,44.687 126.672,44.687L124.031,44.687C123.947,44.687 123.876,44.715 123.819,44.773C123.762,44.829 123.734,44.901 123.734,44.984L123.734,49.577C123.734,49.661 123.762,49.733 123.819,49.793C123.876,49.852 123.947,49.882 124.031,49.882L126.672,49.882C126.756,49.882 126.827,49.855 126.887,49.8C126.947,49.746 126.976,49.676 126.976,49.593C126.976,49.519 126.947,49.452 126.887,49.393C126.827,49.333 126.756,49.304 126.672,49.304L124.35,49.304L124.35,47.501L126.338,47.501C126.422,47.501 126.494,47.475 126.554,47.423C126.613,47.372 126.643,47.303 126.643,47.219C126.643,47.135 126.613,47.066 126.554,47.011C126.494,46.956 126.423,46.929 126.338,46.929L124.35,46.929L124.35,45.26L126.672,45.26L126.672,45.258Z" style="fill:rgb(23,32,75);fill-rule:nonzero;"></path> <path d="M130.315,44.687C130.226,44.687 130.152,44.715 130.092,44.773C130.032,44.829 130.003,44.902 130.003,44.992L130.003,49.577C130.003,49.661 130.03,49.733 130.084,49.793C130.139,49.852 130.213,49.882 130.307,49.882C130.391,49.882 130.464,49.852 130.526,49.793C130.588,49.733 130.619,49.662 130.619,49.577L130.619,44.992C130.619,44.903 130.589,44.83 130.529,44.773C130.471,44.715 130.399,44.687 130.315,44.687Z" style="fill:rgb(23,32,75);fill-rule:nonzero;"></path> <path d="M134.722,47.454C134.574,47.34 134.397,47.245 134.192,47.169C133.987,47.092 133.763,47.024 133.52,46.965C133.297,46.905 133.094,46.837 132.912,46.761C132.729,46.684 132.583,46.585 132.474,46.464C132.366,46.343 132.311,46.188 132.311,46C132.311,45.832 132.359,45.687 132.456,45.566C132.552,45.444 132.687,45.35 132.861,45.284C133.034,45.217 133.235,45.184 133.462,45.184C133.615,45.184 133.769,45.206 133.922,45.251C134.075,45.295 134.216,45.355 134.345,45.429C134.473,45.503 134.58,45.588 134.664,45.681C134.708,45.72 134.758,45.74 134.812,45.74C134.891,45.74 134.962,45.709 135.023,45.647C135.085,45.586 135.116,45.517 135.116,45.443C135.116,45.354 135.066,45.263 134.968,45.169C134.804,44.996 134.588,44.859 134.319,44.761C134.049,44.662 133.763,44.613 133.462,44.613C133.121,44.613 132.819,44.671 132.557,44.787C132.295,44.903 132.09,45.068 131.941,45.28C131.793,45.493 131.718,45.74 131.718,46.022C131.718,46.245 131.756,46.439 131.833,46.604C131.91,46.77 132.017,46.911 132.156,47.027C132.295,47.144 132.459,47.241 132.649,47.321C132.84,47.4 133.048,47.467 133.276,47.521C133.533,47.581 133.759,47.653 133.955,47.74C134.15,47.826 134.303,47.934 134.415,48.063C134.526,48.191 134.584,48.355 134.589,48.553C134.589,48.716 134.537,48.859 134.433,48.983C134.329,49.107 134.19,49.203 134.014,49.273C133.838,49.342 133.642,49.376 133.424,49.376C133.142,49.376 132.889,49.327 132.664,49.228C132.439,49.129 132.23,48.986 132.037,48.798C131.982,48.743 131.921,48.716 131.852,48.716C131.768,48.716 131.697,48.747 131.64,48.809C131.583,48.871 131.555,48.942 131.555,49.021C131.555,49.07 131.566,49.116 131.588,49.158C131.61,49.201 131.639,49.239 131.674,49.273C131.931,49.51 132.198,49.683 132.475,49.792C132.752,49.9 133.074,49.955 133.44,49.955C133.772,49.95 134.07,49.887 134.334,49.766C134.598,49.645 134.808,49.477 134.961,49.265C135.114,49.053 135.191,48.81 135.191,48.538C135.191,48.281 135.15,48.065 135.068,47.889C134.986,47.713 134.87,47.569 134.722,47.454Z" style="fill:rgb(23,32,75);fill-rule:nonzero;"></path> <path d="M141.956,44.687C141.872,44.687 141.799,44.715 141.737,44.773C141.675,44.829 141.644,44.902 141.644,44.992L141.644,46.951L138.84,46.951L138.84,44.992C138.84,44.903 138.81,44.83 138.751,44.773C138.692,44.716 138.62,44.687 138.536,44.687C138.447,44.687 138.373,44.715 138.313,44.773C138.253,44.829 138.224,44.902 138.224,44.992L138.224,49.577C138.224,49.661 138.251,49.733 138.305,49.793C138.36,49.852 138.434,49.882 138.528,49.882C138.612,49.882 138.685,49.852 138.747,49.793C138.809,49.733 138.84,49.662 138.84,49.577L138.84,47.529L141.644,47.529L141.644,49.577C141.644,49.661 141.674,49.733 141.734,49.793C141.793,49.852 141.865,49.882 141.949,49.882C142.038,49.882 142.112,49.852 142.172,49.793C142.232,49.733 142.261,49.662 142.261,49.577L142.261,44.992C142.261,44.903 142.232,44.83 142.176,44.773C142.118,44.715 142.045,44.687 141.956,44.687Z" style="fill:rgb(23,32,75);fill-rule:nonzero;"></path> <path d="M146.505,45.258C146.589,45.258 146.66,45.232 146.72,45.18C146.78,45.128 146.809,45.06 146.809,44.976C146.809,44.892 146.78,44.823 146.72,44.769C146.66,44.714 146.589,44.687 146.505,44.687L143.864,44.687C143.78,44.687 143.709,44.715 143.652,44.773C143.595,44.829 143.567,44.901 143.567,44.984L143.567,49.577C143.567,49.661 143.595,49.733 143.652,49.793C143.709,49.852 143.78,49.882 143.864,49.882L146.505,49.882C146.589,49.882 146.66,49.855 146.72,49.8C146.78,49.746 146.809,49.676 146.809,49.593C146.809,49.519 146.78,49.452 146.72,49.393C146.66,49.333 146.589,49.304 146.505,49.304L144.183,49.304L144.183,47.501L146.171,47.501C146.255,47.501 146.327,47.475 146.387,47.423C146.446,47.372 146.476,47.303 146.476,47.219C146.476,47.135 146.446,47.066 146.387,47.011C146.327,46.956 146.256,46.929 146.171,46.929L144.183,46.929L144.183,45.26L146.505,45.26L146.505,45.258Z" style="fill:rgb(23,32,75);fill-rule:nonzero;"></path> <path d="M149.821,44.857C149.801,44.798 149.765,44.751 149.713,44.716C149.661,44.681 149.603,44.664 149.539,44.664C149.475,44.659 149.417,44.673 149.365,44.705C149.313,44.737 149.275,44.788 149.25,44.857L147.328,49.531C147.313,49.571 147.308,49.608 147.313,49.643C147.313,49.712 147.335,49.772 147.38,49.821C147.425,49.87 147.494,49.895 147.588,49.895C147.643,49.895 147.695,49.878 147.744,49.844C147.793,49.809 147.828,49.762 147.847,49.703L148.344,48.494L150.693,48.494L151.193,49.696C151.218,49.76 151.255,49.81 151.305,49.844C151.354,49.878 151.408,49.895 151.468,49.895C151.542,49.895 151.609,49.869 151.668,49.818C151.728,49.766 151.757,49.696 151.757,49.606C151.757,49.567 151.75,49.527 151.735,49.487L149.821,44.857ZM148.581,47.915L149.511,45.652L150.452,47.915L148.581,47.915Z" style="fill:rgb(23,32,75);fill-rule:nonzero;"></path> <path d="M155.438,49.295L153.19,49.295L153.19,44.984C153.19,44.9 153.16,44.829 153.101,44.773C153.042,44.716 152.97,44.687 152.886,44.687C152.797,44.687 152.723,44.715 152.663,44.773C152.603,44.829 152.574,44.901 152.574,44.984L152.574,49.577C152.574,49.661 152.602,49.733 152.659,49.793C152.716,49.852 152.786,49.882 152.871,49.882L155.438,49.882C155.522,49.882 155.593,49.855 155.653,49.8C155.713,49.746 155.742,49.676 155.742,49.593C155.742,49.509 155.713,49.438 155.653,49.381C155.593,49.323 155.521,49.295 155.438,49.295Z" style="fill:rgb(23,32,75);fill-rule:nonzero;"></path> <path d="M159.4,44.687L155.949,44.687C155.865,44.687 155.794,44.713 155.738,44.765C155.681,44.817 155.652,44.885 155.652,44.969C155.652,45.053 155.68,45.121 155.738,45.173C155.794,45.225 155.865,45.251 155.949,45.251L157.359,45.251L157.359,49.577C157.359,49.661 157.389,49.733 157.448,49.793C157.508,49.852 157.582,49.882 157.671,49.882C157.765,49.882 157.842,49.852 157.901,49.793C157.961,49.733 157.99,49.662 157.99,49.577L157.99,45.251L159.4,45.251C159.484,45.251 159.555,45.226 159.615,45.177C159.674,45.128 159.704,45.058 159.704,44.97C159.704,44.886 159.674,44.818 159.615,44.766C159.555,44.713 159.483,44.687 159.4,44.687Z" style="fill:rgb(23,32,75);fill-rule:nonzero;"></path> <path d="M164.327,44.687C164.243,44.687 164.17,44.715 164.108,44.773C164.046,44.829 164.015,44.902 164.015,44.992L164.015,46.951L161.211,46.951L161.211,44.992C161.211,44.903 161.181,44.83 161.122,44.773C161.063,44.716 160.991,44.687 160.907,44.687C160.818,44.687 160.744,44.715 160.684,44.773C160.624,44.829 160.595,44.902 160.595,44.992L160.595,49.577C160.595,49.661 160.622,49.733 160.676,49.793C160.731,49.852 160.805,49.882 160.899,49.882C160.983,49.882 161.056,49.852 161.118,49.793C161.18,49.733 161.211,49.662 161.211,49.577L161.211,47.529L164.015,47.529L164.015,49.577C164.015,49.661 164.045,49.733 164.104,49.793C164.163,49.852 164.235,49.882 164.319,49.882C164.408,49.882 164.482,49.852 164.542,49.793C164.602,49.733 164.631,49.662 164.631,49.577L164.631,44.992C164.631,44.903 164.603,44.83 164.546,44.773C164.488,44.715 164.415,44.687 164.327,44.687Z" style="fill:rgb(23,32,75);fill-rule:nonzero;"></path> <path d="M169.579,49.013C169.51,49.003 169.441,49.015 169.372,49.05C169.203,49.153 169.026,49.233 168.837,49.287C168.649,49.342 168.454,49.369 168.251,49.369C167.969,49.369 167.708,49.322 167.468,49.228C167.228,49.134 167.018,48.997 166.837,48.816C166.656,48.635 166.514,48.416 166.41,48.16C166.307,47.902 166.255,47.611 166.255,47.284C166.255,46.978 166.304,46.698 166.403,46.446C166.502,46.194 166.64,45.976 166.818,45.793C166.996,45.61 167.206,45.468 167.448,45.367C167.69,45.265 167.958,45.215 168.25,45.215C168.458,45.215 168.655,45.244 168.844,45.3C169.032,45.357 169.207,45.435 169.371,45.534C169.44,45.569 169.509,45.583 169.578,45.578C169.647,45.573 169.704,45.539 169.749,45.474C169.809,45.4 169.832,45.319 169.819,45.229C169.807,45.14 169.759,45.073 169.674,45.029C169.471,44.901 169.248,44.802 169.002,44.732C168.757,44.663 168.506,44.628 168.249,44.628C167.878,44.628 167.533,44.695 167.214,44.828C166.895,44.962 166.615,45.147 166.376,45.385C166.136,45.622 165.949,45.902 165.815,46.223C165.682,46.545 165.615,46.898 165.615,47.284C165.615,47.695 165.686,48.065 165.827,48.393C165.968,48.722 166.159,49.003 166.402,49.235C166.644,49.468 166.924,49.646 167.24,49.77C167.556,49.893 167.893,49.955 168.249,49.955C168.422,49.955 168.594,49.938 168.765,49.903C168.936,49.869 169.1,49.821 169.258,49.758C169.416,49.697 169.557,49.628 169.681,49.554C169.76,49.515 169.807,49.451 169.822,49.365C169.837,49.278 169.815,49.196 169.756,49.116C169.707,49.057 169.648,49.023 169.579,49.013Z" style="fill:rgb(23,32,75);fill-rule:nonzero;"></path> <path d="M172.748,44.857C172.728,44.798 172.692,44.751 172.64,44.716C172.588,44.681 172.53,44.664 172.466,44.664C172.402,44.659 172.344,44.673 172.292,44.705C172.24,44.737 172.202,44.788 172.177,44.857L170.255,49.531C170.24,49.571 170.235,49.608 170.24,49.643C170.24,49.712 170.262,49.772 170.307,49.821C170.352,49.87 170.421,49.895 170.515,49.895C170.57,49.895 170.622,49.878 170.671,49.844C170.72,49.809 170.755,49.762 170.774,49.703L171.271,48.494L173.62,48.494L174.12,49.696C174.145,49.76 174.182,49.81 174.232,49.844C174.281,49.878 174.335,49.895 174.395,49.895C174.469,49.895 174.536,49.869 174.595,49.818C174.655,49.766 174.684,49.696 174.684,49.606C174.684,49.567 174.677,49.527 174.662,49.487L172.748,44.857ZM171.508,47.915L172.438,45.652L173.379,47.915L171.508,47.915Z" style="fill:rgb(23,32,75);fill-rule:nonzero;"></path> <path d="M179.254,49.224C179.224,49.162 179.202,49.077 179.187,48.968C179.172,48.859 179.16,48.713 179.15,48.53C179.145,48.322 179.101,48.14 179.016,47.985C178.932,47.829 178.823,47.7 178.69,47.599C178.622,47.548 178.55,47.505 178.474,47.469C178.621,47.402 178.757,47.318 178.875,47.205C179.013,47.074 179.122,46.918 179.202,46.738C179.281,46.557 179.321,46.363 179.321,46.156C179.321,45.869 179.256,45.616 179.124,45.395C178.993,45.175 178.816,45.002 178.593,44.876C178.37,44.75 178.121,44.687 177.844,44.687L175.796,44.687C175.712,44.687 175.641,44.715 175.584,44.773C175.527,44.829 175.499,44.901 175.499,44.984L175.499,49.577C175.499,49.661 175.532,49.733 175.599,49.793C175.666,49.852 175.746,49.882 175.84,49.882C175.924,49.882 175.991,49.852 176.04,49.793C176.089,49.733 176.114,49.662 176.114,49.577L176.114,47.774L177.679,47.774C177.788,47.774 177.895,47.787 177.998,47.811C178.102,47.836 178.196,47.88 178.28,47.944C178.364,48.009 178.431,48.092 178.48,48.196C178.529,48.3 178.554,48.431 178.554,48.589C178.554,48.871 178.579,49.094 178.628,49.257C178.677,49.421 178.739,49.546 178.813,49.632C178.887,49.719 178.964,49.784 179.043,49.829C179.082,49.854 179.13,49.869 179.184,49.873C179.239,49.878 179.293,49.872 179.348,49.855C179.403,49.838 179.444,49.807 179.474,49.762C179.523,49.693 179.537,49.621 179.514,49.547C179.492,49.473 179.446,49.413 179.377,49.369C179.326,49.334 179.284,49.286 179.254,49.224ZM178.248,47.091C178.122,47.18 177.987,47.229 177.844,47.239L176.115,47.239L176.115,45.258L177.806,45.258C178.058,45.258 178.267,45.345 178.433,45.517C178.599,45.691 178.682,45.908 178.682,46.17C178.682,46.373 178.641,46.555 178.56,46.715C178.479,46.877 178.375,47.002 178.248,47.091Z" style="fill:rgb(23,32,75);fill-rule:nonzero;"></path> <path d="M183.454,49.302L181.132,49.302L181.132,47.499L183.12,47.499C183.204,47.499 183.276,47.473 183.336,47.421C183.395,47.37 183.425,47.301 183.425,47.217C183.425,47.133 183.395,47.064 183.336,47.009C183.276,46.954 183.205,46.927 183.12,46.927L181.132,46.927L181.132,45.258L183.454,45.258C183.538,45.258 183.609,45.232 183.669,45.18C183.729,45.128 183.758,45.06 183.758,44.976C183.758,44.892 183.729,44.823 183.669,44.769C183.609,44.714 183.538,44.687 183.454,44.687L180.813,44.687C180.729,44.687 180.658,44.715 180.601,44.773C180.544,44.829 180.516,44.901 180.516,44.984L180.516,49.577C180.516,49.661 180.544,49.733 180.601,49.793C180.658,49.852 180.729,49.882 180.813,49.882L183.454,49.882C183.538,49.882 183.609,49.855 183.669,49.8C183.729,49.746 183.758,49.676 183.758,49.593C183.758,49.519 183.729,49.452 183.669,49.393C183.609,49.332 183.537,49.302 183.454,49.302Z" style="fill:rgb(23,32,75);fill-rule:nonzero;"></path> <path d="M65.416,37.577C66.773,38.137 68.226,38.417 69.776,38.417C70.594,38.417 71.412,38.325 72.231,38.142C73.048,37.959 73.824,37.717 74.556,37.416C75.288,37.115 75.923,36.791 76.462,36.447C76.699,36.297 76.844,36.087 76.898,35.817C76.952,35.548 76.882,35.295 76.688,35.058C76.537,34.843 76.338,34.719 76.091,34.686C75.844,34.654 75.612,34.702 75.397,34.832C74.579,35.348 73.702,35.758 72.765,36.059C71.828,36.361 70.832,36.511 69.777,36.511C68.485,36.511 67.28,36.285 66.16,35.832C65.04,35.38 64.055,34.724 63.205,33.862C62.354,33.001 61.692,31.973 61.219,30.777C60.745,29.582 60.509,28.253 60.509,26.789C60.509,25.368 60.74,24.066 61.203,22.881C61.665,21.697 62.317,20.669 63.157,19.797C63.997,18.925 64.982,18.258 66.112,17.794C67.243,17.332 68.464,17.1 69.778,17.1C70.855,17.1 71.861,17.251 72.798,17.552C73.735,17.854 74.612,18.274 75.43,18.812C75.645,18.92 75.871,18.963 76.109,18.941C76.346,18.92 76.539,18.812 76.69,18.618C76.863,18.359 76.927,18.096 76.884,17.827C76.84,17.558 76.69,17.337 76.432,17.165C75.506,16.541 74.472,16.056 73.332,15.712C72.191,15.368 71.007,15.195 69.779,15.195C68.208,15.195 66.732,15.485 65.354,16.067C63.976,16.648 62.77,17.456 61.737,18.489C60.703,19.523 59.896,20.745 59.315,22.155C58.734,23.565 58.443,25.11 58.443,26.789C58.443,28.533 58.739,30.115 59.332,31.536C59.924,32.957 60.747,34.179 61.803,35.202C62.854,36.226 64.06,37.018 65.416,37.577Z" style="fill:rgb(23,32,75);fill-rule:nonzero;"></path> <path d="M107.013,37.093L107.013,16.489C107.013,16.209 106.922,15.972 106.739,15.778C106.556,15.585 106.313,15.488 106.012,15.488C105.732,15.488 105.489,15.585 105.285,15.778C105.08,15.972 104.978,16.209 104.978,16.489L104.978,25.596L91.866,25.596L91.866,16.489C91.866,16.209 91.764,15.972 91.56,15.778C91.355,15.585 91.124,15.488 90.866,15.488C90.564,15.488 90.317,15.585 90.123,15.778C89.93,15.972 89.833,16.209 89.833,16.489L89.833,37.093C89.833,37.373 89.924,37.61 90.108,37.804C90.291,37.997 90.533,38.094 90.835,38.094C91.093,38.094 91.325,37.997 91.529,37.804C91.733,37.61 91.846,37.373 91.868,37.093L91.868,27.469L104.98,27.469L104.98,37.093C104.98,37.373 105.077,37.61 105.27,37.804C105.464,37.997 105.701,38.094 105.981,38.094C106.282,38.094 106.525,37.997 106.708,37.804C106.889,37.61 106.991,37.373 107.013,37.093Z" style="fill:rgb(23,32,75);fill-rule:nonzero;"></path> <path d="M126.163,34.864C126.163,34.649 126.082,34.456 125.921,34.283C125.76,34.11 125.56,34.024 125.324,34.024C125.108,34.024 124.883,34.121 124.645,34.315C124.344,34.702 123.961,35.073 123.498,35.429C123.035,35.784 122.502,36.07 121.9,36.285C121.297,36.501 120.629,36.608 119.897,36.608C118.519,36.608 117.346,36.307 116.377,35.704C115.409,35.101 114.665,34.283 114.149,33.249C113.637,32.225 113.38,31.083 113.375,29.826L125.581,29.826C125.84,29.826 126.066,29.735 126.26,29.551C126.453,29.368 126.55,29.148 126.55,28.889C126.528,27.641 126.302,26.543 125.872,25.595C125.441,24.648 124.881,23.846 124.192,23.189C123.503,22.533 122.712,22.037 121.818,21.703C120.924,21.369 120.004,21.203 119.057,21.203C117.765,21.203 116.543,21.553 115.391,22.253C114.239,22.953 113.303,23.949 112.582,25.241C111.86,26.533 111.5,28.094 111.5,29.924C111.5,31.625 111.855,33.111 112.565,34.381C113.276,35.651 114.266,36.641 115.536,37.352C116.806,38.062 118.27,38.417 119.928,38.417C121.155,38.417 122.286,38.132 123.319,37.561C124.353,36.991 125.192,36.317 125.838,35.543C126.055,35.349 126.163,35.123 126.163,34.864ZM113.891,26.775C114.235,25.925 114.682,25.224 115.232,24.675C115.781,24.126 116.394,23.723 117.072,23.464C117.751,23.205 118.413,23.077 119.058,23.077C119.919,23.077 120.742,23.26 121.529,23.626C122.315,23.993 122.988,24.53 123.547,25.241C124.106,25.951 124.44,26.812 124.548,27.825L124.548,28.083L113.522,28.083C113.608,27.613 113.729,27.175 113.891,26.775Z" style="fill:rgb(23,32,75);fill-rule:nonzero;"></path> <path d="M144.766,37.804C144.959,37.61 145.056,37.384 145.056,37.125L145.056,22.593C145.056,22.313 144.964,22.076 144.781,21.882C144.598,21.689 144.366,21.592 144.087,21.592C143.785,21.592 143.549,21.689 143.377,21.882C143.204,22.076 143.118,22.313 143.118,22.593L143.118,24.633C142.791,24.035 142.375,23.492 141.859,23.012C141.256,22.452 140.551,22.011 139.744,21.688C138.937,21.365 138.07,21.203 137.144,21.203C135.723,21.203 134.442,21.57 133.301,22.301C132.159,23.033 131.255,24.04 130.588,25.321C129.921,26.602 129.587,28.082 129.587,29.761C129.587,31.398 129.915,32.873 130.572,34.186C131.228,35.499 132.133,36.533 133.285,37.286C134.436,38.04 135.734,38.416 137.176,38.416C138.101,38.416 138.957,38.249 139.744,37.916C140.53,37.582 141.213,37.146 141.795,36.608C142.35,36.094 142.789,35.54 143.119,34.946L143.119,37.125C143.119,37.384 143.205,37.61 143.378,37.804C143.55,37.997 143.786,38.094 144.088,38.094C144.346,38.094 144.572,37.997 144.766,37.804ZM142.488,33.266C141.982,34.31 141.288,35.128 140.405,35.72C139.522,36.312 138.51,36.608 137.369,36.608C136.227,36.608 135.21,36.312 134.317,35.72C133.424,35.128 132.729,34.31 132.234,33.266C131.738,32.221 131.491,31.053 131.491,29.762C131.491,28.449 131.744,27.286 132.25,26.274C132.755,25.262 133.456,24.465 134.349,23.884C135.243,23.303 136.249,23.012 137.369,23.012C138.51,23.012 139.521,23.314 140.405,23.916C141.287,24.519 141.981,25.326 142.488,26.338C142.994,27.35 143.247,28.491 143.247,29.761C143.248,31.054 142.995,32.222 142.488,33.266Z" style="fill:rgb(23,32,75);fill-rule:nonzero;"></path> <path d="M151.288,14.196C151.03,14.196 150.804,14.293 150.61,14.486C150.416,14.68 150.32,14.906 150.32,15.165L150.32,37.125C150.32,37.384 150.411,37.61 150.595,37.804C150.778,37.997 151.009,38.094 151.289,38.094C151.548,38.094 151.774,37.997 151.968,37.804C152.161,37.61 152.258,37.384 152.258,37.125L152.258,15.165C152.258,14.906 152.166,14.68 151.983,14.486C151.799,14.293 151.568,14.196 151.288,14.196Z" style="fill:rgb(23,32,75);fill-rule:nonzero;"></path> <path d="M163.916,21.656L160.687,21.656L160.687,18.071C160.687,17.813 160.595,17.586 160.412,17.393C160.229,17.199 159.997,17.102 159.718,17.102C159.438,17.102 159.206,17.199 159.024,17.393C158.841,17.586 158.749,17.813 158.749,18.071L158.749,21.656L156.392,21.656C156.133,21.656 155.913,21.742 155.73,21.914C155.547,22.086 155.455,22.301 155.455,22.56C155.455,22.797 155.546,23.007 155.73,23.19C155.913,23.373 156.133,23.465 156.392,23.465L158.749,23.465L158.749,34.38C158.749,35.348 158.883,36.092 159.153,36.608C159.422,37.125 159.761,37.486 160.17,37.69C160.578,37.895 160.977,38.013 161.365,38.046C161.752,38.078 162.044,38.094 162.237,38.094C162.71,38.094 163.12,37.992 163.464,37.787C163.808,37.583 163.981,37.33 163.981,37.028C163.981,36.791 163.911,36.598 163.771,36.447C163.631,36.297 163.464,36.221 163.271,36.221C163.099,36.221 162.942,36.248 162.802,36.302C162.662,36.356 162.506,36.383 162.334,36.383C162.075,36.383 161.817,36.335 161.559,36.238C161.3,36.141 161.09,35.942 160.929,35.641C160.767,35.34 160.687,34.888 160.687,34.284L160.687,23.465L163.916,23.465C164.175,23.465 164.39,23.379 164.562,23.206C164.734,23.034 164.82,22.83 164.82,22.593C164.82,22.334 164.734,22.114 164.562,21.931C164.39,21.748 164.175,21.656 163.916,21.656Z" style="fill:rgb(23,32,75);fill-rule:nonzero;"></path> <path d="M181.388,37.804C181.582,37.61 181.679,37.384 181.679,37.125L181.679,27.985C181.679,26.779 181.479,25.682 181.081,24.691C180.683,23.701 180.064,22.915 179.224,22.333C178.384,21.752 177.287,21.461 175.93,21.461C175.176,21.461 174.433,21.606 173.702,21.897C172.97,22.187 172.302,22.586 171.7,23.092C171.153,23.551 170.704,24.066 170.343,24.63L170.343,15.163C170.343,14.904 170.251,14.678 170.068,14.484C169.885,14.291 169.653,14.194 169.374,14.194C169.094,14.194 168.862,14.291 168.68,14.484C168.497,14.678 168.405,14.904 168.405,15.163L168.405,37.123C168.405,37.382 168.491,37.608 168.664,37.802C168.836,37.995 169.072,38.092 169.374,38.092C169.632,38.092 169.859,37.995 170.052,37.802C170.246,37.608 170.343,37.382 170.343,37.123L170.343,27.983C170.343,27.101 170.59,26.304 171.086,25.593C171.581,24.882 172.233,24.317 173.04,23.897C173.847,23.477 174.703,23.267 175.608,23.267C176.62,23.267 177.427,23.477 178.03,23.897C178.632,24.317 179.069,24.882 179.338,25.593C179.608,26.303 179.742,27.1 179.742,27.983L179.742,37.123C179.742,37.382 179.828,37.608 180,37.802C180.173,37.995 180.409,38.092 180.711,38.092C180.968,38.094 181.194,37.997 181.388,37.804Z" style="fill:rgb(23,32,75);fill-rule:nonzero;"></path> <path d="M85.547,27.138C85.74,26.966 85.837,26.75 85.837,26.492C85.837,26.191 85.74,25.948 85.547,25.765C85.353,25.582 85.127,25.491 84.868,25.491L77.893,25.491C77.634,25.491 77.414,25.577 77.231,25.749C77.048,25.921 76.956,26.148 76.956,26.427C76.956,26.707 77.047,26.939 77.231,27.121C77.414,27.304 77.634,27.396 77.893,27.396L84.868,27.396C85.127,27.396 85.353,27.311 85.547,27.138Z" style="fill:rgb(23,32,75);fill-rule:nonzero;"></path> <path d="M14.399,48.767C13.858,48.387 13.459,48.178 13.459,48.178C12.422,52.705 15.362,55.867 15.362,55.867C11.677,53.18 12.364,48.451 12.364,48.451C12.364,48.451 10.749,51.329 11.893,53.913C13.001,56.415 16.943,57.89 17.196,57.982C17.111,57.479 16.749,56.573 15.678,54.849C13.773,51.783 14.131,49.613 14.399,48.767Z" style="fill:rgb(23,32,75);fill-rule:nonzero;"></path> <path d="M6.693,48.624C6.681,48.632 6.651,48.653 6.651,48.653C8.587,46.53 11.502,47.285 11.502,47.285C11.502,47.285 9.81,46.076 8.113,46.615C6.416,47.154 5.186,49.685 5.186,49.685C5.186,49.685 5.395,49.707 5.658,49.745C5.968,49.323 6.359,48.928 6.693,48.624Z" style="fill:rgb(23,32,75);fill-rule:nonzero;"></path> <path d="M51.318,6.574C49.18,6.162 46.736,7.55 46.736,7.55C49.668,10.555 53.51,9.87 53.51,9.87C49.664,11.354 46.407,8.516 46.407,8.516C46.407,8.516 47.803,11.153 50.326,11.549C52.85,11.945 56.051,9.486 56.051,9.486C56.051,9.486 55.325,9.027 54.788,8.592C54.252,8.156 53.456,6.986 51.318,6.574Z" style="fill:rgb(23,32,75);fill-rule:nonzero;"></path> <path d="M43.111,1.563C43.087,1.69 43.036,1.794 43.002,1.913C43.339,1.218 43.573,0.516 43.713,0.034C43.567,0.103 43.184,0.279 42.84,0.398C42.408,0.548 41.471,0.586 40.492,1.643C39.513,2.701 39.438,4.559 39.438,4.559C42.153,3.962 43.111,1.563 43.111,1.563Z" style="fill:rgb(23,32,75);fill-rule:nonzero;"></path> <path d="M18.729,46.338C19.235,46.505 19.785,46.622 20.336,46.59C22.137,46.486 22.919,45.611 23.407,45.313C23.895,45.015 24.542,44.717 24.542,44.717C24.542,44.717 22.182,42.347 20.066,42.396C17.95,42.445 16.516,44.458 16.516,44.458C16.516,44.458 19.097,42.79 21.867,43.866C22.254,43.999 22.497,44.123 22.497,44.123C20.963,44.174 19.385,45.649 18.729,46.338Z" style="fill:rgb(23,32,75);fill-rule:nonzero;"></path> <path d="M3.65,13.539C3.65,13.539 0.882,16.263 1.633,20.372L1.637,20.37C1.855,19.539 2.356,18.146 3.497,16.506C4.55,14.992 4.435,13.346 4.146,12.194C2.922,12.741 1.161,13.735 0.455,15.156C-0.676,17.432 0.66,20.083 0.66,20.083C0.66,20.083 0.231,15.806 3.65,13.539Z" style="fill:rgb(23,32,75);fill-rule:nonzero;"></path> <path d="M14.399,48.767C14.13,49.613 13.772,51.783 15.678,54.849C16.75,56.573 17.111,57.479 17.196,57.982C17.205,57.985 17.244,58 17.244,58C17.244,58 17.236,57.05 17.318,56.29C17.401,55.53 18.012,54.088 17.114,51.853C16.556,50.466 15.285,49.387 14.399,48.767Z" style="fill:rgb(23,32,75);fill-rule:nonzero;"></path> <path d="M16.68,45.287C16.68,45.287 17.58,45.957 18.728,46.337C19.384,45.648 20.963,44.173 22.496,44.123C22.496,44.123 19.416,43.14 16.68,45.287Z" style="fill:rgb(23,32,75);fill-rule:nonzero;"></path> <path d="M22.496,44.123C22.496,44.123 22.253,43.999 21.866,43.866C22.077,43.948 22.285,44.008 22.496,44.123Z" style="fill:rgb(23,32,75);fill-rule:nonzero;"></path> <path d="M6.693,48.624C6.36,48.928 5.968,49.323 5.658,49.744C5.845,49.771 6.056,49.804 6.252,49.848C6.722,49.952 7.584,50.434 9.045,50.025C10.507,49.616 11.598,47.989 11.598,47.989C8.979,47.079 6.906,48.473 6.693,48.624Z" style="fill:rgb(23,32,75);fill-rule:nonzero;"></path> <path d="M3.497,16.506C2.356,18.146 1.856,19.539 1.637,20.37C1.661,20.359 4.17,19.178 5.063,17.215C5.96,15.243 5.468,13.922 5.424,13.236C5.38,12.55 5.426,11.697 5.426,11.697C5.426,11.697 4.883,11.864 4.146,12.194C4.434,13.346 4.55,14.992 3.497,16.506Z" style="fill:rgb(23,32,75);fill-rule:nonzero;"></path> <path d="M34.296,8.652C35.885,9.426 37.81,10.673 39.388,12.636L39.405,12.623C39.432,12.66 39.455,12.699 39.487,12.734C40.704,14.081 41.725,15.669 42.407,17.319C43.089,18.985 43.423,20.794 43.383,22.604C43.318,26.228 41.706,29.825 38.981,32.284C38.661,32.615 38.279,32.872 37.918,33.156C37.566,33.454 37.157,33.67 36.769,33.917C35.989,34.41 35.154,34.747 34.29,35.03C32.552,35.522 30.675,35.643 28.891,35.218C27.99,35.044 27.137,34.689 26.306,34.302C25.505,33.86 24.711,33.378 24.038,32.746C22.653,31.54 21.572,29.933 21.01,28.206C20.494,26.457 20.496,24.528 21.131,22.787C21.725,21.032 22.925,19.502 24.458,18.441C25.988,17.373 27.895,16.908 29.741,17.234C31.578,17.54 33.29,18.612 34.357,20.169C35.465,21.694 35.769,23.751 35.09,25.529C34.441,27.288 32.847,28.771 30.956,29.069C30.015,29.225 29.028,29.052 28.168,28.628C27.31,28.194 26.589,27.489 26.14,26.628C25.687,25.774 25.591,24.735 25.88,23.8C26.16,22.863 26.824,22.044 27.693,21.571C26.811,22.018 26.112,22.824 25.797,23.774C25.474,24.72 25.537,25.799 25.985,26.706C26.425,27.612 27.155,28.374 28.048,28.859C28.942,29.334 29.987,29.551 31.004,29.413C33.059,29.146 34.802,27.619 35.575,25.718C36.378,23.812 36.107,21.495 34.934,19.782C33.813,18.039 31.953,16.786 29.902,16.381C27.854,15.947 25.63,16.423 23.886,17.571C22.137,18.704 20.728,20.392 19.992,22.367C19.214,24.326 19.134,26.541 19.678,28.592C20.282,30.641 21.442,32.458 22.986,33.897C23.737,34.641 24.627,35.225 25.538,35.758C26.478,36.236 27.455,36.668 28.491,36.904C30.544,37.453 32.743,37.39 34.81,36.865C35.831,36.569 36.85,36.182 37.76,35.647C38.213,35.379 38.687,35.139 39.104,34.813C39.53,34.501 39.975,34.212 40.358,33.844C43.589,31.097 45.608,26.969 45.811,22.691C45.922,20.555 45.589,18.387 44.832,16.373C44.059,14.348 42.958,12.539 41.579,10.909C41.57,10.899 41.556,10.882 41.547,10.872C41.525,10.848 41.499,10.83 41.476,10.808C40.377,9.462 39.15,8.411 37.946,7.582C37.836,7.605 37.724,7.614 37.615,7.64C36.483,7.894 35.382,8.251 34.296,8.652Z" style="fill:rgb(23,32,75);fill-rule:nonzero;"></path> <path d="M32.147,49.984C25.838,51.295 19.523,49.123 14.776,44.98C14.771,44.984 14.768,44.991 14.764,44.995C14.325,44.597 13.831,44.104 13.433,43.698C13.312,43.575 13.19,43.453 13.072,43.327C12.927,43.177 12.816,43.06 12.762,43.003C12.765,42.996 12.768,42.989 12.771,42.982C10.113,40.037 8.157,36.418 7.307,32.472C6.273,31.629 5.186,30.807 4.149,29.909C4.226,30.898 4.344,31.891 4.552,32.888C7.203,45.643 19.736,53.863 32.491,51.211C38.67,49.927 43.979,46.313 47.44,41.036C44.385,45.693 37.601,48.85 32.147,49.984Z" style="fill:rgb(23,32,75);fill-rule:nonzero;"></path> <path d="M13.025,13.278C12.998,13.273 12.972,13.272 12.945,13.267C13.722,12.407 14.978,11.493 15.644,11.034C15.656,11.036 15.669,11.037 15.681,11.039C17.944,9.44 20.558,8.263 23.44,7.664C26.027,7.126 28.647,7.08 31.194,7.519C31.212,7.523 31.893,7.663 32.909,8.048C33.204,7.955 33.495,7.849 33.793,7.764C34.513,7.439 35.231,7.108 35.941,6.764C36.065,6.703 36.188,6.638 36.312,6.576C33.878,5.245 31.858,4.822 31.698,4.791C28.773,4.286 25.805,4.339 22.874,4.948C11.509,7.31 3.767,17.523 4.087,28.744C5.014,29.461 6.015,30.107 7.025,30.761C6.163,24.141 8.538,17.736 13.025,13.278Z" style="fill:rgb(23,32,75);fill-rule:nonzero;"></path> <path d="M35.755,7.272C36.198,7.177 36.646,7.102 37.094,7.029C36.937,6.933 36.78,6.836 36.626,6.748C36.452,6.854 36.281,6.965 36.106,7.069C35.989,7.138 35.871,7.204 35.755,7.272Z" style="fill:rgb(23,32,75);fill-rule:nonzero;"></path> <path d="M39.867,5.081C39.867,5.081 41.837,5.219 42.942,3.939C44.047,2.659 43.784,0 43.784,0C43.784,0 43.751,0.016 43.714,0.033C43.574,0.516 43.34,1.218 43.003,1.912C42.326,4.302 39.867,5.081 39.867,5.081Z" style="fill:rgb(23,32,75);fill-rule:nonzero;"></path> <path d="M7.568,32.68C9.385,34.173 11.147,35.782 12.191,37.7C12.719,38.649 13.054,39.664 13.126,40.658C13.165,41.154 13.134,41.646 13.04,42.113C12.993,42.346 12.93,42.574 12.851,42.788C12.827,42.856 12.799,42.918 12.771,42.981C12.768,42.988 12.765,42.995 12.762,43.002C12.815,43.058 12.927,43.176 13.072,43.326C13.19,43.452 13.312,43.573 13.433,43.697C13.831,44.103 14.325,44.595 14.764,44.994C14.769,44.99 14.772,44.983 14.776,44.979C14.864,44.894 14.946,44.801 15.011,44.69C15.155,44.411 15.196,44.276 15.267,44.077C15.327,43.895 15.381,43.714 15.424,43.534C15.512,43.174 15.569,42.813 15.6,42.454C15.663,41.735 15.624,41.019 15.494,40.331C15.238,38.95 14.643,37.7 13.891,36.632C13.142,35.557 12.232,34.645 11.285,33.84C10.346,33.028 9.348,32.311 8.345,31.631C7.908,31.332 7.466,31.045 7.024,30.76C6.013,30.106 5.013,29.461 4.086,28.743C3.569,28.343 3.07,27.923 2.616,27.457C1.817,26.623 1.195,25.618 0.9,24.483C0.607,23.348 0.63,22.134 0.813,20.953C0.525,22.112 0.384,23.334 0.581,24.551C0.779,25.766 1.35,26.92 2.123,27.885C2.736,28.637 3.432,29.288 4.149,29.909C5.186,30.807 6.273,31.629 7.307,32.472C7.393,32.542 7.483,32.61 7.568,32.68Z" style="fill:rgb(23,32,75);fill-rule:nonzero;"></path> <path d="M33.793,7.764C33.495,7.849 33.204,7.955 32.909,8.048C31.647,8.444 30.401,8.888 29.179,9.381C27.821,9.964 26.601,10.456 25.271,10.799C23.944,11.115 22.589,11.301 21.226,11.373C19.863,11.448 18.489,11.383 17.131,11.24C16.651,11.188 16.164,11.118 15.68,11.039C15.668,11.037 15.655,11.036 15.643,11.034C14.977,11.493 13.721,12.407 12.944,13.267C12.971,13.272 12.997,13.273 13.024,13.278C14.374,13.511 15.648,13.623 16.969,13.663C18.454,13.698 19.94,13.648 21.414,13.446C22.887,13.248 24.345,12.925 25.761,12.463C27.164,11.983 28.542,11.287 29.755,10.643C31.234,9.902 32.747,9.223 34.296,8.651C35.382,8.25 36.483,7.894 37.613,7.639C37.722,7.614 37.835,7.605 37.944,7.581C40.576,7.02 43.356,6.987 45.988,7.783C43.327,6.733 40.346,6.534 37.487,6.956C37.354,6.975 37.224,7.006 37.092,7.028C36.644,7.101 36.196,7.176 35.753,7.271C35.87,7.203 35.988,7.137 36.104,7.068C36.279,6.964 36.45,6.853 36.624,6.747C37.613,6.147 38.593,5.531 39.509,4.828C38.483,5.484 37.401,6.038 36.311,6.575C36.187,6.636 36.064,6.702 35.94,6.763C35.231,7.108 34.513,7.44 33.793,7.764Z" style="fill:rgb(23,32,75);fill-rule:nonzero;"></path> </svg> 