<?xml version="1.0" encoding="UTF-8" standalone="no"?> <svg xmlns="http://www.w3.org/2000/svg" xmlns:xlink="http://www.w3.org/1999/xlink" xmlns:serif="http://www.serif.com/" width="100%" height="100%" viewBox="0 0 1920 716" version="1.1" xml:space="preserve" style="fill-rule:evenodd;clip-rule:evenodd;stroke-linejoin:round;stroke-miterlimit:1.41421;"> <path d="M0,715.573L550.956,715.573C511.072,667.261 453.891,625.073 403.531,609.485C319.531,583.485 265.531,518.485 189.531,483.485C113.531,448.485 48.531,521.485 32.531,558.485C25.32,575.161 12.218,597.321 0,616.635L0,715.573Z" style="fill:rgb(248,249,252);"></path> <path d="M409.02,618.241C406.14,621.154 410.702,625.672 413.586,622.754C416.466,619.84 411.904,615.322 409.02,618.241Z" style="fill:rgb(24,33,76);fill-rule:nonzero;"></path> <path d="M399.315,637.752C398.204,638.876 399.963,640.618 401.076,639.493C402.187,638.369 400.427,636.626 399.315,637.752Z" style="fill:rgb(24,33,76);fill-rule:nonzero;"></path> <path d="M394.155,617.332C392.304,619.205 395.236,622.109 397.09,620.233C398.942,618.36 396.01,615.455 394.155,617.332Z" style="fill:rgb(24,33,76);fill-rule:nonzero;"></path> <path d="M401.721,600.689C398.636,603.81 403.523,608.651 406.613,605.524C409.699,602.403 404.812,597.562 401.721,600.689Z" style="fill:rgb(24,33,76);fill-rule:nonzero;"></path> <path d="M414.034,626.643C410.784,629.931 415.932,635.03 419.187,631.737C422.437,628.448 417.29,623.349 414.034,626.643Z" style="fill:rgb(24,33,76);fill-rule:nonzero;"></path> <path d="M387.192,633.857C384.6,636.479 388.705,640.545 391.301,637.919C393.893,635.296 389.788,631.23 387.192,633.857Z" style="fill:rgb(24,33,76);fill-rule:nonzero;"></path> <path d="M378.736,610.519C376.144,613.141 380.249,617.207 382.845,614.581C385.437,611.959 381.332,607.893 378.736,610.519Z" style="fill:rgb(24,33,76);fill-rule:nonzero;"></path> <path d="M371.559,624.101C370.985,624.682 370.411,625.263 369.836,625.844C369.502,626.182 369.481,626.803 369.849,627.135C370.218,627.469 370.782,627.496 371.141,627.133C371.715,626.552 372.29,625.971 372.864,625.39C373.198,625.052 373.219,624.431 372.851,624.099C372.482,623.765 371.918,623.739 371.559,624.101Z" style="fill:rgb(24,33,76);fill-rule:nonzero;"></path> <path d="M359.615,619.187C356.941,621.892 361.176,626.087 363.855,623.378C366.529,620.672 362.293,616.478 359.615,619.187Z" style="fill:rgb(24,33,76);fill-rule:nonzero;"></path> <path d="M345.658,615.73C345.127,616.354 344.597,616.978 344.066,617.602C343.787,617.864 343.594,618.173 343.486,618.532C343.325,618.856 343.252,619.203 343.27,619.573C343.26,619.944 343.339,620.29 343.507,620.614C343.622,620.972 343.821,621.281 344.106,621.541C344.305,621.692 344.505,621.843 344.704,621.993C345.134,622.233 345.594,622.353 346.084,622.354C346.319,622.323 346.554,622.292 346.79,622.262C347.274,622.132 347.693,621.89 348.046,621.535C348.664,620.997 349.282,620.459 349.899,619.921C350.196,619.642 350.402,619.312 350.517,618.931C350.689,618.586 350.766,618.216 350.747,617.821C350.757,617.426 350.673,617.056 350.494,616.712C350.371,616.331 350.159,616.001 349.856,615.724C349.643,615.563 349.431,615.403 349.218,615.242C348.76,614.987 348.27,614.859 347.748,614.858C347.497,614.891 347.247,614.923 346.996,614.956C346.481,615.093 346.034,615.351 345.658,615.73Z" style="fill:rgb(24,33,76);fill-rule:nonzero;"></path> <path d="M1860.42,234.738C1859.8,234.732 1859.81,233.76 1860.43,233.766C1861.05,233.772 1861.04,234.744 1860.42,234.738Z" style="fill:rgb(24,33,76);fill-rule:nonzero;"></path> <path d="M1850.38,239.787C1848.33,239.766 1848.36,236.552 1850.41,236.573C1852.46,236.593 1852.43,239.808 1850.38,239.787Z" style="fill:rgb(24,33,76);fill-rule:nonzero;"></path> <path d="M1840.28,250.393C1837.42,250.364 1837.46,245.879 1840.33,245.908C1843.19,245.937 1843.15,250.422 1840.28,250.393Z" style="fill:rgb(24,33,76);fill-rule:nonzero;"></path> <path d="M1816.44,263.01C1813.58,262.981 1813.62,258.496 1816.49,258.525C1819.35,258.554 1819.31,263.039 1816.44,263.01Z" style="fill:rgb(24,33,76);fill-rule:nonzero;"></path> <path d="M1794.73,275.299C1792.2,272.908 1795.94,268.937 1798.48,271.332C1801.01,273.723 1797.26,277.694 1794.73,275.299Z" style="fill:rgb(24,33,76);fill-rule:nonzero;"></path> <path d="M1777.79,282.864C1775.36,280.571 1778.95,276.763 1781.38,279.06C1783.81,281.353 1780.22,285.161 1777.79,282.864Z" style="fill:rgb(24,33,76);fill-rule:nonzero;"></path> <path d="M1772.74,277.273C1772.27,277.744 1771.79,278.215 1771.31,278.686C1771.09,278.938 1770.82,279.117 1770.51,279.224C1770.24,279.376 1769.94,279.452 1769.62,279.45C1769.29,279.472 1768.99,279.417 1768.71,279.283C1768.39,279.196 1768.12,279.035 1767.89,278.798C1767.75,278.631 1767.62,278.463 1767.48,278.295C1767.26,277.931 1767.15,277.536 1767.14,277.111C1767.16,276.906 1767.18,276.7 1767.2,276.495C1767.3,276.07 1767.5,275.698 1767.8,275.378C1768.25,274.873 1768.69,274.368 1769.13,273.863C1769.36,273.603 1769.63,273.419 1769.95,273.308C1770.24,273.151 1770.55,273.073 1770.88,273.075C1771.21,273.052 1771.52,273.109 1771.81,273.247C1772.14,273.336 1772.42,273.503 1772.66,273.747C1772.8,273.92 1772.94,274.093 1773.08,274.265C1773.3,274.64 1773.42,275.047 1773.43,275.486C1773.41,275.698 1773.39,275.909 1773.37,276.121C1773.26,276.56 1773.05,276.944 1772.74,277.273Z" style="fill:rgb(24,33,76);fill-rule:nonzero;"></path> <path d="M1762.64,281.44C1760.88,279.769 1763.49,276.995 1765.26,278.668C1767.03,280.339 1764.42,283.113 1762.64,281.44Z" style="fill:rgb(24,33,76);fill-rule:nonzero;"></path> <path d="M1761.23,185.949C1765.69,186.027 1770.57,186.704 1776.46,188.046C1780.31,188.922 1784.18,189.988 1787.92,191.018C1790.58,191.749 1793.33,192.506 1796.05,193.191C1801.44,194.542 1808.54,196.103 1815.75,196.159C1822.77,196.216 1830.2,194.662 1838.48,191.411C1844.64,188.99 1850.71,186.072 1856.59,183.25C1858.28,182.436 1859.97,181.621 1861.67,180.82L1861.86,180.73L1862.84,180.268L1863.8,179.813C1870.12,181.671 1876.62,183.354 1883.28,183.581C1880.36,184.342 1877.44,185.127 1874.53,185.944C1860.65,189.84 1848.83,193.942 1838.42,198.483C1826.48,203.689 1815.29,210.055 1805.16,217.405C1794.84,224.89 1785.08,233.41 1775.64,241.65L1774.72,242.453C1766.82,249.353 1758.9,256.245 1750.99,263.138L1740.66,272.135L1740.43,272.41C1740.38,272.547 1740.39,272.706 1740.47,272.846C1740.55,273.002 1740.71,273.1 1740.87,273.119L1741.19,273.063L1743.19,272.415C1743.25,272.409 1743.31,272.392 1743.37,272.359C1743.37,272.358 1743.37,272.357 1743.38,272.355L1769.08,264.041L1769.99,263.748L1772.1,263.065C1774.48,262.296 1776.86,261.54 1779.25,260.782C1779.36,260.745 1779.48,260.706 1779.6,260.669L1780.73,260.31C1787.89,258.035 1795.25,255.674 1802.35,252.948C1804.15,252.254 1805.89,251.527 1807.59,250.783L1808.47,250.395C1812.33,248.667 1815.93,246.804 1819.3,244.785L1819.94,244.408C1823.19,242.417 1826.22,240.281 1829.05,237.979C1830.02,237.193 1830.98,236.372 1831.94,235.529L1832.75,234.796C1834.64,233.09 1836.53,231.271 1838.4,229.327L1839.66,227.993C1841.28,226.261 1842.89,224.437 1844.51,222.512C1844.82,222.212 1845.08,221.882 1845.31,221.536C1846.55,220.038 1847.78,218.502 1849.02,216.884C1849.16,216.7 1849.29,216.513 1849.43,216.329L1850.61,214.754C1852.39,212.373 1854.11,209.961 1855.8,207.502L1856.14,207.007C1859.74,201.74 1863.23,196.25 1866.88,190.428L1867.63,189.227C1867.63,189.224 1867.64,189.222 1867.64,189.219C1867.64,189.209 1867.65,189.2 1867.65,189.192C1868.61,188.902 1869.58,188.614 1870.56,188.328C1883.07,184.669 1895.62,181.698 1907.39,178.969C1908.15,178.793 1912.41,178.014 1916.54,177.26C1917.7,177.049 1918.87,176.836 1919.97,176.633L1919.97,175.565C1919.69,175.604 1919.42,175.642 1919.11,175.685C1918.39,175.786 1912.03,176.669 1911.8,176.721C1904.33,178.41 1895.98,180.347 1887.42,182.518C1879.99,182.987 1872.77,181.329 1864.97,179.088L1863.65,178.703C1863.16,178.559 1862.66,178.415 1862.17,178.267L1860.76,177.85C1857.09,176.756 1853.29,175.626 1849.49,174.754C1845.44,173.824 1841.19,173.137 1836.87,172.712C1828.84,171.92 1820.12,172 1810.96,172.951C1803.12,173.763 1794.68,175.217 1785.18,177.395C1776.32,179.426 1767.66,181.815 1759.62,184.094L1759.28,184.189C1758.36,184.452 1757.43,184.715 1756.51,184.99L1756.2,185.16C1756.1,185.315 1756.03,185.465 1756.06,185.648C1756.1,185.818 1756.2,185.955 1756.34,186.028L1756.7,186.084C1757.95,185.986 1759.23,185.948 1760.54,185.953C1760.54,185.958 1760.55,185.967 1760.55,185.972L1761.23,185.949ZM1856.91,181.858L1851.4,184.437C1847.92,186.07 1844.32,187.758 1840.72,189.264C1835.15,191.586 1826.73,194.708 1817.79,195.002C1812.09,195.191 1806.04,194.44 1798.18,192.567C1794.88,191.782 1791.56,190.874 1788.34,189.997C1785.18,189.133 1781.9,188.24 1778.65,187.463C1773.04,186.119 1768.18,185.331 1763.72,185.034C1768.21,183.506 1773.24,182.507 1779.31,181.942C1784.97,181.417 1790.76,181.263 1796.36,181.113L1798.7,181.05C1804.74,180.882 1811.24,180.758 1819.15,180.659C1825.86,180.575 1832.72,180.542 1839.52,180.561C1843.51,180.572 1847.5,180.618 1851.49,180.664C1854.09,180.695 1856.69,180.723 1859.29,180.743C1858.5,181.115 1857.7,181.487 1856.91,181.858ZM1861.25,179.825C1858.66,179.704 1856.05,179.656 1853.51,179.625L1852.14,179.608C1848.75,179.562 1845.35,179.532 1841.95,179.515C1835.21,179.481 1828.32,179.499 1821.49,179.569C1815.22,179.634 1808.52,179.762 1801.02,179.958L1798.02,180.034C1792.54,180.168 1786.89,180.307 1781.34,180.74C1777.72,181.023 1774.47,181.436 1771.5,181.994C1775.05,181.027 1778.64,180.079 1782.21,179.216C1791.81,176.895 1800.27,175.299 1808.06,174.336C1817.34,173.188 1825.75,172.904 1833.77,173.47C1838.18,173.781 1842.53,174.362 1846.68,175.195C1850.71,176.001 1854.62,177.086 1859.27,178.469L1860.8,178.924C1861.28,179.069 1861.77,179.213 1862.25,179.359C1861.92,179.513 1861.59,179.669 1861.25,179.825ZM1769.75,262.723L1747.47,269.933C1753.79,266.131 1760.45,261.778 1768.13,256.444C1771.13,254.364 1774.12,252.239 1777.1,250.107C1775.57,253.703 1773.68,257.185 1771.41,260.461C1770.89,261.212 1770.33,261.969 1769.75,262.723ZM1780.55,259.25C1778.73,259.827 1776.92,260.403 1775.11,260.988L1771.17,262.264C1773.43,259.334 1775.4,256.144 1777,252.72C1777.55,251.544 1778.06,250.345 1778.51,249.153C1778.52,249.132 1778.52,249.11 1778.52,249.088C1781.96,246.62 1785.37,244.144 1788.72,241.71L1790.01,240.766C1789.55,243.198 1788.72,245.785 1787.43,248.667C1786.25,251.332 1784.73,253.923 1782.92,256.368C1782.18,257.369 1781.38,258.324 1780.55,259.25ZM1793.77,254.932C1789.9,256.26 1786.01,257.51 1782.17,258.732C1785.55,254.802 1788.16,250.211 1789.78,245.303C1790.32,243.683 1790.69,242.065 1791.1,240.271C1791.12,240.174 1791.11,240.081 1791.08,239.995L1791.95,239.36C1795.69,236.645 1799.27,234.057 1802.8,231.542C1802.59,234.839 1802.06,238.138 1801.2,241.36C1800.08,245.589 1798.87,248.59 1797.29,251.09C1796.29,252.666 1795.1,253.946 1793.77,254.932ZM1808.03,249.462C1806.97,249.934 1805.9,250.397 1804.82,250.84C1801.93,252.016 1798.99,253.094 1796.03,254.136C1798.06,252.077 1799.3,249.47 1800.12,247.489C1801.49,244.159 1802.51,240.627 1803.14,236.99C1803.49,234.999 1803.72,232.949 1803.83,230.899C1803.83,230.872 1803.82,230.849 1803.81,230.822C1807.4,228.274 1810.96,225.804 1814.58,223.366C1815.19,226.998 1815.22,230.634 1814.65,234.183C1814.05,237.938 1812.85,241.521 1811.07,244.834C1810.2,246.456 1809.18,248.006 1808.03,249.462ZM1819.52,243.414C1816.45,245.306 1813.2,247.049 1809.8,248.642C1811.52,246.204 1812.93,243.544 1813.98,240.691C1815.33,237.019 1816.03,233.166 1816.07,229.24C1816.09,226.956 1815.9,224.77 1815.5,222.741C1815.67,222.631 1815.83,222.52 1815.99,222.41C1818.65,220.633 1821.26,218.948 1823.82,217.327C1824.78,220.68 1825.15,224.231 1824.89,227.893C1824.63,231.622 1823.72,235.247 1822.18,238.668C1821.45,240.309 1820.55,241.899 1819.52,243.414ZM1832.28,233.878C1831.8,234.31 1831.33,234.749 1830.84,235.172C1827.9,237.711 1824.74,240.068 1821.37,242.253C1822.79,239.861 1823.91,237.227 1824.7,234.388C1825.75,230.639 1826.12,226.807 1825.81,222.999C1825.64,220.918 1825.26,218.828 1824.68,216.784C1827.49,215.024 1830.25,213.353 1832.97,211.758L1832.99,211.862C1833.59,214.908 1834.21,218.058 1834.41,221.201C1834.62,224.629 1834.37,227.612 1833.63,230.322C1833.28,231.578 1832.83,232.77 1832.28,233.878ZM1839.99,224.225C1839.76,225.44 1839.38,226.515 1838.86,227.45C1837.25,229.163 1835.58,230.828 1833.86,232.443C1835.94,227.011 1835.44,220.983 1834.8,216.657C1834.52,214.723 1834.17,212.857 1833.86,211.24C1835.81,210.108 1837.75,209.014 1839.68,207.957C1839.21,210.672 1839.52,213.419 1839.84,216.094C1840.15,218.775 1840.48,221.548 1839.99,224.225ZM1845.9,215.718C1845.83,216.762 1845.72,217.875 1845.45,218.934C1845.25,219.716 1844.94,220.388 1844.57,220.963C1843.46,222.303 1842.34,223.626 1841.18,224.924C1841.02,225.098 1840.86,225.267 1840.7,225.44C1841.52,222.411 1841.16,219.122 1840.8,215.91C1840.63,214.428 1840.48,213.029 1840.43,211.655C1840.38,210.039 1840.5,208.627 1840.79,207.348C1840.82,207.33 1840.86,207.31 1840.89,207.292L1843.38,205.948C1844.48,205.36 1845.58,204.766 1846.67,204.167L1846.09,212.892C1846.03,213.835 1845.97,214.777 1845.9,215.718ZM1851.38,204.758C1851.37,207.343 1851.36,210.017 1850.54,212.537C1850.36,213.115 1850.13,213.661 1849.87,214.173C1848.76,215.662 1847.63,217.132 1846.48,218.585C1846.61,217.911 1846.7,217.232 1846.77,216.579C1846.94,214.687 1847.06,212.758 1847.17,210.892C1847.23,210.012 1847.28,209.13 1847.34,208.252L1847.66,203.629C1848.93,202.933 1850.19,202.228 1851.46,201.502C1851.39,202.594 1851.38,203.687 1851.38,204.758ZM1855.65,201.977C1855.45,203.561 1855.39,205.128 1855.37,206.436C1854.19,208.162 1853,209.877 1851.78,211.573C1852.35,209.166 1852.37,206.613 1852.39,204.246L1852.39,203.794C1852.4,202.76 1852.43,201.805 1852.48,200.899C1853.74,200.161 1854.99,199.399 1856.22,198.615C1855.99,199.764 1855.79,200.886 1855.65,201.977ZM1858.93,200.844C1858.89,200.932 1858.9,201.022 1858.92,201.106C1858.05,202.444 1857.16,203.776 1856.27,205.104C1856.36,204.01 1856.48,202.949 1856.6,202C1856.77,200.597 1857.02,199.243 1857.29,197.933C1858.01,197.463 1858.71,196.978 1859.41,196.487C1859.61,198.035 1859.46,199.527 1858.93,200.844ZM1860.36,198.902C1860.51,197.878 1860.48,196.857 1860.26,195.89C1861.62,194.906 1862.95,193.87 1864.24,192.785C1862.96,194.824 1861.67,196.865 1860.36,198.902ZM1856.53,197.098C1855.21,197.956 1853.87,198.793 1852.52,199.595L1851.56,200.144C1848.79,201.752 1845.98,203.279 1843.2,204.78L1843.1,204.833C1842.36,205.237 1841.62,205.656 1840.88,206.064L1840,206.552C1832.38,210.762 1825.02,215.184 1818.1,219.75C1807.7,226.611 1797.46,234.057 1787.56,241.256C1781.93,245.35 1776.11,249.585 1770.32,253.663C1760.34,260.695 1751.83,266.275 1743.59,271.189L1743.19,271.32L1750.84,264.641C1757.65,258.689 1764.47,252.738 1771.3,246.794C1772.64,245.623 1773.98,244.448 1775.33,243.274C1783.87,235.807 1792.7,228.086 1801.91,221.151C1812.33,213.305 1823.35,206.674 1834.69,201.444C1844.03,197.134 1854.38,193.253 1866.23,189.624C1864.09,191.629 1861.81,193.449 1859.43,195.135C1859.41,195.149 1859.39,195.153 1859.37,195.169C1859.37,195.172 1859.37,195.176 1859.37,195.18C1858.69,195.657 1858.01,196.124 1857.32,196.581" style="fill:rgb(24,33,76);fill-rule:nonzero;"></path> <path d="M686.366,715.688C670.312,684.142 638.179,656.365 600.408,641.382C568.502,628.728 517.004,618.737 452.849,643.018C388.343,667.433 331.668,633.262 276.858,600.215C241.707,579.021 205.358,557.105 168.094,551.991C141.041,548.276 113.702,557.794 86.841,580.272C65.4,598.215 44.209,624.418 23.858,658.156C14.928,672.959 6.942,687.944 0,702.045L0,704.313C7.136,689.708 15.413,674.091 24.715,658.672C45.009,625.031 66.128,598.911 87.484,581.039C114.119,558.748 141.191,549.31 167.959,552.981C205.019,558.067 241.278,579.929 276.342,601.071C318.291,626.363 361.323,652.312 408.199,652.31C422.799,652.309 437.776,649.791 453.203,643.953C517.057,619.786 568.298,629.722 600.039,642.311C637.533,657.183 669.43,684.723 685.399,715.999L686.516,715.999C686.464,715.896 686.419,715.792 686.366,715.688Z" style="fill:rgb(24,33,76);fill-rule:nonzero;"></path> </svg> 