<?xml version="1.0" encoding="UTF-8" standalone="no"?> <svg xmlns="http://www.w3.org/2000/svg" xmlns:xlink="http://www.w3.org/1999/xlink" xmlns:serif="http://www.serif.com/" width="100%" height="100%" viewBox="0 0 140 58" version="1.1" xml:space="preserve" style="fill-rule:evenodd;clip-rule:evenodd;stroke-linejoin:round;stroke-miterlimit:1.41421;"> <path d="M49.894,55.17C49.411,54.874 49.034,54.452 48.767,53.906C48.499,53.36 48.364,52.723 48.364,51.995C48.364,51.267 48.498,50.631 48.767,50.085C49.034,49.539 49.411,49.118 49.894,48.821C50.377,48.524 50.941,48.375 51.581,48.375C52.213,48.375 52.774,48.524 53.263,48.821C53.751,49.118 54.127,49.539 54.39,50.085C54.654,50.631 54.784,51.268 54.784,51.995C54.784,52.723 54.653,53.36 54.39,53.906C54.126,54.452 53.751,54.873 53.263,55.17C52.774,55.467 52.214,55.615 51.581,55.615C50.941,55.615 50.377,55.467 49.894,55.17ZM53.277,54.107C53.68,53.619 53.88,52.915 53.88,51.995C53.88,51.095 53.677,50.393 53.27,49.891C52.863,49.388 52.3,49.137 51.581,49.137C50.854,49.137 50.289,49.388 49.887,49.891C49.484,50.393 49.284,51.095 49.284,51.995C49.284,52.915 49.48,53.618 49.873,54.107C50.265,54.595 50.83,54.84 51.567,54.84C52.305,54.84 52.875,54.595 53.277,54.107Z" style="fill:rgb(24,33,76);fill-rule:nonzero;"></path> <path d="M57.86,48.548L59.9,48.548L59.9,49.252L57.86,49.252L57.86,55.515L56.984,55.515L56.984,49.252L55.605,49.252L55.605,48.548L56.984,48.548L56.984,48.203C56.984,47.303 57.205,46.621 57.645,46.156C58.086,45.692 58.756,45.435 59.657,45.388L60.16,45.359L60.231,46.077L59.57,46.106C58.985,46.145 58.555,46.328 58.277,46.659C57.999,46.989 57.86,47.475 57.86,48.117L57.86,48.548Z" style="fill:rgb(24,33,76);fill-rule:nonzero;"></path> <path d="M68.053,54.852L68.011,55.556C67.809,55.583 67.592,55.597 67.362,55.597C66.607,55.597 66.036,55.392 65.65,54.983C65.263,54.573 65.07,54.014 65.07,53.305L65.07,49.494L63.744,49.494L63.744,48.818L65.07,48.818L65.07,46.747L65.911,46.747L65.911,48.818L67.873,48.818L67.873,49.494L65.911,49.494L65.911,53.195C65.911,53.757 66.043,54.18 66.305,54.465C66.568,54.751 66.952,54.893 67.458,54.893C67.661,54.894 67.86,54.88 68.053,54.852Z" style="fill:rgb(24,33,76);fill-rule:nonzero;"></path> <path d="M74.806,51.248L74.806,55.515L73.963,55.515L73.963,51.303C73.963,50.64 73.829,50.156 73.563,49.853C73.296,49.549 72.872,49.397 72.292,49.397C71.629,49.397 71.097,49.599 70.697,50.004C70.297,50.41 70.096,50.952 70.096,51.634L70.096,55.514L69.255,55.514L69.255,45.779L70.096,45.779L70.096,49.936C70.308,49.522 70.614,49.204 71.014,48.983C71.415,48.762 71.873,48.652 72.389,48.652C73.999,48.652 74.806,49.517 74.806,51.248Z" style="fill:rgb(24,33,76);fill-rule:nonzero;"></path> <path d="M82.51,52.27L77.442,52.27C77.47,53.108 77.691,53.75 78.105,54.197C78.519,54.643 79.109,54.867 79.873,54.867C80.683,54.867 81.415,54.59 82.068,54.038L82.399,54.701C82.105,54.977 81.73,55.198 81.274,55.364C80.819,55.53 80.351,55.613 79.872,55.613C78.85,55.613 78.045,55.304 77.455,54.688C76.866,54.071 76.572,53.224 76.572,52.147C76.572,51.457 76.703,50.847 76.965,50.318C77.228,49.789 77.595,49.379 78.07,49.089C78.544,48.799 79.089,48.654 79.706,48.654C80.58,48.654 81.266,48.939 81.763,49.51C82.26,50.081 82.509,50.877 82.509,51.899L82.509,52.27L82.51,52.27ZM78.161,49.95C77.774,50.356 77.544,50.922 77.47,51.649L81.736,51.649C81.718,50.913 81.534,50.344 81.184,49.944C80.834,49.543 80.341,49.343 79.707,49.343C79.063,49.342 78.547,49.545 78.161,49.95Z" style="fill:rgb(24,33,76);fill-rule:nonzero;"></path> <path d="M95.063,45.779L95.934,45.779L91.722,55.514L90.948,55.514L86.736,45.779L87.619,45.779L91.347,54.423L95.063,45.779Z" style="fill:rgb(24,33,76);fill-rule:nonzero;"></path> <path d="M100.842,49.287C101.242,49.711 101.442,50.351 101.442,51.207L101.442,55.515L100.613,55.515L100.613,54.314C100.42,54.728 100.139,55.048 99.772,55.274C99.403,55.5 98.98,55.612 98.501,55.612C98.068,55.612 97.672,55.524 97.313,55.349C96.955,55.174 96.671,54.93 96.465,54.617C96.257,54.304 96.153,53.959 96.153,53.581C96.153,53.084 96.283,52.697 96.54,52.421C96.797,52.144 97.225,51.947 97.824,51.827C98.423,51.707 99.256,51.647 100.324,51.647L100.613,51.647L100.613,51.136C100.613,50.528 100.489,50.084 100.241,49.803C99.993,49.522 99.601,49.382 99.067,49.382C98.662,49.382 98.273,49.44 97.9,49.555C97.528,49.67 97.143,49.857 96.747,50.114L96.43,49.465C96.771,49.216 97.176,49.019 97.645,48.871C98.115,48.724 98.575,48.65 99.027,48.65C99.836,48.652 100.442,48.864 100.842,49.287ZM100.04,54.272C100.423,53.867 100.613,53.352 100.613,52.725L100.613,52.27L100.352,52.27C99.467,52.27 98.791,52.307 98.321,52.381C97.852,52.455 97.52,52.581 97.327,52.761C97.133,52.94 97.038,53.2 97.038,53.541C97.038,53.927 97.185,54.248 97.479,54.501C97.774,54.754 98.137,54.88 98.57,54.88C99.168,54.88 99.659,54.677 100.04,54.272Z" style="fill:rgb(24,33,76);fill-rule:nonzero;"></path> <rect x="103.638" y="45.78" width="0.841" height="9.735" style="fill:rgb(24,33,76);fill-rule:nonzero;"></rect> <rect x="106.704" y="45.78" width="0.841" height="9.735" style="fill:rgb(24,33,76);fill-rule:nonzero;"></rect> <path d="M115.279,52.27L110.211,52.27C110.239,53.108 110.46,53.75 110.874,54.197C111.288,54.643 111.878,54.867 112.642,54.867C113.452,54.867 114.184,54.59 114.837,54.038L115.168,54.701C114.874,54.977 114.499,55.198 114.043,55.364C113.588,55.53 113.12,55.613 112.641,55.613C111.619,55.613 110.814,55.304 110.224,54.688C109.635,54.071 109.341,53.224 109.341,52.147C109.341,51.457 109.472,50.847 109.734,50.318C109.997,49.789 110.364,49.379 110.839,49.089C111.313,48.799 111.858,48.654 112.475,48.654C113.349,48.654 114.035,48.939 114.532,49.51C115.029,50.081 115.278,50.877 115.278,51.899L115.278,52.27L115.279,52.27ZM110.929,49.95C110.542,50.356 110.312,50.922 110.238,51.649L114.504,51.649C114.486,50.913 114.302,50.344 113.952,49.944C113.602,49.543 113.109,49.343 112.475,49.343C111.831,49.342 111.316,49.545 110.929,49.95Z" style="fill:rgb(24,33,76);fill-rule:nonzero;"></path> <path d="M121.81,48.818L122.667,48.818L118.716,58L117.861,58L118.952,55.515L116.079,48.818L116.976,48.818L119.393,54.659L121.81,48.818Z" style="fill:rgb(24,33,76);fill-rule:nonzero;"></path> <path d="M49.064,41.176C48.196,41.008 47.287,40.784 46.335,40.504C45.719,40.317 45.272,40.215 44.991,40.196L45.243,34.961L47.847,34.961L48.547,38.544C48.752,38.787 49.13,39.002 49.681,39.188C50.231,39.375 50.889,39.468 51.655,39.468C52.793,39.468 53.647,39.216 54.217,38.712C54.787,38.208 55.071,37.518 55.071,36.641C55.071,36.025 54.889,35.489 54.525,35.031C54.161,34.574 53.657,34.154 53.013,33.771C52.369,33.389 51.488,32.945 50.367,32.441C48.892,31.769 47.646,30.916 46.63,29.879C45.612,28.843 45.105,27.477 45.105,25.778C45.105,24.733 45.376,23.781 45.917,22.923C46.458,22.065 47.279,21.374 48.381,20.851C49.482,20.329 50.854,20.067 52.496,20.067C53.485,20.067 54.348,20.132 55.085,20.263C55.822,20.394 56.611,20.571 57.451,20.795C57.898,20.944 58.244,21.028 58.487,21.047L58.318,26.03L55.771,26.03L55.126,22.587C54.996,22.419 54.702,22.265 54.244,22.125C53.787,21.985 53.278,21.915 52.719,21.915C51.693,21.915 50.922,22.158 50.409,22.643C49.895,23.128 49.639,23.753 49.639,24.518C49.639,25.19 49.853,25.778 50.283,26.282C50.712,26.786 51.23,27.211 51.837,27.556C52.444,27.901 53.372,28.382 54.622,28.997C55.611,29.483 56.475,29.973 57.212,30.467C57.949,30.962 58.579,31.601 59.102,32.385C59.624,33.169 59.886,34.083 59.886,35.129C59.886,36.155 59.638,37.145 59.144,38.096C58.65,39.047 57.805,39.841 56.611,40.475C55.417,41.11 53.848,41.427 51.908,41.427C50.878,41.428 49.932,41.344 49.064,41.176Z" style="fill:rgb(24,33,76);fill-rule:nonzero;"></path> <path d="M63.411,28.494L61.535,27.962L61.535,25.862L67.134,25.19L67.191,25.19L68.058,25.778L68.058,39.02L69.738,39.272L69.738,41.12L61.676,41.12L61.676,39.272L63.412,39.02L63.412,28.494L63.411,28.494ZM63.355,22.503C62.908,22.074 62.683,21.523 62.683,20.851C62.683,20.067 62.93,19.423 63.425,18.919C63.919,18.415 64.587,18.163 65.427,18.163C66.267,18.163 66.91,18.378 67.359,18.807C67.806,19.237 68.031,19.787 68.031,20.459C68.031,21.261 67.779,21.91 67.275,22.404C66.771,22.899 66.061,23.146 65.147,23.146L65.119,23.146C64.391,23.147 63.803,22.933 63.355,22.503Z" style="fill:rgb(24,33,76);fill-rule:nonzero;"></path> <path d="M75.168,38.796C75.299,39.002 75.603,39.188 76.078,39.356C76.553,39.524 77.034,39.608 77.519,39.608C78.285,39.608 78.868,39.445 79.269,39.118C79.67,38.791 79.871,38.367 79.871,37.844C79.871,37.284 79.61,36.822 79.088,36.458C78.565,36.094 77.706,35.651 76.512,35.128L75.449,34.652C74.236,34.111 73.326,33.453 72.72,32.678C72.114,31.903 71.81,30.919 71.81,29.724C71.81,28.866 72.062,28.096 72.566,27.414C73.07,26.733 73.798,26.196 74.75,25.804C75.702,25.412 76.822,25.216 78.109,25.216C79.005,25.216 79.78,25.272 80.433,25.384C81.086,25.496 81.748,25.636 82.42,25.804C82.868,25.935 83.204,26.01 83.428,26.028L83.428,29.835L80.937,29.835L80.208,27.68C80.115,27.512 79.891,27.358 79.536,27.218C79.182,27.078 78.78,27.008 78.333,27.008C77.623,27.008 77.063,27.162 76.653,27.47C76.242,27.778 76.037,28.193 76.037,28.716C76.037,29.314 76.27,29.785 76.737,30.13C77.203,30.476 77.95,30.881 78.976,31.348L79.564,31.6C81.076,32.235 82.261,32.921 83.12,33.658C83.978,34.396 84.407,35.408 84.407,36.696C84.407,38.077 83.857,39.211 82.756,40.097C81.654,40.984 80.031,41.427 77.885,41.427C76.896,41.427 76.019,41.347 75.253,41.189C74.488,41.031 73.649,40.821 72.733,40.559L71.809,40.307L71.809,36.584L74.469,36.584L75.168,38.796Z" style="fill:rgb(24,33,76);fill-rule:nonzero;"></path> <path d="M88.452,40.518C87.864,39.949 87.57,39.067 87.57,37.872L87.57,27.906L85.862,27.906L85.862,26.282L86.422,26.058C86.87,25.909 87.262,25.75 87.598,25.582C87.971,25.228 88.27,24.761 88.494,24.182C88.773,23.51 89.082,22.568 89.418,21.354L92.022,21.354L92.19,25.553L96.193,25.553L96.193,27.905L92.246,27.905L92.246,35.324C92.246,36.35 92.274,37.069 92.33,37.48C92.386,37.891 92.493,38.156 92.652,38.278C92.81,38.4 93.104,38.46 93.534,38.46C94.411,38.46 95.241,38.311 96.025,38.012L96.613,39.776C96.091,40.206 95.316,40.579 94.29,40.896C93.263,41.213 92.227,41.372 91.183,41.372C89.949,41.372 89.04,41.088 88.452,40.518Z" style="fill:rgb(24,33,76);fill-rule:nonzero;"></path> <path d="M99.412,39.258C98.18,37.812 97.564,35.839 97.564,33.337C97.564,31.639 97.88,30.173 98.515,28.942C99.15,27.71 100.041,26.772 101.189,26.129C102.336,25.485 103.685,25.163 105.234,25.163C107.194,25.163 108.692,25.658 109.727,26.646C110.763,27.636 111.299,29.035 111.337,30.845C111.337,32.04 111.253,33.001 111.085,33.729L102.322,33.729C102.415,35.315 102.802,36.524 103.484,37.354C104.165,38.185 105.122,38.6 106.353,38.6C107.043,38.6 107.767,38.484 108.523,38.25C109.279,38.017 109.89,37.751 110.356,37.452L111.14,39.16C110.655,39.702 109.828,40.215 108.662,40.7C107.496,41.185 106.306,41.428 105.093,41.428C102.538,41.428 100.644,40.705 99.412,39.258ZM106.887,31.882L106.914,30.706C106.914,29.53 106.756,28.634 106.438,28.018C106.121,27.402 105.58,27.094 104.814,27.094C104.031,27.094 103.423,27.435 102.995,28.115C102.565,28.797 102.332,30.052 102.295,31.881L106.887,31.881L106.887,31.882Z" style="fill:rgb(24,33,76);fill-rule:nonzero;"></path> <path d="M113.409,39.272L115.116,39.02L115.116,28.494L113.465,27.99L113.465,25.806L118.112,25.19L118.196,25.19L118.979,25.778L118.979,26.45L118.895,28.774L118.979,28.774C119.11,28.345 119.409,27.846 119.875,27.276C120.341,26.707 120.934,26.213 121.652,25.793C122.37,25.373 123.15,25.163 123.99,25.163C124.475,25.163 124.848,25.228 125.109,25.359L125.109,30.23C124.811,30.006 124.489,29.829 124.143,29.698C123.798,29.568 123.355,29.502 122.814,29.502C122.142,29.502 121.536,29.591 120.994,29.768C120.453,29.946 120.023,30.146 119.707,30.37L119.707,39.02L122.786,39.3L122.786,41.12L113.408,41.12L113.408,39.272L113.409,39.272Z" style="fill:rgb(24,33,76);fill-rule:nonzero;"></path> <path d="M130.318,38.796C130.449,39.002 130.753,39.188 131.228,39.356C131.703,39.524 132.184,39.608 132.669,39.608C133.435,39.608 134.018,39.445 134.419,39.118C134.82,38.791 135.021,38.367 135.021,37.844C135.021,37.284 134.76,36.822 134.238,36.458C133.715,36.094 132.856,35.651 131.662,35.128L130.599,34.652C129.386,34.111 128.476,33.453 127.87,32.678C127.264,31.904 126.96,30.919 126.96,29.724C126.96,28.866 127.212,28.096 127.716,27.414C128.22,26.733 128.948,26.196 129.9,25.804C130.852,25.412 131.972,25.216 133.259,25.216C134.155,25.216 134.93,25.272 135.583,25.384C136.236,25.496 136.898,25.636 137.57,25.804C138.018,25.935 138.354,26.01 138.578,26.028L138.578,29.835L136.087,29.835L135.358,27.68C135.265,27.512 135.041,27.358 134.686,27.218C134.332,27.078 133.93,27.008 133.483,27.008C132.773,27.008 132.213,27.162 131.803,27.47C131.392,27.778 131.187,28.193 131.187,28.716C131.187,29.314 131.42,29.785 131.887,30.13C132.353,30.476 133.1,30.881 134.126,31.348L134.714,31.6C136.226,32.235 137.411,32.921 138.27,33.658C139.128,34.396 139.557,35.408 139.557,36.696C139.557,38.077 139.007,39.211 137.906,40.097C136.804,40.984 135.181,41.427 133.035,41.427C132.046,41.427 131.169,41.347 130.403,41.189C129.638,41.031 128.799,40.821 127.883,40.559L126.959,40.307L126.959,36.584L129.619,36.584L130.318,38.796Z" style="fill:rgb(24,33,76);fill-rule:nonzero;"></path> <path d="M27.818,19.125C27.784,17.711 27.688,16.302 27.529,14.912C27.419,13.953 27.137,13.015 26.956,12.063C26.877,11.65 26.823,11.226 26.817,10.806C26.81,10.313 27.087,10.084 27.569,10.192C28.013,10.291 28.455,10.434 28.873,10.615C30.535,11.334 32.033,12.308 33.411,13.489C34.413,14.347 35.259,15.324 35.978,16.421C36.874,17.786 37.398,19.289 37.624,20.901C37.905,22.903 37.657,24.872 37.26,26.834C36.875,28.739 36.621,30.66 36.677,32.606C36.73,34.439 37.105,36.2 37.919,37.864C38.889,39.845 39.776,41.863 40.265,44.029C40.512,45.126 40.626,46.224 40.18,47.305C40.167,47.338 40.157,47.372 40.145,47.405C39.802,48.308 39.374,48.494 38.519,48.019C37.874,47.661 37.255,47.246 36.663,46.805C35.009,45.572 33.122,44.935 31.12,44.581C30.583,44.486 30.038,44.435 29.495,44.379C28.712,44.299 27.95,44.412 27.196,44.629C26.756,44.756 26.31,44.866 25.86,44.947C25.125,45.079 24.502,44.607 24.654,43.741C25.035,41.571 25.388,39.396 25.75,37.223C26.236,34.302 26.736,31.384 27.195,28.459C27.673,25.407 27.894,22.251 27.818,19.125Z" style="fill:rgb(24,33,76);fill-rule:nonzero;"></path> <path d="M13.164,25.275C12.807,24.511 12.807,24.511 13.397,23.94C13.765,23.584 13.788,23.145 13.47,22.706C13.316,22.493 13.146,22.284 13.038,22.048C12.873,21.689 12.944,21.488 13.299,21.311C13.787,21.068 14.293,20.859 14.791,20.636C15.277,20.419 15.722,20.148 16.103,19.766C16.396,19.472 16.545,19.137 16.548,18.729C16.55,18.447 16.54,18.164 16.555,17.883C16.566,17.674 16.583,17.459 16.64,17.258C16.799,16.703 17.067,16.583 17.524,16.918C18.033,17.292 18.537,17.69 18.966,18.149C19.566,18.792 20.094,19.497 20.471,20.308C20.923,21.28 21.075,22.28 20.939,23.343C20.852,24.022 20.849,24.712 20.787,25.395C20.679,26.587 20.578,27.779 20.434,28.967C20.216,30.767 19.966,32.563 19.725,34.36C19.624,35.11 19.513,35.859 19.406,36.609C19.38,36.789 19.357,36.98 19.111,36.964C18.903,36.95 18.718,36.859 18.696,36.63C18.673,36.387 18.693,36.139 18.697,35.893C18.717,34.626 18.787,33.357 18.742,32.092C18.705,31.048 18.124,30.532 16.998,30.396C16.405,30.324 15.804,30.321 15.209,30.261C14.702,30.21 14.19,30.163 13.696,30.045C12.83,29.838 12.409,29.18 12.559,28.3C12.608,28.011 12.707,27.714 12.854,27.462C13.025,27.168 13.054,26.91 12.88,26.623C12.835,26.548 12.808,26.463 12.772,26.382C12.607,26.015 12.653,25.697 12.984,25.441C13.051,25.393 13.108,25.328 13.164,25.275Z" style="fill:rgb(24,33,76);fill-rule:nonzero;"></path> <path d="M19.055,12.354C18.97,11.963 19.139,11.761 19.317,11.563C20.278,10.492 22.009,10.263 23.293,11.051C24.22,11.62 24.802,12.463 25.159,13.474C25.556,14.599 25.715,15.77 25.755,16.952C25.792,18.044 25.807,19.141 25.75,20.231C25.676,21.654 25.598,23.085 25.389,24.492C24.703,29.111 23.961,33.722 23.232,38.335C22.957,40.076 22.659,41.813 22.369,43.552C22.281,44.077 22.157,44.17 21.624,44.131C20.619,44.058 20.128,43.577 20.16,42.571C20.184,41.799 20.296,41.028 20.405,40.261C20.878,36.947 21.362,33.633 21.849,30.321C22.172,28.124 22.517,25.931 22.834,23.733C23.086,21.988 23.299,20.236 23.205,18.469C23.135,17.165 22.955,15.872 22.596,14.613C22.51,14.31 22.381,14.016 22.247,13.729C21.719,12.593 20.628,12.184 19.598,12.298C19.43,12.316 19.26,12.333 19.055,12.354Z" style="fill:rgb(24,33,76);fill-rule:nonzero;"></path> <path d="M7.994,20.333C3.944,19.619 -0.131,15.519 0.003,10.121C0.15,4.201 5.066,-0.235 10.849,0.01C15.923,0.224 19.748,4.239 20.338,7.915C17.883,3.631 14.311,1.765 9.377,2.84C5.676,3.998 3.306,6.458 2.702,10.283C1.986,14.822 3.981,18.11 7.994,20.333Z" style="fill:rgb(24,33,76);fill-rule:nonzero;"></path> <path d="M21.643,19.717C21.548,19.559 21.454,19.399 21.356,19.242C20.917,18.542 20.494,17.831 20.032,17.146C19.735,16.706 19.335,16.366 18.854,16.11C18.549,15.947 18.259,15.726 18.019,15.476C17.507,14.942 17.505,14.305 17.965,13.765C18.411,13.241 19.066,13.157 19.668,13.581C20.241,13.984 20.664,14.527 20.946,15.166C21.412,16.222 21.694,17.326 21.748,18.484C21.757,18.677 21.8,18.868 21.81,19.061C21.821,19.262 21.812,19.464 21.812,19.666C21.758,19.684 21.701,19.7 21.643,19.717Z" style="fill:rgb(24,33,76);fill-rule:nonzero;"></path> </svg> 