<?xml version="1.0" encoding="UTF-8" standalone="no"?> <svg xmlns="http://www.w3.org/2000/svg" xmlns:xlink="http://www.w3.org/1999/xlink" xmlns:serif="http://www.serif.com/" width="100%" height="100%" viewBox="0 0 1920 950" version="1.1" xml:space="preserve" style="fill-rule:evenodd;clip-rule:evenodd;stroke-miterlimit:10;"> <rect x="0" y="0" width="1920" height="950" style="fill:url(#_Linear1);"></rect> <path d="M988.208,850.556C999.259,842.082 1044.05,823.036 1045.13,810.672C1046.2,798.308 1026.79,793.356 1014.14,798.937C984.083,812.199 969.062,865.237 988.208,850.556Z" style="fill:white;fill-rule:nonzero;"></path> <path d="M1920.54,949.567L1920.54,756.857C1904.37,748.486 1880.62,742.745 1845.97,742.486C1711.97,741.486 1593.97,836.486 1443.97,877.486C1293.97,918.486 1263.97,822.486 1142.97,820.486C1053.74,819.011 950.373,904.549 902.244,949.566L1920.54,949.566L1920.54,949.567Z" style="fill:white;fill-rule:nonzero;"></path> <path d="M1494.85,522.437C1413.98,716.136 1557.94,932.919 1920.11,723.614M1523.22,469.397C1515.26,481.438 1508.25,493.751 1502.18,506.215M1420.91,254.651C1601.42,235.468 1637.87,295.381 1533.02,454.76M1374.79,260.767C1385.76,259.058 1396.31,257.574 1406.45,256.318M1118.79,0.355C1104.41,79 1071.91,327.071 1243.5,287C1284.88,277.337 1322.54,269.562 1356.5,263.758" style="fill:none;stroke:rgb(23,32,75);stroke-width:1px;"></path> <path d="M1527,487.5C1521.67,490.833 1523.67,493.5 1527,492.5C1530.33,491.5 1532.33,484.167 1527,487.5ZM1500,467.5C1496.53,466.807 1494.5,472.5 1496,474.5C1497.5,476.5 1502.5,468 1500,467.5ZM1528,505.5C1526,505 1527,510.5 1529,512.5C1531,514.5 1532.78,506.694 1528,505.5ZM1551,478.5C1548.33,475.167 1545.33,477.5 1543,479.5C1540.67,481.5 1538.67,484.5 1542,484.5C1545.33,484.5 1553.91,482.144 1551,478.5ZM1508,480.5C1502.54,481.28 1506.33,482.166 1508,482.5C1509.67,482.833 1510.33,480.167 1508,480.5ZM1528,439.5C1529.67,436.167 1525.67,436.167 1525,437.5C1523.59,440.328 1526.33,442.833 1528,439.5ZM1477,523.5C1475.34,523.5 1474,525.515 1474,528C1474,530.485 1477.34,533.5 1479,533.5C1480.66,533.5 1480,530.485 1480,528C1480,525.515 1478.66,523.5 1477,523.5ZM1475,542.5C1473.89,542.5 1473,543.843 1473,545.5C1473,547.157 1473.89,548.5 1475,548.5C1476.11,548.5 1477,547.157 1477,545.5C1477,543.843 1476.11,542.5 1475,542.5ZM1472.5,555.5C1471.67,555.5 1471,555.948 1471,556.5C1471,557.053 1471.67,557.5 1472.5,557.5C1473.33,557.5 1474,557.052 1474,556.5C1474,555.948 1473.33,555.5 1472.5,555.5ZM1463.5,539.5C1462.12,539.5 1461,540.843 1461,542.5C1461,544.157 1462.12,545.5 1463.5,545.5C1464.88,545.5 1467,544.157 1467,542.5C1467,540.843 1464.88,539.5 1463.5,539.5ZM1498.5,533.5C1497.67,533.5 1497,534.172 1497,535C1497,535.829 1497.67,536.5 1498.5,536.5C1499.33,536.5 1500,535.828 1500,535C1500,534.172 1499.33,533.5 1498.5,533.5Z" style="fill:rgb(23,32,75);"></path> <path d="M1920,99.626C1871.28,134.609 1815.54,194.064 1791.04,291.022C1748.27,460.332 1815.08,564.525 1920,567.521L1920,99.626Z" style="fill:rgb(255,123,180);fill-rule:nonzero;"></path> <path d="M1717.12,194.211C1705.41,219.899 1714.99,259.69 1740.22,257.824C1765.45,255.957 1805.45,164.968 1823.02,142.619C1853.45,103.903 1744.95,133.174 1717.12,194.211Z" style="fill:rgb(255,123,180);fill-rule:nonzero;"></path> <path d="M1749.72,147.464C1749.79,148.065 1750.73,147.962 1750.66,147.36C1750.6,146.76 1749.66,146.863 1749.72,147.464Z" style="fill:rgb(24,33,76);fill-rule:nonzero;"></path> <path d="M1745.8,157.685C1746.02,159.671 1749.13,159.331 1748.92,157.342C1748.7,155.356 1745.58,155.696 1745.8,157.685Z" style="fill:rgb(24,33,76);fill-rule:nonzero;"></path> <path d="M1736.5,168.5C1736.81,171.271 1741.15,170.797 1740.84,168.021C1740.54,165.25 1736.19,165.724 1736.5,168.5Z" style="fill:rgb(24,33,76);fill-rule:nonzero;"></path> <path d="M1726.58,192.832C1726.88,195.603 1731.23,195.129 1730.92,192.353C1730.62,189.582 1726.27,190.056 1726.58,192.832Z" style="fill:rgb(24,33,76);fill-rule:nonzero;"></path> <path d="M1716.77,215.073C1719.34,217.295 1722.82,213.281 1720.26,211.056C1717.69,208.834 1714.2,212.847 1716.77,215.073Z" style="fill:rgb(24,33,76);fill-rule:nonzero;"></path> <path d="M1711.08,232.229C1713.54,234.36 1716.88,230.511 1714.42,228.377C1711.96,226.247 1708.62,230.095 1711.08,232.229Z" style="fill:rgb(24,33,76);fill-rule:nonzero;"></path> <path d="M1716.99,236.575C1716.58,237.085 1716.17,237.595 1715.76,238.105C1715.54,238.343 1715.39,238.617 1715.31,238.926C1715.19,239.21 1715.15,239.508 1715.18,239.82C1715.19,240.134 1715.27,240.422 1715.43,240.685C1715.55,240.98 1715.73,241.229 1715.98,241.432C1716.16,241.547 1716.33,241.662 1716.51,241.777C1716.88,241.953 1717.28,242.025 1717.69,241.995C1717.89,241.955 1718.08,241.914 1718.28,241.873C1718.68,241.733 1719.02,241.502 1719.31,241.18C1719.75,240.702 1720.2,240.223 1720.64,239.745C1720.88,239.5 1721.03,239.217 1721.1,238.898C1721.23,238.606 1721.27,238.298 1721.24,237.977C1721.23,237.654 1721.14,237.357 1720.98,237.086C1720.86,236.782 1720.67,236.525 1720.41,236.317C1720.23,236.198 1720.05,236.08 1719.87,235.961C1719.49,235.78 1719.08,235.705 1718.65,235.736C1718.45,235.778 1718.25,235.82 1718.04,235.862C1717.63,236.005 1717.28,236.243 1716.99,236.575Z" style="fill:rgb(24,33,76);fill-rule:nonzero;"></path> <path d="M1713.93,246.769C1715.72,248.321 1718.15,245.518 1716.36,243.963C1714.57,242.41 1712.13,245.214 1713.93,246.769Z" style="fill:rgb(24,33,76);fill-rule:nonzero;"></path> <path d="M673.537,767.991C673.537,767.991 515.814,691.521 288.537,789.991C131.44,858.054 40.582,799.864 0.436,759.236" style="fill:none;stroke:rgb(23,32,75);stroke-width:1px;stroke-linecap:round;"></path> <path d="M1429.5,244.5C1428.4,244.5 1427.5,245.172 1427.5,246C1427.5,246.828 1428.39,247.5 1429.5,247.5C1430.61,247.5 1431.5,246.828 1431.5,246C1431.5,245.171 1430.6,244.5 1429.5,244.5ZM1440.5,258.5C1438.84,258.5 1437.5,259.62 1437.5,261C1437.5,262.38 1438.84,265.5 1440.5,265.5C1442.16,265.5 1443.5,262.38 1443.5,261C1443.5,259.62 1442.16,258.5 1440.5,258.5ZM1428,258.5C1427.17,258.5 1426.5,258.948 1426.5,259.5C1426.5,260.052 1427.17,260.5 1428,260.5C1428.83,260.5 1429.5,260.052 1429.5,259.5C1429.5,258.947 1428.83,258.5 1428,258.5ZM1471.5,242.5C1470.39,242.5 1469.5,243.172 1469.5,244C1469.5,244.828 1470.4,245.5 1471.5,245.5C1472.6,245.5 1474.5,244.828 1474.5,244C1474.5,243.171 1472.61,242.5 1471.5,242.5Z" style="fill:rgb(23,32,75);"></path> <path d="M1388.09,265.163C1389.16,269.583 1386.44,274.03 1382.02,275.097L1368.41,278.378C1363.99,279.444 1359.55,276.726 1358.48,272.305L1355.2,258.7C1354.13,254.28 1356.85,249.833 1361.27,248.766L1374.88,245.484C1379.3,244.418 1383.74,247.137 1384.81,251.557" style="fill:none;stroke:rgb(23,32,75);stroke-width:1px;stroke-linecap:round;"></path> <path d="M1395.13,251.773C1394.59,248.112 1397.12,244.711 1400.79,244.178L1412.05,242.536C1415.71,242.002 1419.11,244.538 1419.65,248.199L1421.3,259.468C1421.84,263.129 1419.3,266.53 1415.64,267.063L1404.38,268.706C1400.72,269.239 1397.31,266.704 1396.78,263.043" style="fill:none;stroke:rgb(23,32,75);stroke-width:1px;stroke-linecap:round;"></path> <path d="M1510.24,475.81C1506.28,473.685 1504.79,468.754 1506.92,464.796L1513.46,452.614C1515.59,448.657 1520.53,447.171 1524.49,449.296L1536.68,455.837C1540.64,457.962 1542.12,462.893 1540,466.851L1533.45,479.033C1531.33,482.991 1526.39,484.476 1522.43,482.351" style="fill:none;stroke:rgb(23,32,75);stroke-width:1px;stroke-linecap:round;"></path> <path d="M1517.56,492.01C1522.64,494.167 1525.02,500.037 1522.86,505.121L1516.22,520.771C1514.07,525.855 1508.2,528.229 1503.11,526.073L1487.46,519.435C1482.38,517.279 1480,511.409 1482.16,506.324L1488.8,490.673C1490.95,485.588 1496.82,483.215 1501.91,485.371" style="fill:none;stroke:rgb(23,32,75);stroke-width:1px;stroke-linecap:round;"></path> <defs> <linearGradient id="_Linear1" x1="0" y1="0" x2="1" y2="0" gradientUnits="userSpaceOnUse" gradientTransform="matrix(5.81707e-14,-950,950,5.81707e-14,960,950)"><stop offset="0" style="stop-color:rgb(248,249,252);stop-opacity:1"></stop><stop offset="1" style="stop-color:white;stop-opacity:1"></stop></linearGradient> </defs> </svg> 