<?xml version="1.0" encoding="UTF-8" standalone="no"?> <svg xmlns="http://www.w3.org/2000/svg" xmlns:xlink="http://www.w3.org/1999/xlink" xmlns:serif="http://www.serif.com/" width="100%" height="100%" viewBox="0 0 169 38" version="1.1" xml:space="preserve" style="fill-rule:evenodd;clip-rule:evenodd;stroke-linejoin:round;stroke-miterlimit:1.41421;"> <path d="M43.809,32.183L44.592,32.183L44.592,29.292L47.394,29.292L47.394,28.598L44.592,28.598L44.592,26.414L47.685,26.414L47.685,25.72L43.809,25.72L43.809,32.183Z" style="fill:rgb(23,32,75);fill-rule:nonzero;"></path> <path d="M53.094,26.036C52.665,25.767 52.175,25.632 51.623,25.632C51.072,25.632 50.582,25.767 50.152,26.036C49.723,26.305 49.385,26.688 49.139,27.185C48.893,27.682 48.77,28.271 48.77,28.952C48.77,29.634 48.893,30.223 49.139,30.719C49.385,31.216 49.723,31.599 50.152,31.868C50.581,32.137 51.071,32.272 51.623,32.272C52.174,32.272 52.664,32.137 53.094,31.868C53.523,31.599 53.861,31.216 54.107,30.719C54.353,30.223 54.476,29.634 54.476,28.952C54.476,28.27 54.353,27.681 54.107,27.185C53.861,26.688 53.523,26.305 53.094,26.036ZM53.439,30.368C53.253,30.753 53.001,31.044 52.685,31.242C52.368,31.44 52.014,31.539 51.623,31.539C51.232,31.539 50.878,31.44 50.561,31.242C50.244,31.044 49.993,30.753 49.807,30.368C49.621,29.983 49.528,29.511 49.528,28.951C49.528,28.391 49.621,27.919 49.807,27.534C49.993,27.149 50.245,26.858 50.561,26.66C50.878,26.462 51.232,26.363 51.623,26.363C52.014,26.363 52.368,26.462 52.685,26.66C53.002,26.858 53.253,27.149 53.439,27.534C53.625,27.919 53.718,28.391 53.718,28.951C53.719,29.511 53.626,29.983 53.439,30.368Z" style="fill:rgb(23,32,75);fill-rule:nonzero;"></path> <path d="M59.219,29.407C59.541,29.24 59.78,29.009 59.935,28.714C60.091,28.42 60.169,28.082 60.169,27.701C60.169,27.32 60.091,26.98 59.935,26.682C59.779,26.383 59.539,26.148 59.215,25.976C58.891,25.805 58.477,25.719 57.972,25.719L55.788,25.719L55.788,32.182L56.571,32.182L56.571,29.657L57.985,29.657C58.042,29.657 58.093,29.652 58.147,29.65L59.512,32.182L60.421,32.182L58.961,29.516C59.053,29.486 59.139,29.449 59.219,29.407ZM56.57,26.414L57.947,26.414C58.296,26.414 58.577,26.467 58.79,26.574C59.002,26.68 59.157,26.83 59.254,27.024C59.351,27.218 59.399,27.444 59.399,27.703C59.399,27.962 59.351,28.184 59.255,28.37C59.159,28.556 59.006,28.7 58.794,28.801C58.583,28.902 58.304,28.952 57.959,28.952L56.57,28.952L56.57,26.414Z" style="fill:rgb(23,32,75);fill-rule:nonzero;"></path> <path d="M64.751,29.292L67.667,29.292L67.667,28.598L64.751,28.598L64.751,26.414L67.869,26.414L67.869,25.72L63.969,25.72L63.969,32.183L67.92,32.183L67.92,31.489L64.751,31.489L64.751,29.292Z" style="fill:rgb(23,32,75);fill-rule:nonzero;"></path> <path d="M71.543,31.161L71.467,31.161L69.548,25.72L68.728,25.72L71.101,32.183L71.909,32.183L74.282,25.72L73.461,25.72L71.543,31.161Z" style="fill:rgb(23,32,75);fill-rule:nonzero;"></path> <path d="M76.074,29.292L78.99,29.292L78.99,28.598L76.074,28.598L76.074,26.414L79.192,26.414L79.192,25.72L75.292,25.72L75.292,32.183L79.243,32.183L79.243,31.489L76.074,31.489L76.074,29.292Z" style="fill:rgb(23,32,75);fill-rule:nonzero;"></path> <path d="M84.037,29.407C84.359,29.24 84.598,29.009 84.753,28.714C84.908,28.42 84.986,28.082 84.986,27.701C84.986,27.32 84.908,26.98 84.753,26.682C84.597,26.383 84.357,26.148 84.033,25.976C83.709,25.805 83.295,25.719 82.79,25.719L80.606,25.719L80.606,32.182L81.389,32.182L81.389,29.657L82.803,29.657C82.86,29.657 82.911,29.652 82.966,29.65L84.331,32.182L85.24,32.182L83.779,29.516C83.87,29.486 83.956,29.449 84.037,29.407ZM81.388,26.414L82.765,26.414C83.114,26.414 83.395,26.467 83.608,26.574C83.82,26.68 83.975,26.83 84.072,27.024C84.169,27.218 84.217,27.444 84.217,27.703C84.217,27.962 84.169,28.184 84.073,28.37C83.977,28.556 83.824,28.7 83.612,28.801C83.4,28.902 83.122,28.952 82.777,28.952L81.388,28.952L81.388,26.414Z" style="fill:rgb(23,32,75);fill-rule:nonzero;"></path> <path d="M88.496,28.737L88.42,28.737L86.628,25.72L85.731,25.72L88.067,29.519L88.067,32.183L88.849,32.183L88.849,29.519L91.185,25.72L90.288,25.72L88.496,28.737Z" style="fill:rgb(23,32,75);fill-rule:nonzero;"></path> <path d="M94.454,26.793L94.454,27.588L96.032,26.54L96.07,26.54L96.07,32.183L96.852,32.183L96.852,25.72L96.07,25.72L94.454,26.793Z" style="fill:rgb(23,32,75);fill-rule:nonzero;"></path> <path d="M102.026,26.024C101.691,25.762 101.287,25.631 100.816,25.631C100.345,25.631 99.941,25.762 99.606,26.024C99.271,26.286 99.014,26.665 98.836,27.16C98.658,27.656 98.569,28.252 98.569,28.951C98.569,29.654 98.658,30.253 98.834,30.748C99.011,31.243 99.266,31.621 99.601,31.881C99.935,32.141 100.341,32.271 100.816,32.271C101.291,32.271 101.696,32.141 102.031,31.881C102.365,31.621 102.621,31.244 102.798,30.748C102.975,30.252 103.063,29.653 103.063,28.951C103.063,28.253 102.974,27.656 102.796,27.16C102.619,26.665 102.362,26.286 102.026,26.024ZM101.914,30.895C101.653,31.349 101.287,31.577 100.816,31.577C100.502,31.577 100.235,31.475 100.013,31.271C99.791,31.067 99.621,30.769 99.504,30.378C99.386,29.987 99.327,29.511 99.327,28.951C99.327,28.112 99.458,27.462 99.721,27.002C99.984,26.542 100.349,26.313 100.816,26.313C101.127,26.313 101.394,26.416 101.616,26.622C101.838,26.828 102.008,27.128 102.127,27.521C102.246,27.914 102.305,28.391 102.305,28.951C102.306,29.793 102.175,30.441 101.914,30.895Z" style="fill:rgb(23,32,75);fill-rule:nonzero;"></path> <path d="M107.658,25.72L106.875,25.72L106.875,32.183L110.662,32.183L110.662,31.489L107.658,31.489L107.658,25.72Z" style="fill:rgb(23,32,75);fill-rule:nonzero;"></path> <rect x="111.874" y="25.72" width="0.783" height="6.463" style="fill:rgb(23,32,75);"></rect> <path d="M118.577,30.807L118.514,30.807L114.979,25.72L114.222,25.72L114.222,32.183L115.004,32.183L115.004,27.108L115.068,27.108L118.59,32.183L119.347,32.183L119.347,25.72L118.577,25.72L118.577,30.807Z" style="fill:rgb(23,32,75);fill-rule:nonzero;"></path> <path d="M124.674,25.72L121.771,28.926L121.695,28.926L121.695,25.72L120.912,25.72L120.912,32.183L121.695,32.183L121.695,30.088L122.503,29.179L124.75,32.183L125.696,32.183L122.982,28.636L125.696,25.72L124.674,25.72Z" style="fill:rgb(23,32,75);fill-rule:nonzero;"></path> <path d="M130.429,29.149C130.239,29.015 130.04,28.91 129.833,28.832C129.626,28.754 129.438,28.693 129.27,28.649L128.613,28.472C128.493,28.44 128.362,28.399 128.219,28.347C128.076,28.296 127.939,28.229 127.809,28.148C127.679,28.067 127.572,27.965 127.489,27.842C127.406,27.719 127.364,27.571 127.364,27.398C127.364,27.192 127.423,27.008 127.542,26.846C127.661,26.684 127.827,26.557 128.041,26.464C128.254,26.371 128.504,26.325 128.79,26.325C129.181,26.325 129.512,26.413 129.781,26.59C130.05,26.767 130.204,27.015 130.242,27.335L131,27.335C130.989,27.009 130.889,26.717 130.699,26.461C130.509,26.204 130.251,26.002 129.927,25.853C129.603,25.705 129.233,25.631 128.816,25.631C128.404,25.631 128.031,25.706 127.697,25.857C127.363,26.007 127.098,26.218 126.902,26.488C126.705,26.758 126.607,27.075 126.607,27.436C126.607,27.872 126.754,28.224 127.049,28.493C127.343,28.762 127.743,28.97 128.248,29.115L129.043,29.342C129.27,29.405 129.482,29.479 129.677,29.563C129.873,29.647 130.03,29.757 130.15,29.891C130.27,30.026 130.33,30.2 130.33,30.415C130.33,30.651 130.261,30.856 130.122,31.032C129.983,31.208 129.795,31.344 129.557,31.442C129.319,31.54 129.051,31.589 128.752,31.589C128.495,31.589 128.256,31.551 128.034,31.474C127.812,31.397 127.629,31.28 127.485,31.121C127.341,30.962 127.258,30.761 127.237,30.517L126.429,30.517C126.454,30.87 126.563,31.181 126.756,31.448C126.949,31.715 127.213,31.923 127.551,32.073C127.889,32.222 128.289,32.297 128.752,32.297C129.249,32.297 129.671,32.214 130.019,32.048C130.367,31.882 130.632,31.658 130.814,31.376C130.996,31.094 131.087,30.779 131.087,30.429C131.087,30.126 131.025,29.871 130.901,29.662C130.776,29.453 130.619,29.282 130.429,29.149Z" style="fill:rgb(23,32,75);fill-rule:nonzero;"></path> <path d="M138.664,29.059C138.464,28.933 138.265,28.863 138.068,28.851L138.068,28.788C138.253,28.737 138.425,28.66 138.584,28.554C138.743,28.449 138.871,28.306 138.969,28.125C139.067,27.944 139.115,27.715 139.115,27.437C139.115,27.121 139.044,26.834 138.9,26.574C138.757,26.314 138.539,26.107 138.247,25.952C137.955,25.797 137.583,25.72 137.133,25.72L134.873,25.72L134.873,32.183L137.208,32.183C137.717,32.183 138.131,32.107 138.448,31.956C138.766,31.804 138.998,31.599 139.145,31.341C139.292,31.082 139.366,30.791 139.366,30.467C139.366,30.126 139.298,29.838 139.164,29.602C139.031,29.366 138.864,29.185 138.664,29.059ZM135.656,26.414L137.133,26.414C137.562,26.414 137.876,26.513 138.074,26.712C138.272,26.911 138.371,27.152 138.371,27.436C138.371,27.663 138.315,27.861 138.202,28.029C138.09,28.197 137.938,28.328 137.748,28.42C137.558,28.513 137.345,28.559 137.109,28.559L135.657,28.559L135.657,26.414L135.656,26.414ZM138.299,31.19C138.083,31.389 137.72,31.488 137.208,31.488L135.655,31.488L135.655,29.241L137.246,29.241C137.528,29.241 137.772,29.297 137.978,29.41C138.184,29.522 138.343,29.672 138.455,29.858C138.567,30.044 138.622,30.247 138.622,30.466C138.623,30.75 138.515,30.992 138.299,31.19Z" style="fill:rgb(23,32,75);fill-rule:nonzero;"></path> <path d="M144.896,29.936C144.896,30.252 144.827,30.532 144.689,30.777C144.551,31.022 144.353,31.215 144.094,31.355C143.835,31.495 143.526,31.565 143.166,31.565C142.806,31.565 142.497,31.495 142.24,31.355C141.982,31.215 141.784,31.023 141.645,30.777C141.506,30.532 141.437,30.251 141.437,29.936L141.437,25.72L140.654,25.72L140.654,29.999C140.654,30.441 140.758,30.835 140.965,31.181C141.172,31.527 141.464,31.8 141.841,31.998C142.218,32.197 142.659,32.296 143.166,32.296C143.673,32.296 144.115,32.197 144.492,31.998C144.869,31.799 145.161,31.527 145.368,31.181C145.575,30.835 145.679,30.441 145.679,29.999L145.679,25.72L144.896,25.72L144.896,29.936Z" style="fill:rgb(23,32,75);fill-rule:nonzero;"></path> <rect x="147.244" y="25.72" width="0.783" height="6.463" style="fill:rgb(23,32,75);"></rect> <path d="M150.375,25.72L149.592,25.72L149.592,32.183L153.379,32.183L153.379,31.489L150.375,31.489L150.375,25.72Z" style="fill:rgb(23,32,75);fill-rule:nonzero;"></path> <path d="M153.379,26.414L155.412,26.414L155.412,32.183L156.194,32.183L156.194,26.414L158.227,26.414L158.227,25.72L153.379,25.72L153.379,26.414Z" style="fill:rgb(23,32,75);fill-rule:nonzero;"></path> <path d="M46.445,21.1C47.726,21.1 48.714,20.573 49.409,19.518C50.104,18.463 50.452,16.96 50.452,15.008L50.452,12.404C50.436,10.478 50.076,8.996 49.373,7.958C48.67,6.92 47.689,6.401 46.43,6.401C45.166,6.401 44.181,6.943 43.475,8.027C42.769,9.111 42.416,10.61 42.416,12.522L42.416,15.214C42.443,17.087 42.814,18.537 43.528,19.562C44.241,20.587 45.214,21.1 46.445,21.1ZM43.909,12.444C43.914,10.99 44.129,9.889 44.553,9.143C44.977,8.396 45.602,8.023 46.429,8.023C47.283,8.023 47.916,8.391 48.329,9.128C48.742,9.865 48.949,10.99 48.949,12.503L48.949,15.185C48.932,16.646 48.722,17.73 48.317,18.437C47.912,19.144 47.288,19.498 46.445,19.498C45.602,19.498 44.969,19.115 44.545,18.348C44.121,17.582 43.909,16.468 43.909,15.007L43.909,12.444Z" style="fill:rgb(23,32,75);fill-rule:nonzero;"></path> <path d="M59.088,17.671L54.285,6.597L52.775,6.597L52.775,20.903L54.285,20.903L54.285,9.879L59.071,20.903L60.582,20.903L60.582,6.597L59.088,6.597L59.088,17.671Z" style="fill:rgb(23,32,75);fill-rule:nonzero;"></path> <path d="M69.612,19.361L64.687,19.361L64.687,14.291L68.914,14.291L68.914,12.748L64.687,12.748L64.687,8.14L69.53,8.14L69.53,6.597L63.184,6.597L63.184,20.903L69.612,20.903L69.612,19.361Z" style="fill:rgb(23,32,75);fill-rule:nonzero;"></path> <path d="M70.663,9.005L73.569,9.005L73.569,20.903L75.991,20.903L75.991,9.005L78.946,9.005L78.946,6.597L70.663,6.597L70.663,9.005Z" style="fill:rgb(23,32,75);fill-rule:nonzero;"></path> <path d="M82.756,15.676L83.954,15.676L85.752,20.903L88.346,20.903L88.346,20.765L86.253,14.909C87.408,14.149 87.985,12.82 87.985,10.92C87.985,9.538 87.655,8.472 86.996,7.722C86.336,6.972 85.402,6.597 84.193,6.597L80.343,6.597L80.343,20.903L82.757,20.903L82.757,15.676L82.756,15.676ZM82.756,9.005L84.168,9.005C85.104,9.005 85.572,9.722 85.572,11.157C85.572,11.799 85.451,12.311 85.211,12.695C84.97,13.078 84.609,13.27 84.127,13.27L82.756,13.27L82.756,9.005Z" style="fill:rgb(23,32,75);fill-rule:nonzero;"></path> <path d="M92.057,14.713L95.817,14.713L95.817,12.385L92.057,12.385L92.057,9.005L96.49,9.005L96.49,6.597L89.643,6.597L89.643,20.903L96.506,20.903L96.506,18.506L92.057,18.506L92.057,14.713Z" style="fill:rgb(23,32,75);fill-rule:nonzero;"></path> <path d="M100.307,14.713L104.067,14.713L104.067,12.385L100.307,12.385L100.307,9.005L104.74,9.005L104.74,6.597L97.894,6.597L97.894,20.903L104.757,20.903L104.757,18.506L100.307,18.506L100.307,14.713Z" style="fill:rgb(23,32,75);fill-rule:nonzero;"></path> <path d="M112.901,7.791C112.266,6.995 111.393,6.597 110.282,6.597L106.473,6.597L106.473,20.903L107.975,20.903L107.975,15.303L110.388,15.303C111.488,15.277 112.34,14.892 112.945,14.149C113.55,13.406 113.852,12.346 113.852,10.97C113.853,9.647 113.535,8.587 112.901,7.791ZM111.817,13.042C111.461,13.521 110.949,13.76 110.282,13.76L107.975,13.76L107.975,8.14L110.29,8.14C110.93,8.14 111.434,8.399 111.801,8.918C112.167,9.436 112.351,10.125 112.351,10.985C112.351,11.877 112.173,12.563 111.817,13.042Z" style="fill:rgb(23,32,75);fill-rule:nonzero;"></path> <path d="M121.988,19.361L117.301,19.361L117.301,6.597L115.79,6.597L115.79,20.903L121.988,20.903L121.988,19.361Z" style="fill:rgb(23,32,75);fill-rule:nonzero;"></path> <path d="M126.848,6.597L122.998,20.903L124.541,20.903L125.469,17.16L129.508,17.16L130.452,20.903L131.995,20.903L128.137,6.597L126.848,6.597ZM125.863,15.617L127.489,9.113L129.123,15.617L125.863,15.617Z" style="fill:rgb(23,32,75);fill-rule:nonzero;"></path> <path d="M135.131,9.879L139.918,20.903L141.428,20.903L141.428,6.597L139.934,6.597L139.934,17.671L135.131,6.597L133.621,6.597L133.621,20.903L135.131,20.903L135.131,9.879Z" style="fill:rgb(23,32,75);fill-rule:nonzero;"></path> <path d="M150.779,6.597L142.996,6.597L142.996,8.14L146.132,8.14L146.132,20.903L147.634,20.903L147.634,8.14L150.779,8.14L150.779,6.597Z" style="fill:rgb(23,32,75);fill-rule:nonzero;"></path> <path d="M154.046,14.291L158.274,14.291L158.274,12.748L154.046,12.748L154.046,8.14L158.889,8.14L158.889,6.597L152.544,6.597L152.544,20.903L158.972,20.903L158.972,19.361L154.046,19.361L154.046,14.291Z" style="fill:rgb(23,32,75);fill-rule:nonzero;"></path> <path d="M166.992,8.165C166.22,7.12 165.137,6.598 163.741,6.598L160.893,6.598L160.893,20.904L163.569,20.904C165.058,20.904 166.193,20.388 166.976,19.357C167.759,18.326 168.15,16.863 168.15,14.97L168.15,12.573C168.15,10.678 167.764,9.209 166.992,8.165ZM166.664,15.053C166.653,16.476 166.404,17.549 165.917,18.274C165.43,18.998 164.658,19.361 163.602,19.361L162.395,19.361L162.395,8.14L163.741,8.14C164.721,8.14 165.453,8.492 165.937,9.197C166.421,9.902 166.664,11.008 166.664,12.516L166.664,15.053Z" style="fill:rgb(23,32,75);fill-rule:nonzero;"></path> <path d="M19,0C8.507,0 0,8.507 0,19C0,29.493 8.507,38 19,38C29.493,38 38,29.493 38,19C38,8.507 29.493,0 19,0ZM31.559,30.213C31.279,30.515 30.991,30.81 30.697,31.099C28.435,33.319 28.44,33.307 25.615,31.936C24.025,31.164 22.418,30.425 20.809,29.691C20.029,29.335 19.711,28.791 19.587,27.907C18.583,20.752 18.702,13.575 19.027,6.389C19.04,6.103 18.99,5.815 18.97,5.527C18.863,5.517 18.756,5.507 18.65,5.496C18.456,6.68 18.209,7.859 18.077,9.05C17.496,14.293 17.305,19.542 17.884,24.802C18.019,26.029 18.093,27.264 18.16,28.497C18.173,28.745 18.108,29.099 17.941,29.239C16.419,30.512 15.143,32.195 12.893,32.288C12.4,32.308 11.807,32.371 11.447,32.653C10.233,33.601 9.354,32.99 8.443,32.198C2.904,27.386 0.748,21.376 2.807,14.312C4.843,7.323 9.808,3.298 17,2.22C23.733,1.211 30.772,5.038 33.984,11.264C37.187,17.475 36.198,25.212 31.559,30.213Z" style="fill:rgb(23,32,75);fill-rule:nonzero;"></path> <path d="M19.997,24.091C22.965,23.283 24.381,20.859 26.041,18.139C24.487,18.548 23.155,18.724 21.975,19.245C19.66,20.268 19.086,21.834 19.997,24.091Z" style="fill:rgb(23,32,75);fill-rule:nonzero;"></path> <path d="M9.639,16.253C12.239,18.11 14.846,19.973 17.376,21.781C17.277,18.336 13.702,15.713 9.639,16.253Z" style="fill:rgb(23,32,75);fill-rule:nonzero;"></path> <path d="M13.474,8.059C14.268,9.757 15.352,11.052 17.243,11.709C18.017,9.438 16.194,7.715 13.474,8.059Z" style="fill:rgb(23,32,75);fill-rule:nonzero;"></path> <path d="M19.298,12.056C20.898,11.037 22.534,9.996 24.243,8.908C21.124,8.422 18.753,10.377 19.298,12.056Z" style="fill:rgb(23,32,75);fill-rule:nonzero;"></path> </svg> 