<?xml version="1.0" encoding="UTF-8" standalone="no"?> <svg xmlns="http://www.w3.org/2000/svg" xmlns:xlink="http://www.w3.org/1999/xlink" xmlns:serif="http://www.serif.com/" width="100%" height="100%" viewBox="0 0 119 38" version="1.1" xml:space="preserve" style="fill-rule:evenodd;clip-rule:evenodd;stroke-linejoin:round;stroke-miterlimit:1.41421;"> <path d="M97.003,15.168C97.005,15.309 97.068,15.486 97.166,15.584C97.861,16.283 99.367,16.52 100.213,15.729C100.49,15.471 100.753,15.159 100.912,14.82C101.611,13.324 101.634,11.792 101.025,10.259C100.803,9.7 100.463,9.216 99.934,8.901C99.1,8.405 97.806,8.58 97.135,9.285C97.045,9.379 96.996,9.55 96.994,9.686C96.982,10.592 96.988,11.498 96.988,12.404C96.991,12.404 96.993,12.404 96.996,12.404C96.996,13.325 96.989,14.246 97.003,15.168Z" style="fill:none;"></path> <path d="M99.289,33.157C99.031,33.198 98.781,33.234 98.539,33.263C98.297,33.293 98.101,33.317 97.951,33.337C97.588,33.384 97.251,33.46 96.938,33.565C96.625,33.669 96.373,33.825 96.182,34.032C95.991,34.239 95.895,34.52 95.895,34.874C95.895,35.358 96.075,35.724 96.436,35.97C96.796,36.216 97.254,36.339 97.809,36.339C98.36,36.339 98.826,36.231 99.206,36.014C99.586,35.797 99.873,35.518 100.068,35.175C100.263,34.832 100.36,34.472 100.36,34.094L100.36,32.818C100.301,32.889 100.172,32.953 99.973,33.01C99.776,33.067 99.547,33.116 99.289,33.157Z" style="fill:none;"></path> <path d="M41.844,20.019C42.004,20.036 42.157,20.046 42.3,20.046C42.149,20.046 41.996,20.024 41.844,20.019Z" style="fill:none;"></path> <path d="M7.882,20.046C6.79,20.04 5.752,19.812 4.809,19.402C5.755,19.816 6.794,20.046 7.882,20.046Z" style="fill:none;"></path> <path d="M115.239,29.787C114.867,29.554 114.429,29.438 113.925,29.438C113.37,29.438 112.89,29.575 112.487,29.849C112.083,30.123 111.773,30.478 111.557,30.915C111.372,31.288 111.283,31.689 111.256,32.108L116.407,32.108C116.407,31.596 116.305,31.139 116.103,30.737C115.899,30.336 115.611,30.019 115.239,29.787Z" style="fill:none;"></path> <path d="M111.392,8.549C110.503,9.001 110.212,9.805 110.142,10.731C110.128,10.914 110.244,10.954 110.399,10.953C111.013,10.951 111.627,10.952 112.241,10.952C112.855,10.952 113.469,10.951 114.083,10.953C114.246,10.954 114.385,10.916 114.345,10.719C114.26,10.306 114.214,9.871 114.047,9.49C113.586,8.441 112.401,8.035 111.392,8.549Z" style="fill:none;"></path> <path d="M0,11.816C0,11.85 0.002,11.883 0.003,11.917C0.003,11.883 0.007,11.85 0.008,11.816L0,11.816Z" style="fill:rgb(53,61,98);fill-rule:nonzero;"></path> <path d="M41.853,3.916C42.002,3.911 42.151,3.89 42.3,3.89C42.16,3.89 42.01,3.899 41.853,3.916Z" style="fill:rgb(53,61,98);fill-rule:nonzero;"></path> <path d="M7.882,3.89C8.097,3.898 8.306,3.928 8.52,3.943C8.293,3.912 8.076,3.89 7.882,3.89Z" style="fill:rgb(53,61,98);fill-rule:nonzero;"></path> <path d="M42.3,20.046C42.158,20.046 42.005,20.036 41.844,20.019C33.878,19.732 25.124,11.968 25.124,11.968C25.124,11.968 25.138,11.955 25.14,11.953L25.042,11.952C25.044,11.954 25.057,11.967 25.057,11.967C25.057,11.967 16.347,20.089 7.881,20.045C6.793,20.045 5.755,19.815 4.808,19.401C2.02,18.191 0.068,15.402 0.007,12.123C0.17,25.943 11.246,38 25.091,38C39.039,38 50.126,26.037 50.126,12.089L50.12,12.089C50.065,16.494 47.049,20.043 42.3,20.046Z" style="fill:rgb(53,61,98);fill-rule:nonzero;"></path> <path d="M4.809,19.402C5.752,19.811 6.79,20.04 7.882,20.046C16.348,20.09 25.058,11.968 25.058,11.968C25.058,11.968 25.044,11.955 25.043,11.953C24.883,11.794 17.572,4.579 8.521,3.943C8.306,3.928 8.097,3.898 7.882,3.89C3.612,3.742 0.088,7.422 0.008,11.816C0.007,11.85 0.003,11.883 0.003,11.917C0.002,11.934 0,11.951 0,11.968C0,12.02 0.007,12.072 0.008,12.124C0.069,15.402 2.021,18.192 4.809,19.402Z" style="fill:rgb(156,167,193);fill-rule:nonzero;"></path> <path d="M42.3,3.89C42.151,3.89 42.002,3.911 41.853,3.916C33.668,4.189 25.309,11.798 25.14,11.954C25.138,11.956 25.124,11.969 25.124,11.969C25.124,11.969 33.878,19.733 41.844,20.02C41.996,20.025 42.149,20.047 42.3,20.047C47.049,20.044 50.065,16.495 50.12,12.091C50.12,12.05 50.125,12.01 50.125,11.969C50.125,7.507 46.622,3.89 42.3,3.89Z" style="fill:rgb(23,32,75);fill-rule:nonzero;"></path> <path d="M96.995,22.966C96.985,21.681 96.99,20.397 96.991,19.112C96.991,19.013 97.004,18.914 97.016,18.751C97.147,18.836 97.227,18.883 97.302,18.936C97.83,19.313 98.411,19.58 99.049,19.681C101.43,20.056 103.471,18.866 104.505,16.709C104.999,15.679 105.243,14.587 105.325,13.451C105.429,12.017 105.383,10.597 104.926,9.22C104.37,7.546 103.431,6.163 101.745,5.465C100.034,4.757 98.415,4.97 96.952,6.147C96.889,6.197 96.822,6.242 96.72,6.317C96.661,6.048 96.603,5.829 96.568,5.607C96.534,5.394 96.426,5.325 96.214,5.327C95.245,5.335 94.275,5.33 93.306,5.331C92.997,5.331 92.98,5.347 92.98,5.649C92.979,11.71 92.979,17.771 92.98,23.832C92.98,24.135 92.994,24.148 93.292,24.086C94.418,23.851 95.542,23.604 96.67,23.379C96.927,23.328 96.997,23.214 96.995,22.966ZM96.994,9.685C96.996,9.549 97.045,9.379 97.135,9.284C97.806,8.579 99.1,8.405 99.933,8.9C100.463,9.215 100.802,9.699 101.024,10.258C101.633,11.791 101.61,13.323 100.911,14.819C100.753,15.158 100.489,15.469 100.212,15.728C99.365,16.519 97.86,16.282 97.165,15.583C97.068,15.485 97.004,15.309 97.002,15.167C96.988,14.246 96.995,13.324 96.995,12.402C96.992,12.402 96.99,12.402 96.987,12.402C96.988,11.497 96.982,10.591 96.994,9.685Z" style="fill:rgb(23,32,75);fill-rule:nonzero;"></path> <path d="M118.104,11.556C118.001,10.626 117.852,9.715 117.527,8.837C117.141,7.798 116.557,6.889 115.685,6.191C114.677,5.384 113.51,5.063 112.225,5.083C110.07,5.116 108.456,6.082 107.33,7.886C106.65,8.976 106.313,10.185 106.209,11.462C106.087,12.955 106.179,14.426 106.724,15.837C107.494,17.831 108.927,19.076 111.015,19.555C111.962,19.773 112.919,19.786 113.882,19.702C114.977,19.606 116.021,19.332 117.016,18.863C117.204,18.774 117.286,18.661 117.284,18.447C117.274,17.564 117.28,16.682 117.279,15.799C117.279,15.722 117.27,15.645 117.263,15.536C117.178,15.563 117.132,15.572 117.091,15.591C116.363,15.925 115.606,16.16 114.812,16.275C113.895,16.407 112.979,16.476 112.068,16.225C111.05,15.945 110.43,15.296 110.228,14.255C110.161,13.911 110.183,13.884 110.529,13.884C111.751,13.883 112.972,13.884 114.194,13.884C115.392,13.884 116.59,13.882 117.788,13.886C117.973,13.886 118.076,13.846 118.09,13.628C118.136,12.936 118.182,12.254 118.104,11.556ZM114.082,10.954C113.468,10.952 112.854,10.953 112.24,10.953C111.626,10.953 111.012,10.952 110.398,10.954C110.243,10.954 110.128,10.915 110.141,10.732C110.21,9.806 110.502,9.002 111.391,8.55C112.4,8.036 113.585,8.442 114.046,9.493C114.213,9.873 114.259,10.308 114.344,10.722C114.385,10.917 114.245,10.955 114.082,10.954Z" style="fill:rgb(23,32,75);fill-rule:nonzero;"></path> <path d="M65.407,16.185C65.165,16.248 64.912,16.293 64.663,16.296C63.377,16.314 62.175,15.95 61.008,15.447C60.744,15.333 60.483,15.211 60.19,15.078C60.174,15.185 60.156,15.251 60.155,15.318C60.153,16.413 60.156,17.509 60.152,18.604C60.151,18.779 60.214,18.891 60.383,18.939C61.116,19.15 61.838,19.415 62.584,19.561C64.16,19.87 65.74,19.869 67.268,19.299C68.779,18.735 69.818,17.718 70.102,16.073C70.312,14.855 70.167,13.695 69.366,12.695C68.882,12.09 68.242,11.682 67.534,11.395C66.79,11.093 66.021,10.852 65.279,10.547C64.92,10.4 64.556,10.215 64.267,9.963C63.813,9.567 63.988,8.869 64.563,8.675C64.791,8.598 65.039,8.546 65.278,8.544C66.625,8.533 67.898,8.861 69.116,9.424C69.198,9.462 69.282,9.498 69.398,9.55C69.406,9.434 69.416,9.358 69.416,9.283C69.417,8.227 69.411,7.171 69.421,6.115C69.423,5.89 69.349,5.773 69.134,5.699C68.265,5.401 67.38,5.187 66.462,5.124C65.421,5.053 64.384,5.042 63.366,5.328C62.32,5.622 61.414,6.134 60.76,7.021C60.311,7.63 60.101,8.328 59.992,9.078C59.863,9.963 60.033,10.772 60.468,11.527C60.946,12.357 61.73,12.835 62.577,13.206C63.146,13.455 63.745,13.638 64.317,13.882C64.793,14.085 65.265,14.308 65.709,14.572C66.018,14.756 66.157,15.082 66.094,15.451C66.025,15.837 65.78,16.087 65.407,16.185Z" style="fill:rgb(23,32,75);fill-rule:nonzero;"></path> <path d="M78.027,18.94C78.018,18.05 78.024,17.159 78.023,16.268C78.023,16.191 78.014,16.114 78.008,16.026C77.581,16.097 77.191,16.191 76.795,16.222C75.718,16.304 74.968,15.808 74.957,14.62C74.939,12.76 74.952,10.9 74.953,9.04C74.953,8.758 74.981,8.731 75.268,8.73C76.088,8.728 76.907,8.724 77.727,8.732C77.954,8.734 78.03,8.652 78.028,8.427C78.02,7.497 78.025,6.567 78.024,5.637C78.024,5.347 78.007,5.331 77.712,5.33C76.9,5.328 76.088,5.33 75.277,5.329C74.976,5.328 74.954,5.306 74.953,5.006C74.951,4.044 74.946,3.083 74.954,2.121C74.956,1.906 74.896,1.843 74.679,1.89C73.563,2.133 72.445,2.37 71.326,2.6C71.108,2.645 71.033,2.749 71.033,2.971C71.037,7.25 71.03,11.53 71.037,15.809C71.04,17.395 72.021,18.845 73.501,19.418C74.921,19.968 76.346,19.811 77.759,19.344C77.966,19.277 78.029,19.151 78.027,18.94Z" style="fill:rgb(23,32,75);fill-rule:nonzero;"></path> <path d="M83.325,19.061C83.325,16.115 83.329,13.168 83.32,10.222C83.319,9.931 83.421,9.717 83.633,9.547C83.798,9.415 83.972,9.287 84.159,9.19C84.793,8.859 85.465,8.803 86.158,8.951C86.308,8.983 86.402,8.974 86.401,8.784C86.398,7.705 86.403,6.625 86.391,5.546C86.39,5.457 86.294,5.312 86.216,5.291C85.298,5.039 84.036,5.157 83.304,6.165C83.232,6.264 83.158,6.362 83.044,6.516C82.97,6.172 82.898,5.893 82.853,5.61C82.819,5.396 82.715,5.326 82.503,5.328C81.55,5.336 80.597,5.331 79.643,5.332C79.344,5.332 79.319,5.358 79.319,5.656C79.318,10.155 79.318,14.653 79.319,19.151C79.319,19.442 79.337,19.459 79.629,19.46C80.732,19.461 81.835,19.461 82.938,19.46C83.324,19.46 83.324,19.46 83.325,19.061Z" style="fill:rgb(23,32,75);fill-rule:nonzero;"></path> <path d="M91.102,5.331C89.999,5.33 88.895,5.33 87.792,5.331C87.456,5.331 87.441,5.345 87.441,5.674C87.441,10.158 87.441,14.643 87.441,19.127C87.441,19.442 87.46,19.46 87.778,19.46C88.866,19.461 89.953,19.461 91.041,19.46C91.45,19.46 91.45,19.46 91.45,19.061L91.45,5.679C91.451,5.35 91.432,5.331 91.102,5.331Z" style="fill:rgb(23,32,75);fill-rule:nonzero;"></path> <path d="M87.701,4.008C88.871,3.754 90.041,3.504 91.213,3.261C91.399,3.222 91.456,3.128 91.453,2.951C91.446,2.502 91.451,2.053 91.451,1.604C91.451,1.147 91.447,0.69 91.453,0.234C91.456,0.032 91.382,-0.031 91.18,0.013C90.011,0.267 88.84,0.516 87.669,0.762C87.512,0.795 87.44,0.868 87.441,1.033C87.445,1.954 87.444,2.876 87.441,3.797C87.44,3.986 87.509,4.05 87.701,4.008Z" style="fill:rgb(23,32,75);fill-rule:nonzero;"></path> <path d="M63.545,27.04C64.138,26.67 64.8,26.485 65.533,26.485C65.935,26.485 66.321,26.54 66.691,26.65C67.061,26.76 67.399,26.925 67.704,27.143C68.009,27.362 68.269,27.631 68.484,27.95C68.699,28.269 68.849,28.639 68.936,29.06L70.401,29.06C70.291,28.438 70.09,27.884 69.799,27.397C69.508,26.911 69.145,26.497 68.712,26.156C68.279,25.816 67.794,25.557 67.256,25.379C66.719,25.202 66.145,25.113 65.534,25.113C64.502,25.113 63.585,25.365 62.781,25.869C61.977,26.373 61.345,27.09 60.885,28.019C60.424,28.948 60.194,30.051 60.194,31.327C60.194,32.603 60.425,33.706 60.885,34.635C61.346,35.564 61.978,36.281 62.781,36.785C63.584,37.289 64.502,37.541 65.534,37.541C66.144,37.541 66.718,37.453 67.256,37.275C67.794,37.098 68.279,36.839 68.712,36.498C69.145,36.157 69.508,35.743 69.799,35.255C70.091,34.766 70.291,34.213 70.401,33.595L68.936,33.595C68.85,34.013 68.699,34.382 68.484,34.703C68.269,35.024 68.01,35.294 67.704,35.512C67.399,35.731 67.061,35.895 66.691,36.005C66.321,36.115 65.935,36.171 65.533,36.171C64.8,36.171 64.138,35.986 63.545,35.616C62.952,35.246 62.482,34.7 62.133,33.98C61.784,33.259 61.61,32.375 61.61,31.328C61.61,30.281 61.784,29.396 62.133,28.676C62.482,27.956 62.952,27.41 63.545,27.04Z" style="fill:rgb(53,61,98);fill-rule:nonzero;"></path> <rect x="72.574" y="25.28" width="1.394" height="12.098" style="fill:rgb(53,61,98);"></rect> <path d="M77.229,24.902C76.957,24.902 76.724,24.995 76.529,25.18C76.334,25.365 76.237,25.587 76.237,25.848C76.237,26.108 76.335,26.33 76.529,26.515C76.724,26.7 76.958,26.793 77.229,26.793C77.5,26.793 77.734,26.7 77.929,26.515C78.124,26.33 78.221,26.107 78.221,25.848C78.221,25.588 78.124,25.366 77.929,25.18C77.734,24.994 77.501,24.902 77.229,24.902Z" style="fill:rgb(53,61,98);fill-rule:nonzero;"></path> <rect x="76.52" y="28.304" width="1.394" height="9.073" style="fill:rgb(53,61,98);"></rect> <path d="M89.611,28.186C88.961,28.186 88.404,28.325 87.939,28.603C87.474,28.881 87.126,29.254 86.894,29.722L86.8,29.722C86.575,29.238 86.263,28.86 85.864,28.591C85.464,28.321 84.965,28.186 84.366,28.186C83.775,28.186 83.269,28.321 82.848,28.591C82.427,28.861 82.122,29.238 81.933,29.722L81.815,29.722L81.815,28.304L80.468,28.304L80.468,37.377L81.862,37.377L81.862,31.706C81.862,31.261 81.957,30.868 82.149,30.527C82.34,30.186 82.592,29.92 82.905,29.726C83.218,29.533 83.556,29.436 83.918,29.436C84.446,29.436 84.877,29.595 85.212,29.912C85.546,30.229 85.714,30.646 85.714,31.161L85.714,37.375L87.132,37.375L87.132,31.468C87.132,30.881 87.307,30.396 87.658,30.012C88.008,29.628 88.503,29.436 89.141,29.436C89.637,29.436 90.069,29.58 90.435,29.868C90.801,30.155 90.985,30.634 90.985,31.303L90.985,37.376L92.379,37.376L92.379,31.303C92.379,30.236 92.121,29.449 91.605,28.943C91.086,28.439 90.422,28.186 89.611,28.186Z" style="fill:rgb(53,61,98);fill-rule:nonzero;"></path> <path d="M100.512,28.712C100.156,28.499 99.787,28.358 99.407,28.29C99.027,28.221 98.691,28.187 98.4,28.187C97.943,28.187 97.479,28.249 97.009,28.373C96.538,28.497 96.105,28.714 95.709,29.023C95.313,29.332 94.997,29.763 94.761,30.314L96.084,30.786C96.237,30.455 96.503,30.144 96.881,29.853C97.259,29.562 97.781,29.416 98.447,29.416C99.089,29.416 99.568,29.577 99.885,29.9C100.202,30.223 100.36,30.676 100.36,31.259L100.36,31.306C100.36,31.531 100.28,31.688 100.121,31.779C99.962,31.87 99.71,31.934 99.365,31.971C99.02,32.008 98.572,32.063 98.021,32.133C97.599,32.188 97.181,32.262 96.766,32.355C96.35,32.448 95.971,32.587 95.629,32.771C95.287,32.956 95.013,33.211 94.808,33.536C94.603,33.861 94.501,34.283 94.501,34.803C94.501,35.394 94.639,35.897 94.915,36.312C95.19,36.727 95.563,37.044 96.032,37.263C96.501,37.482 97.022,37.591 97.597,37.591C98.125,37.591 98.572,37.512 98.938,37.355C99.304,37.198 99.597,37.007 99.818,36.782C100.038,36.558 100.196,36.347 100.29,36.15L100.361,36.15L100.361,37.379L101.755,37.379L101.755,31.4C101.755,30.679 101.637,30.104 101.4,29.675C101.165,29.246 100.869,28.925 100.512,28.712ZM100.362,34.094C100.362,34.472 100.265,34.832 100.07,35.175C99.875,35.517 99.588,35.797 99.208,36.014C98.828,36.23 98.362,36.339 97.811,36.339C97.256,36.339 96.798,36.216 96.438,35.97C96.078,35.724 95.897,35.359 95.897,34.874C95.897,34.52 95.992,34.239 96.184,34.032C96.375,33.825 96.627,33.67 96.94,33.565C97.253,33.461 97.591,33.385 97.953,33.337C98.103,33.317 98.299,33.293 98.541,33.263C98.783,33.234 99.033,33.198 99.291,33.157C99.549,33.116 99.777,33.067 99.976,33.009C100.175,32.952 100.304,32.888 100.363,32.817L100.363,34.094L100.362,34.094Z" style="fill:rgb(53,61,98);fill-rule:nonzero;"></path> <path d="M107.899,36.123C107.801,36.141 107.674,36.15 107.521,36.15C107.316,36.15 107.122,36.117 106.939,36.053C106.756,35.988 106.606,35.858 106.49,35.663C106.374,35.468 106.316,35.174 106.316,34.78L106.316,29.487L108.254,29.487L108.254,28.305L106.316,28.305L106.316,26.13L104.922,26.13L104.922,28.304L103.551,28.304L103.551,29.486L104.922,29.486L104.922,35.157C104.922,35.685 105.045,36.122 105.291,36.469C105.537,36.816 105.848,37.073 106.224,37.243C106.6,37.412 106.985,37.497 107.379,37.497C107.639,37.497 107.854,37.478 108.023,37.441C108.192,37.403 108.324,37.367 108.419,37.331L108.136,36.079C108.076,36.09 107.998,36.105 107.899,36.123Z" style="fill:rgb(53,61,98);fill-rule:nonzero;"></path> <path d="M116.583,29.188C116.205,28.835 115.785,28.58 115.325,28.423C114.864,28.266 114.397,28.187 113.925,28.187C113.106,28.187 112.39,28.387 111.778,28.786C111.166,29.186 110.689,29.741 110.349,30.452C110.008,31.163 109.838,31.983 109.838,32.912C109.838,33.841 110.008,34.656 110.349,35.355C110.69,36.054 111.176,36.598 111.808,36.986C112.44,37.374 113.193,37.568 114.067,37.568C114.681,37.568 115.235,37.473 115.727,37.282C116.219,37.091 116.633,36.823 116.968,36.478C117.303,36.134 117.541,35.733 117.683,35.276L116.336,34.898C116.218,35.213 116.051,35.476 115.834,35.687C115.617,35.898 115.36,36.055 115.063,36.159C114.765,36.263 114.434,36.316 114.068,36.316C113.505,36.316 113.011,36.193 112.585,35.947C112.16,35.701 111.828,35.34 111.59,34.866C111.375,34.439 111.272,33.913 111.25,33.315L117.825,33.315L117.825,32.724C117.825,31.877 117.713,31.164 117.488,30.585C117.263,30.006 116.961,29.54 116.583,29.188ZM111.255,32.109C111.282,31.69 111.371,31.289 111.556,30.916C111.772,30.479 112.083,30.124 112.486,29.85C112.89,29.577 113.369,29.439 113.924,29.439C114.428,29.439 114.866,29.555 115.238,29.788C115.61,30.02 115.897,30.337 116.101,30.739C116.304,31.141 116.405,31.597 116.405,32.11L111.255,32.11L111.255,32.109Z" style="fill:rgb(53,61,98);fill-rule:nonzero;"></path> </svg> 