<?xml version="1.0" encoding="UTF-8" standalone="no"?> <svg xmlns="http://www.w3.org/2000/svg" xmlns:xlink="http://www.w3.org/1999/xlink" xmlns:serif="http://www.serif.com/" width="100%" height="100%" viewBox="0 0 118 22" version="1.1" xml:space="preserve" style="fill-rule:evenodd;clip-rule:evenodd;stroke-linejoin:round;stroke-miterlimit:1.41421;"> <path d="M0,22L22,22L22,0L0,0L0,22ZM11,14.827L14.346,13.979L15.744,18.287L11,14.827ZM9.19,9.258L11,3.713L12.81,9.259L18.7,9.259L13.956,12.697L11.023,14.805L6.256,18.243L8.066,12.697L3.3,9.258L9.19,9.258Z" style="fill:rgb(57,214,180);fill-rule:nonzero;"></path> <path d="M23.833,22L45.833,22L45.833,0L23.833,0L23.833,22ZM34.833,14.827L38.179,13.979L39.577,18.287L34.833,14.827ZM33.023,9.258L34.833,3.712L36.643,9.258L42.533,9.258L37.789,12.696L34.856,14.804L30.089,18.242L31.899,12.696L27.132,9.258L33.023,9.258Z" style="fill:rgb(57,214,180);fill-rule:nonzero;"></path> <path d="M47.667,22L69.667,22L69.667,0L47.667,0L47.667,22ZM58.667,14.827L62.013,13.979L63.411,18.287L58.667,14.827ZM56.856,9.258L58.666,3.712L60.476,9.258L66.366,9.258L61.622,12.696L58.689,14.804L53.922,18.242L55.732,12.696L50.965,9.258L56.856,9.258Z" style="fill:rgb(57,214,180);fill-rule:nonzero;"></path> <path d="M71.5,22L93.5,22L93.5,0L71.5,0L71.5,22ZM82.5,14.827L85.846,13.979L87.244,18.287L82.5,14.827ZM80.69,9.258L82.5,3.712L84.31,9.258L90.2,9.258L85.456,12.696L82.523,14.804L77.756,18.242L79.566,12.696L74.8,9.258L80.69,9.258Z" style="fill:rgb(57,214,180);fill-rule:nonzero;"></path> <path d="M95.333,0L95.333,22L117.333,22L117.333,0L95.333,0ZM106.333,14.827L109.679,13.979L111.077,18.287L106.333,14.827ZM109.29,12.696L106.357,14.804L101.59,18.242L103.4,12.696L98.633,9.258L104.523,9.258L106.333,3.712L108.143,9.258L114.033,9.258L109.29,12.696Z" style="fill:rgb(57,214,180);fill-rule:nonzero;"></path> <path d="M11,14.827L15.744,18.287L14.346,13.979L11,14.827Z" style="fill:white;fill-rule:nonzero;"></path> <path d="M6.256,18.242L11.023,14.804L13.956,12.696L18.7,9.258L12.81,9.258L11,3.713L9.19,9.258L3.3,9.258L8.067,12.696L6.256,18.242Z" style="fill:white;fill-rule:nonzero;"></path> <path d="M30.09,18.242L34.856,14.804L37.79,12.696L42.533,9.258L36.644,9.258L34.833,3.713L33.023,9.258L27.133,9.258L31.9,12.696L30.09,18.242Z" style="fill:white;fill-rule:nonzero;"></path> <path d="M34.833,14.827L39.577,18.287L38.179,13.979L34.833,14.827Z" style="fill:white;fill-rule:nonzero;"></path> <path d="M58.667,14.827L63.41,18.287L62.013,13.979L58.667,14.827Z" style="fill:white;fill-rule:nonzero;"></path> <path d="M53.923,18.242L58.69,14.804L61.623,12.696L66.367,9.258L60.477,9.258L58.667,3.713L56.856,9.258L50.967,9.258L55.733,12.696L53.923,18.242Z" style="fill:white;fill-rule:nonzero;"></path> <path d="M77.756,18.242L82.523,14.804L85.456,12.696L90.2,9.258L84.31,9.258L82.5,3.713L80.69,9.258L74.8,9.258L79.567,12.696L77.756,18.242Z" style="fill:white;fill-rule:nonzero;"></path> <path d="M82.5,14.827L87.244,18.287L85.846,13.979L82.5,14.827Z" style="fill:white;fill-rule:nonzero;"></path> <path d="M106.333,14.827L111.077,18.287L109.679,13.979L106.333,14.827Z" style="fill:white;fill-rule:nonzero;"></path> <path d="M106.333,3.713L104.523,9.258L98.633,9.258L103.4,12.696L101.59,18.242L106.356,14.804L109.29,12.696L114.033,9.258L108.144,9.258L106.333,3.713Z" style="fill:white;fill-rule:nonzero;"></path> </svg> 